<svg width="175" height="173" viewBox="0 0 175 173" fill="none" xmlns="http://www.w3.org/2000/svg">
<g filter="url(#filter0_f_2874_2142)">
<path fill-rule="evenodd" clip-rule="evenodd" d="M41.3097 86.5L10 68.3231L33.0771 28.177L64.405 46.3225L64.4227 10L110.577 10L110.595 46.3225L141.923 28.177L165 68.3231L133.69 86.5L165 104.677L141.923 144.823L110.595 126.678L110.577 163H64.4227L64.405 126.678L33.0771 144.823L10 104.677L41.3097 86.5Z" fill="url(#paint0_linear_2874_2142)"/>
<path d="M108.078 12.5L108.095 46.3242L108.097 50.6582L111.848 48.4863L141.004 31.5967L161.592 67.4102L132.435 84.3379L128.711 86.5L132.435 88.6621L161.592 105.589L141.004 141.402L111.848 124.515L108.097 122.342L108.095 126.677L108.078 160.5H66.9219L66.9053 126.677L66.9033 122.342L63.1523 124.515L33.9941 141.402L13.4072 105.589L42.5645 88.6621L46.2891 86.5L42.5645 84.3379L13.4072 67.4102L33.9941 31.5967L63.1523 48.4863L66.9033 50.6582L66.9053 46.3242L66.9219 12.5L108.078 12.5Z" stroke="url(#paint1_linear_2874_2142)" stroke-width="5"/>
</g>
<defs>
<filter id="filter0_f_2874_2142" x="0" y="0" width="175" height="173" filterUnits="userSpaceOnUse" color-interpolation-filters="sRGB">
<feFlood flood-opacity="0" result="BackgroundImageFix"/>
<feBlend mode="normal" in="SourceGraphic" in2="BackgroundImageFix" result="shape"/>
<feGaussianBlur stdDeviation="5" result="effect1_foregroundBlur_2874_2142"/>
</filter>
<linearGradient id="paint0_linear_2874_2142" x1="87.5" y1="10" x2="87.5" y2="163" gradientUnits="userSpaceOnUse">
<stop stop-color="#EDF0FA"/>
<stop offset="1" stop-color="#EDF0FA" stop-opacity="0.39"/>
</linearGradient>
<linearGradient id="paint1_linear_2874_2142" x1="87.5" y1="10" x2="87.5" y2="163" gradientUnits="userSpaceOnUse">
<stop stop-color="white"/>
<stop offset="1" stop-color="white" stop-opacity="0"/>
</linearGradient>
</defs>
</svg>
