<svg width="269" height="264" viewBox="0 0 269 264" fill="none" xmlns="http://www.w3.org/2000/svg">
<path d="M201.354 2.5C237.083 2.50021 265.971 30.9469 265.971 65.9453C265.971 100.671 237.532 128.946 202.189 129.386L201.354 129.391V134.391C237.083 134.391 265.971 162.837 265.971 197.836C265.971 232.835 237.083 261.281 201.354 261.281C165.624 261.281 136.735 232.835 136.735 197.836H131.735C131.735 232.835 102.848 261.281 67.1182 261.281C31.3891 261.281 2.5 232.835 2.5 197.836C2.50005 162.837 31.3891 134.391 67.1182 134.391V129.391L66.2812 129.386C30.9388 128.946 2.5 100.671 2.5 65.9453C2.50002 30.9468 31.3891 2.5 67.1182 2.5C102.848 2.50024 131.735 30.9469 131.735 65.9453H136.735C136.735 30.9468 165.624 2.5 201.354 2.5Z" fill="url(#paint0_linear_2874_2141)" stroke="url(#paint1_linear_2874_2141)" stroke-width="5"/>
<defs>
<linearGradient id="paint0_linear_2874_2141" x1="134.235" y1="0" x2="134.235" y2="263.781" gradientUnits="userSpaceOnUse">
<stop stop-color="#EDF0FA"/>
<stop offset="1" stop-color="#EDF0FA" stop-opacity="0.39"/>
</linearGradient>
<linearGradient id="paint1_linear_2874_2141" x1="134.235" y1="0" x2="134.235" y2="263.781" gradientUnits="userSpaceOnUse">
<stop stop-color="white"/>
<stop offset="1" stop-color="white" stop-opacity="0"/>
</linearGradient>
</defs>
</svg>
