<svg width="1920" height="1823" viewBox="0 0 1920 1823" fill="none" xmlns="http://www.w3.org/2000/svg">
<g clip-path="url(#clip0_3451_3891)">
<g opacity="0.7" filter="url(#filter0_f_3451_3891)">
<path d="M1351.49 755.43C1353.11 753.097 1354.77 750.809 1356.46 748.563L1356.58 748.387L1356.59 748.392C1419.42 665.152 1530.82 641.355 1609.27 695.844C1687.73 750.334 1704.32 863.028 1648.26 950.972L1648.32 951.01L1647.29 952.485C1646.05 954.405 1644.77 956.315 1643.45 958.211C1642.13 960.107 1640.79 961.973 1639.43 963.812L1132.87 1693.15L841.137 1490.52L1346.79 762.488C1348.3 760.118 1349.87 757.763 1351.49 755.43Z" fill="url(#paint0_linear_3451_3891)"/>
</g>
<rect width="1920" height="1823" fill="#3D72FF"/>
<g filter="url(#filter1_f_3451_3891)">
<path d="M1818.8 636.983C1820.4 634.669 1822.05 632.4 1823.73 630.171L1823.86 629.982L1823.87 629.987C1886.31 547.261 1997.02 523.611 2074.99 577.765C2152.96 631.919 2169.46 743.918 2113.74 831.32L2113.8 831.357L2112.77 832.831C2111.54 834.738 2110.27 836.633 2108.96 838.515C2107.65 840.396 2106.32 842.248 2104.97 844.073L1601.53 1568.92L1311.59 1367.55L1814.13 643.984C1815.64 641.633 1817.19 639.298 1818.8 636.983Z" fill="url(#paint1_linear_3451_3891)"/>
</g>
<circle cx="960" cy="-196" r="1154" fill="url(#paint2_linear_3451_3891)"/>
<g filter="url(#filter2_f_3451_3891)">
<path fill-rule="evenodd" clip-rule="evenodd" d="M1658.14 768.25L1629.82 745.699L1658.5 709.35L1686.85 731.873L1692.17 695.941L1737.83 702.676L1732.54 738.613L1766.18 725.233L1783.16 768.316L1749.53 781.73L1777.85 804.281L1749.16 840.63L1720.82 818.107L1715.5 854.039L1669.84 847.304L1675.12 811.367L1641.48 824.747L1624.51 781.664L1658.14 768.25Z" fill="url(#paint3_linear_3451_3891)"/>
<path d="M1734.99 704.785L1730.07 738.249L1729.44 742.537L1733.47 740.936L1764.78 728.482L1779.92 766.916L1748.6 779.408L1744.6 781.003L1747.97 783.686L1774.35 804.686L1748.75 837.112L1722.37 816.151L1718.98 813.454L1718.35 817.742L1713.39 851.201L1672.68 845.195L1677.6 811.731L1678.23 807.443L1674.2 809.045L1642.89 821.497L1627.75 783.063L1659.06 770.572L1663.06 768.976L1659.69 766.294L1633.32 745.293L1658.91 712.867L1685.29 733.83L1688.69 736.526L1689.32 732.239L1694.27 698.779L1734.99 704.785Z" stroke="url(#paint4_linear_3451_3891)" stroke-width="5"/>
</g>
<g filter="url(#filter3_f_3451_3891)">
<path d="M566.796 1202.53C568.403 1200.22 570.05 1197.95 571.729 1195.72L571.86 1195.53L571.867 1195.53C634.314 1112.81 745.024 1089.16 822.994 1143.31C900.964 1197.47 917.459 1309.46 861.745 1396.87L861.798 1396.9L860.774 1398.38C859.536 1400.28 858.266 1402.18 856.96 1404.06C855.653 1405.94 854.32 1407.79 852.966 1409.62L349.527 2134.47L59.5887 1933.09L562.135 1209.53C563.637 1207.18 565.189 1204.84 566.796 1202.53Z" fill="url(#paint5_linear_3451_3891)"/>
</g>
<g opacity="0.7" filter="url(#filter4_f_3451_3891)">
<path d="M74.4876 1288.98C76.1079 1286.64 77.7682 1284.36 79.4608 1282.11L79.5828 1281.93L79.5892 1281.94C142.424 1198.7 253.82 1174.9 332.274 1229.39C410.728 1283.88 427.324 1396.57 371.264 1484.52L371.318 1484.56L370.293 1486.03C369.047 1487.95 367.767 1489.86 366.45 1491.76C365.134 1493.65 363.791 1495.52 362.426 1497.36L-144.128 2226.69L-435.863 2024.07L69.7887 1296.03C71.3032 1293.66 72.8673 1291.31 74.4876 1288.98Z" fill="url(#paint6_linear_3451_3891)"/>
</g>
<path d="M1266.73 1389.7L791.805 2073.5L523.002 1886.8L997.931 1203L1266.73 1389.7Z" fill="url(#paint7_linear_3451_3891)"/>
<line opacity="0.34" x1="-81.2546" y1="1631.46" x2="144.599" y2="1306.25" stroke="url(#paint8_linear_3451_3891)" stroke-width="10" stroke-linecap="round"/>
<line opacity="0.34" x1="1636.75" y1="1369.46" x2="1862.6" y2="1044.25" stroke="url(#paint9_linear_3451_3891)" stroke-width="10" stroke-linecap="round"/>
<circle opacity="0.9" cx="168.5" cy="1271.5" r="6.5" fill="url(#paint10_linear_3451_3891)"/>
<circle opacity="0.9" cx="1881.5" cy="1016.5" r="6.5" fill="url(#paint11_linear_3451_3891)"/>
<path d="M1369.66 1058.68C1378.12 1048.8 1392.79 1047.58 1402.41 1055.82C1412.03 1064.07 1413.08 1078.74 1404.62 1088.62L1408.42 1091.87C1416.88 1082 1431.54 1080.78 1441.17 1089.02C1450.79 1097.26 1451.84 1111.94 1443.38 1121.81C1435.06 1131.54 1420.72 1132.87 1411.09 1125.05L1410.64 1124.67L1407.38 1128.47C1417.01 1136.71 1418.06 1151.39 1409.6 1161.26C1401.14 1171.14 1386.48 1172.36 1376.85 1164.12C1367.23 1155.88 1366.18 1141.2 1374.64 1131.32L1370.84 1128.07C1362.38 1137.95 1347.72 1139.17 1338.09 1130.92C1328.47 1122.68 1327.42 1108 1335.88 1098.13C1344.34 1088.25 1359 1087.03 1368.63 1095.27L1371.88 1091.48L1371.43 1091.08C1362.22 1082.78 1361.34 1068.4 1369.66 1058.68Z" fill="url(#paint12_linear_3451_3891)" stroke="url(#paint13_linear_3451_3891)" stroke-width="5"/>
<g filter="url(#filter5_f_3451_3891)">
<path fill-rule="evenodd" clip-rule="evenodd" d="M276.246 1566.23L258.899 1561.54L264.806 1539.33L282.158 1544L277.5 1526.59L299.629 1520.66L304.304 1538.07L316.993 1525.35L333.216 1541.63L320.539 1554.37L337.886 1559.06L331.979 1581.27L314.628 1576.6L319.285 1594.01L297.156 1599.94L292.481 1582.53L279.792 1595.26L263.57 1578.97L276.246 1566.23Z" fill="url(#paint14_linear_3451_3891)"/>
<path d="M297.862 1523.72L301.889 1538.72L303.014 1542.9L306.074 1539.84L316.991 1528.89L329.687 1541.63L318.767 1552.6L315.729 1555.66L319.886 1556.78L334.829 1560.82L330.206 1578.21L315.278 1574.18L311.093 1573.06L312.212 1577.24L316.224 1592.25L298.922 1596.88L294.895 1581.88L293.771 1577.7L290.711 1580.77L279.792 1591.71L267.097 1578.97L278.018 1568L281.056 1564.95L276.899 1563.82L261.954 1559.78L266.577 1542.39L281.507 1546.42L285.692 1547.55L284.573 1543.36L280.56 1528.35L297.862 1523.72Z" stroke="url(#paint15_linear_3451_3891)" stroke-width="5"/>
</g>
</g>
<defs>
<filter id="filter0_f_3451_3891" x="838.937" y="664.351" width="844.617" height="1030.99" filterUnits="userSpaceOnUse" color-interpolation-filters="sRGB">
<feFlood flood-opacity="0" result="BackgroundImageFix"/>
<feBlend mode="normal" in="SourceGraphic" in2="BackgroundImageFix" result="shape"/>
<feGaussianBlur stdDeviation="1.1" result="effect1_foregroundBlur_3451_3891"/>
</filter>
<filter id="filter1_f_3451_3891" x="1307.59" y="544.652" width="843.041" height="1028.27" filterUnits="userSpaceOnUse" color-interpolation-filters="sRGB">
<feFlood flood-opacity="0" result="BackgroundImageFix"/>
<feBlend mode="normal" in="SourceGraphic" in2="BackgroundImageFix" result="shape"/>
<feGaussianBlur stdDeviation="2" result="effect1_foregroundBlur_3451_3891"/>
</filter>
<filter id="filter2_f_3451_3891" x="1622.51" y="693.941" width="162.646" height="162.097" filterUnits="userSpaceOnUse" color-interpolation-filters="sRGB">
<feFlood flood-opacity="0" result="BackgroundImageFix"/>
<feBlend mode="normal" in="SourceGraphic" in2="BackgroundImageFix" result="shape"/>
<feGaussianBlur stdDeviation="1" result="effect1_foregroundBlur_3451_3891"/>
</filter>
<filter id="filter3_f_3451_3891" x="55.5879" y="1110.2" width="843.041" height="1028.27" filterUnits="userSpaceOnUse" color-interpolation-filters="sRGB">
<feFlood flood-opacity="0" result="BackgroundImageFix"/>
<feBlend mode="normal" in="SourceGraphic" in2="BackgroundImageFix" result="shape"/>
<feGaussianBlur stdDeviation="2" result="effect1_foregroundBlur_3451_3891"/>
</filter>
<filter id="filter4_f_3451_3891" x="-438.063" y="1197.9" width="844.617" height="1030.99" filterUnits="userSpaceOnUse" color-interpolation-filters="sRGB">
<feFlood flood-opacity="0" result="BackgroundImageFix"/>
<feBlend mode="normal" in="SourceGraphic" in2="BackgroundImageFix" result="shape"/>
<feGaussianBlur stdDeviation="1.1" result="effect1_foregroundBlur_3451_3891"/>
</filter>
<filter id="filter5_f_3451_3891" x="254.098" y="1515.86" width="88.5883" height="88.8871" filterUnits="userSpaceOnUse" color-interpolation-filters="sRGB">
<feFlood flood-opacity="0" result="BackgroundImageFix"/>
<feBlend mode="normal" in="SourceGraphic" in2="BackgroundImageFix" result="shape"/>
<feGaussianBlur stdDeviation="2.4" result="effect1_foregroundBlur_3451_3891"/>
</filter>
<linearGradient id="paint0_linear_3451_3891" x1="1580.11" y1="696.719" x2="967.715" y2="1578.44" gradientUnits="userSpaceOnUse">
<stop stop-color="#3169FE"/>
<stop offset="0.228209" stop-color="#4376FF"/>
<stop offset="1" stop-color="#6C94FD"/>
</linearGradient>
<linearGradient id="paint1_linear_3451_3891" x1="2046.01" y1="578.634" x2="1437.39" y2="1454.92" gradientUnits="userSpaceOnUse">
<stop stop-color="#3D72FF"/>
<stop offset="1" stop-color="#7FB0FE" stop-opacity="0"/>
</linearGradient>
<linearGradient id="paint2_linear_3451_3891" x1="960" y1="-1350" x2="960" y2="958" gradientUnits="userSpaceOnUse">
<stop stop-color="white" stop-opacity="0.8"/>
<stop offset="1" stop-color="white"/>
</linearGradient>
<linearGradient id="paint3_linear_3451_3891" x1="1715" y1="699.309" x2="1692.67" y2="850.671" gradientUnits="userSpaceOnUse">
<stop stop-color="#EDF0FA"/>
<stop offset="1" stop-color="#EDF0FA" stop-opacity="0.39"/>
</linearGradient>
<linearGradient id="paint4_linear_3451_3891" x1="1715" y1="699.309" x2="1692.67" y2="850.671" gradientUnits="userSpaceOnUse">
<stop stop-color="white"/>
<stop offset="1" stop-color="white" stop-opacity="0"/>
</linearGradient>
<linearGradient id="paint5_linear_3451_3891" x1="794.006" y1="1144.18" x2="185.387" y2="2020.47" gradientUnits="userSpaceOnUse">
<stop stop-color="#3D72FF"/>
<stop offset="1" stop-color="#7FB0FE"/>
</linearGradient>
<linearGradient id="paint6_linear_3451_3891" x1="303.107" y1="1230.26" x2="-309.285" y2="2111.98" gradientUnits="userSpaceOnUse">
<stop stop-color="#3169FE"/>
<stop offset="0.228209" stop-color="#1C57F5" stop-opacity="0.3"/>
<stop offset="1" stop-color="#6C94FD"/>
</linearGradient>
<linearGradient id="paint7_linear_3451_3891" x1="882.933" y1="1284.01" x2="433.275" y2="1931.42" gradientUnits="userSpaceOnUse">
<stop stop-color="#3D72FF"/>
<stop offset="1" stop-color="#3A6CF2"/>
</linearGradient>
<linearGradient id="paint8_linear_3451_3891" x1="151.969" y1="1305.29" x2="-79.5893" y2="1638.7" gradientUnits="userSpaceOnUse">
<stop stop-color="#EDF1FA"/>
<stop offset="1" stop-color="#EDF1FA" stop-opacity="0"/>
</linearGradient>
<linearGradient id="paint9_linear_3451_3891" x1="1869.97" y1="1043.29" x2="1638.41" y2="1376.7" gradientUnits="userSpaceOnUse">
<stop stop-color="#EDF1FA"/>
<stop offset="1" stop-color="#EDF1FA" stop-opacity="0"/>
</linearGradient>
<linearGradient id="paint10_linear_3451_3891" x1="172.602" y1="1265" x2="164.398" y2="1278" gradientUnits="userSpaceOnUse">
<stop stop-color="#A5BEFF"/>
<stop offset="1" stop-color="#A5BEFF" stop-opacity="0"/>
</linearGradient>
<linearGradient id="paint11_linear_3451_3891" x1="1885.6" y1="1010" x2="1877.4" y2="1023" gradientUnits="userSpaceOnUse">
<stop stop-color="#A5BEFF"/>
<stop offset="1" stop-color="#A5BEFF" stop-opacity="0.21"/>
</linearGradient>
<linearGradient id="paint12_linear_3451_3891" x1="1350.87" y1="1076.78" x2="1428.39" y2="1143.16" gradientUnits="userSpaceOnUse">
<stop stop-color="#EDF0FA"/>
<stop offset="1" stop-color="#EDF0FA" stop-opacity="0.39"/>
</linearGradient>
<linearGradient id="paint13_linear_3451_3891" x1="1350.87" y1="1076.78" x2="1428.39" y2="1143.16" gradientUnits="userSpaceOnUse">
<stop stop-color="white"/>
<stop offset="1" stop-color="white" stop-opacity="0"/>
</linearGradient>
<linearGradient id="paint14_linear_3451_3891" x1="288.565" y1="1523.62" x2="308.221" y2="1596.98" gradientUnits="userSpaceOnUse">
<stop stop-color="#EDF0FA"/>
<stop offset="1" stop-color="#EDF0FA" stop-opacity="0.39"/>
</linearGradient>
<linearGradient id="paint15_linear_3451_3891" x1="288.565" y1="1523.62" x2="308.221" y2="1596.98" gradientUnits="userSpaceOnUse">
<stop stop-color="white"/>
<stop offset="1" stop-color="white" stop-opacity="0"/>
</linearGradient>
<clipPath id="clip0_3451_3891">
<rect width="1920" height="1823" fill="white"/>
</clipPath>
</defs>
</svg>
