<svg width="450" height="461" viewBox="0 0 450 461" fill="none" xmlns="http://www.w3.org/2000/svg">
<g filter="url(#filter0_d_2479_2970)">
<path d="M360.338 215.417C369.879 217.973 375.541 227.78 372.984 237.32L352.155 315.056C349.599 324.596 339.792 330.258 330.252 327.701L71.1333 258.271C61.5928 255.714 55.9311 245.908 58.4874 236.368L79.3166 158.632C81.873 149.092 91.6794 143.43 101.22 145.986L360.338 215.417Z" fill="#3D72FF"/>
<path d="M335.038 94.7C344.808 96.1538 351.549 105.256 350.096 115.026L311.925 371.518L63.6563 334.575L101.827 78.0824C103.28 68.3135 112.375 61.5698 122.144 63.0226L335.038 94.7Z" fill="white"/>
<g filter="url(#filter1_d_2479_2970)">
<path d="M188.597 51.3036L388.202 131.837C397.359 135.532 401.787 145.95 398.094 155.108L301.065 395.595L68.2964 301.682L165.317 61.1938C169.013 52.0351 179.438 47.6082 188.597 51.3036Z" fill="white"/>
</g>
<path d="M206.593 219.209C214.743 221.393 220.574 228.56 221.069 236.983C221.565 245.403 227.399 252.564 235.547 254.748L345.124 284.109C361.465 288.488 369.724 306.711 362.241 321.883L325.934 395.471C320.272 406.946 307.29 412.832 294.93 409.521L69.8297 349.205C57.9298 346.017 49.7297 335.128 50.0066 322.812C50.8259 286.368 52.2794 236.066 53.6351 205.453C54.2911 190.654 67.0345 181.815 81.3441 185.648L206.593 219.209Z" fill="#3D72FF"/>
<path d="M202.36 90.715L260.408 114.134C269.568 117.829 274.002 128.257 270.307 137.417L246.888 195.464C243.191 204.622 232.766 209.049 223.607 205.354L165.56 181.935C156.402 178.24 151.974 167.822 155.667 158.664L179.086 100.616C182.781 91.4568 193.201 87.0213 202.36 90.715Z" fill="#ECECEC"/>
<path d="M266.653 205.246L304.372 219.982C307.819 221.33 309.52 225.219 308.175 228.667C306.826 232.114 302.935 233.823 299.487 232.478L261.762 217.731C258.317 216.381 256.614 212.494 257.96 209.046C259.309 205.598 263.204 203.899 266.653 205.246Z" fill="#ECECEC"/>
<path d="M277.989 180.52L340.646 205.798C344.077 207.185 345.74 211.089 344.357 214.522C342.971 217.956 339.059 219.614 335.624 218.23L272.973 192.963C269.538 191.578 267.871 187.664 269.256 184.229C270.642 180.794 274.554 179.135 277.989 180.52Z" fill="#ECECEC"/>
<path d="M289.058 156.483L351.716 181.761C355.148 183.148 356.809 187.059 355.424 190.493C354.037 193.925 350.125 195.585 346.692 194.201L284.043 168.925C280.608 167.54 278.94 163.626 280.326 160.191C281.712 156.757 285.624 155.097 289.058 156.483Z" fill="#ECECEC"/>
<path d="M298.397 133.238L361.054 158.516C364.485 159.903 366.148 163.807 364.765 167.24C363.379 170.674 359.467 172.332 356.032 170.948L293.381 145.68C289.946 144.295 288.279 140.381 289.664 136.946C291.05 133.511 294.962 131.852 298.397 133.238Z" fill="#ECECEC"/>
</g>
<defs>
<filter id="filter0_d_2479_2970" x="0" y="0" width="449.398" height="460.438" filterUnits="userSpaceOnUse" color-interpolation-filters="sRGB">
<feFlood flood-opacity="0" result="BackgroundImageFix"/>
<feColorMatrix in="SourceAlpha" type="matrix" values="0 0 0 0 0 0 0 0 0 0 0 0 0 0 0 0 0 0 127 0" result="hardAlpha"/>
<feOffset/>
<feGaussianBlur stdDeviation="25"/>
<feComposite in2="hardAlpha" operator="out"/>
<feColorMatrix type="matrix" values="0 0 0 0 0 0 0 0 0 0 0 0 0 0 0 0 0 0 0.25 0"/>
<feBlend mode="normal" in2="BackgroundImageFix" result="effect1_dropShadow_2479_2970"/>
<feBlend mode="normal" in="SourceGraphic" in2="effect1_dropShadow_2479_2970" result="shape"/>
</filter>
<filter id="filter1_d_2479_2970" x="64.7969" y="49.5" width="336.102" height="350.595" filterUnits="userSpaceOnUse" color-interpolation-filters="sRGB">
<feFlood flood-opacity="0" result="BackgroundImageFix"/>
<feColorMatrix in="SourceAlpha" type="matrix" values="0 0 0 0 0 0 0 0 0 0 0 0 0 0 0 0 0 0 127 0" result="hardAlpha"/>
<feOffset dx="-1" dy="2"/>
<feGaussianBlur stdDeviation="1.25"/>
<feComposite in2="hardAlpha" operator="out"/>
<feColorMatrix type="matrix" values="0 0 0 0 0 0 0 0 0 0 0 0 0 0 0 0 0 0 0.08 0"/>
<feBlend mode="normal" in2="BackgroundImageFix" result="effect1_dropShadow_2479_2970"/>
<feBlend mode="normal" in="SourceGraphic" in2="effect1_dropShadow_2479_2970" result="shape"/>
</filter>
</defs>
</svg>
