<svg width="178" height="170" viewBox="0 0 178 170" fill="none" xmlns="http://www.w3.org/2000/svg">
<g filter="url(#filter0_f_2874_2137)">
<path fill-rule="evenodd" clip-rule="evenodd" d="M89.0104 4.5C105.96 4.5 119.699 18.0324 119.699 34.7255C119.699 51.4185 105.96 64.9508 89.0104 64.9508C72.0611 64.9508 58.3214 51.4185 58.3214 34.7255C58.3214 18.0324 72.0611 4.5 89.0104 4.5ZM37.7408 159.725C24.0287 149.914 20.989 131.011 30.9514 117.506C40.9138 104.001 60.1057 101.008 73.8179 110.82C87.5301 120.631 90.5696 139.533 80.6076 153.039C70.645 166.544 51.4529 169.537 37.7408 159.725ZM147.169 117.506C157.131 131.011 154.092 149.914 140.38 159.725C126.667 169.537 107.475 166.544 97.5132 153.039C87.5506 139.533 90.5901 120.631 104.302 110.82C118.015 101.008 137.207 104.001 147.169 117.506ZM6.01032 63.7449C11.2479 47.8691 28.5612 39.1807 44.6808 44.3392C60.8003 49.4976 69.6219 66.5496 64.3844 82.4255C59.1468 98.3013 41.8334 106.99 25.7139 101.831C9.59432 96.6728 0.772761 79.6214 6.01032 63.7449ZM133.319 44.3392C149.439 39.1807 166.752 47.8691 171.99 63.7449C177.227 79.6214 168.406 96.6728 152.286 101.831C136.166 106.99 118.853 98.3013 113.616 82.4255C108.378 66.5496 117.2 49.4976 133.319 44.3392Z" fill="url(#paint0_linear_2874_2137)"/>
<path d="M32.9629 118.99C42.1076 106.594 59.7536 103.829 72.3633 112.853C84.9502 121.859 87.723 139.181 78.5957 151.555C69.4507 163.951 51.8048 166.716 39.1953 157.692C26.6085 148.686 23.8353 131.364 32.9629 118.99ZM105.757 112.853C118.367 103.829 136.013 106.594 145.157 118.99C154.142 131.17 151.596 148.145 139.508 157.264L138.925 157.692C126.315 166.715 108.67 163.951 99.5254 151.555C90.3975 139.181 93.1699 121.859 105.757 112.853ZM8.38477 64.5283C13.1835 49.9825 29.0787 41.9707 43.9189 46.7197C58.7433 51.4637 66.8028 67.1141 62.0098 81.6426C57.2108 96.1881 41.3156 104.199 26.4756 99.4502C11.6514 94.7062 3.59177 79.0573 8.38477 64.5283ZM134.081 46.7207C148.922 41.9717 164.816 49.9825 169.615 64.5283C174.408 79.0574 166.348 94.7062 151.524 99.4502C136.684 104.199 120.789 96.1882 115.99 81.6426C111.197 67.1141 119.257 51.4637 134.081 46.7197V46.7207ZM89.0107 7C104.615 7.00018 117.199 19.4491 117.199 34.7256C117.199 50.002 104.615 62.451 89.0107 62.4512C73.4062 62.4512 60.8214 50.0021 60.8213 34.7256C60.8213 19.449 73.4062 7 89.0107 7Z" stroke="url(#paint1_linear_2874_2137)" stroke-width="5"/>
</g>
<defs>
<filter id="filter0_f_2874_2137" x="0" y="0" width="178" height="170" filterUnits="userSpaceOnUse" color-interpolation-filters="sRGB">
<feFlood flood-opacity="0" result="BackgroundImageFix"/>
<feBlend mode="normal" in="SourceGraphic" in2="BackgroundImageFix" result="shape"/>
<feGaussianBlur stdDeviation="2.25" result="effect1_foregroundBlur_2874_2137"/>
</filter>
<linearGradient id="paint0_linear_2874_2137" x1="89" y1="4.5" x2="89" y2="165.5" gradientUnits="userSpaceOnUse">
<stop stop-color="#EDF0FA"/>
<stop offset="1" stop-color="#EDF0FA" stop-opacity="0.39"/>
</linearGradient>
<linearGradient id="paint1_linear_2874_2137" x1="89" y1="4.5" x2="89" y2="165.5" gradientUnits="userSpaceOnUse">
<stop stop-color="white"/>
<stop offset="1" stop-color="white" stop-opacity="0"/>
</linearGradient>
</defs>
</svg>
