<svg width="844" height="1029" viewBox="0 0 844 1029" fill="none" xmlns="http://www.w3.org/2000/svg">
<g filter="url(#filter0_f_2874_2143)">
<path d="M511.208 92.3316C512.815 90.0176 514.462 87.7479 516.141 85.519L516.272 85.3305L516.279 85.3355C578.726 2.60924 689.436 -21.0404 767.406 33.1134C845.376 87.2673 861.871 199.266 806.157 286.668L806.21 286.705L805.186 288.179C803.948 290.086 802.678 291.981 801.372 293.863C800.065 295.744 798.732 297.596 797.378 299.421L293.939 1024.27L4.00079 822.895L506.547 99.3325C508.049 96.9811 509.601 94.6457 511.208 92.3316Z" fill="url(#paint0_linear_2874_2143)"/>
</g>
<defs>
<filter id="filter0_f_2874_2143" x="0" y="0" width="843.041" height="1028.27" filterUnits="userSpaceOnUse" color-interpolation-filters="sRGB">
<feFlood flood-opacity="0" result="BackgroundImageFix"/>
<feBlend mode="normal" in="SourceGraphic" in2="BackgroundImageFix" result="shape"/>
<feGaussianBlur stdDeviation="2" result="effect1_foregroundBlur_2874_2143"/>
</filter>
<linearGradient id="paint0_linear_2874_2143" x1="738.418" y1="33.9823" x2="129.799" y2="910.269" gradientUnits="userSpaceOnUse">
<stop stop-color="#3D72FF"/>
<stop offset="1" stop-color="#7FB0FE"/>
</linearGradient>
</defs>
</svg>
