<svg width="1319" height="642" viewBox="0 0 1319 642" fill="none" xmlns="http://www.w3.org/2000/svg">
<path d="M71.4453 510.027C71.4453 512.236 73.2362 514.027 75.4453 514.027C77.6545 514.027 79.4453 512.236 79.4453 510.027C79.4453 507.818 77.6545 506.027 75.4453 506.027C73.2362 506.027 71.4453 507.818 71.4453 510.027ZM75.4453 487.027L74.6953 487.027L74.6953 510.027L75.4453 510.027L76.1953 510.027L76.1953 487.027L75.4453 487.027Z" fill="#3D72FF"/>
<rect y="451.137" width="150.912" height="35.8908" rx="8" fill="#D9D9D9"/>
<path d="M40.0967 462.049V468.365H39.044V462.049H40.0967ZM40.1104 468.953V471.852H33.2882V473.205H40.5479V474.066H32.2354V471.045H39.044V469.801H32.2081V468.953H40.1104ZM34.4503 463.771C34.4503 465.357 35.7491 466.738 37.5811 467.285L37.0479 468.119C35.6124 467.668 34.4708 466.704 33.9307 465.453C33.4044 466.82 32.2423 467.887 30.7589 468.379L30.253 467.531C32.0714 466.93 33.3702 465.439 33.3702 463.771V463.635H30.5264V462.746H37.253V463.635H34.4503V463.771ZM53.2901 468.27V469.158H48.3409V471.646H47.2745V469.158H42.1612V468.27H53.2901ZM51.8409 462.65V466.875H43.6104V462.65H51.8409ZM44.6632 463.498V466.014H50.7745V463.498H44.6632ZM52.046 473.041V473.943H43.5831V470.443H44.6632V473.041H52.046ZM61.3428 465.781C61.3428 467.723 62.3409 469.719 64.0089 470.607L63.3799 471.414C62.17 470.751 61.295 469.507 60.8507 468.037C60.4132 469.596 59.545 470.949 58.335 471.66L57.6924 470.867C59.3331 469.91 60.3174 467.791 60.3311 465.781V465.221H57.9796V464.332H60.3311V462.5H61.3565V464.332H63.6807V465.221H61.3428V465.781ZM68.2335 462.049V474.203H67.1944V467.887H65.5401V473.588H64.5147V462.309H65.5401V466.971H67.1944V462.049H68.2335ZM76.4229 462.951V463.826H71.6788V465.357H76.0811V466.232H71.6788V467.832C74.2696 467.832 75.7051 467.784 77.421 467.504L77.5303 468.379C75.753 468.666 74.2628 468.721 71.5831 468.721H70.5987V462.951H76.4229ZM79.9229 462.062V469.596H78.8565V462.062H79.9229ZM75.8897 469.773C78.419 469.76 79.9776 470.566 79.9776 471.961C79.9776 473.383 78.419 474.176 75.8897 474.176C73.3057 474.176 71.7745 473.383 71.7745 471.961C71.7745 470.566 73.3057 469.76 75.8897 469.773ZM75.8897 470.621C73.9757 470.621 72.8409 471.127 72.8409 471.961C72.8409 472.822 73.9757 473.328 75.8897 473.328C77.7491 473.328 78.9249 472.822 78.9249 471.961C78.9249 471.127 77.7491 470.621 75.8897 470.621ZM87.5928 469.691C90.0948 469.691 91.5987 470.512 91.5987 471.934C91.5987 473.369 90.0948 474.189 87.5928 474.203C85.0909 474.189 83.5596 473.369 83.5596 471.934C83.5596 470.512 85.0909 469.691 87.5928 469.691ZM87.5928 470.539C85.7608 470.553 84.626 471.059 84.6397 471.934C84.626 472.809 85.7608 473.328 87.5928 473.328C89.4385 473.328 90.5596 472.809 90.5596 471.934C90.5596 471.059 89.4385 470.553 87.5928 470.539ZM91.4893 462.049V465.111H93.3214V466.027H91.4893V469.363H90.4229V462.049H91.4893ZM83.5596 462.814V464.674H87.1007V462.814H88.1671V468.42H82.5069V462.814H83.5596ZM83.5596 467.545H87.1007V465.521H83.5596V467.545ZM101.224 464.469C101.224 465.809 102.167 467.176 103.726 467.764L103.165 468.584C101.996 468.133 101.155 467.265 100.718 466.219C100.267 467.381 99.3985 468.413 98.2022 468.926L97.6143 468.092C99.2139 467.395 100.198 465.822 100.198 464.469V462.814H101.224V464.469ZM107.923 462.062V469.568H106.898V466.219H105.284V469.186H104.273V462.295H105.284V465.33H106.898V462.062H107.923ZM103.903 469.842C106.419 469.842 107.991 470.635 107.991 472.016C107.991 473.383 106.419 474.176 103.903 474.176C101.374 474.176 99.8155 473.383 99.8292 472.016C99.8155 470.635 101.374 469.842 103.903 469.842ZM103.903 470.662C102.044 470.662 100.882 471.168 100.896 472.016C100.882 472.85 102.044 473.342 103.903 473.342C105.749 473.342 106.911 472.85 106.925 472.016C106.911 471.168 105.749 470.662 103.903 470.662ZM113.884 463.963C113.87 465.699 115.101 467.23 116.892 467.832L116.29 468.666C114.95 468.16 113.898 467.176 113.378 465.891C112.852 467.347 111.737 468.481 110.274 469.035L109.687 468.16C111.56 467.504 112.804 465.891 112.817 464.004V462.746H113.884V463.963ZM119.776 462.049V469.254H118.696V465.549H115.989V464.66H118.696V462.049H119.776ZM115.743 469.609C118.273 469.609 119.817 470.443 119.817 471.906C119.817 473.355 118.273 474.176 115.743 474.176C113.214 474.176 111.669 473.355 111.669 471.906C111.669 470.443 113.214 469.609 115.743 469.609ZM115.743 470.457C113.884 470.457 112.722 471.004 112.735 471.906C112.722 472.781 113.884 473.314 115.743 473.314C117.603 473.314 118.751 472.781 118.751 471.906C118.751 471.004 117.603 470.457 115.743 470.457Z" fill="black"/>
<rect x="356.461" y="451.137" width="150.912" height="35.8908" rx="8" fill="#D9D9D9"/>
<path d="M398.649 464.154V465.029H392.551V464.154H395.08V462.418H396.147V464.154H398.649ZM395.6 465.85C397.131 465.85 398.225 466.998 398.238 468.611C398.225 470.238 397.131 471.4 395.6 471.4C394.082 471.4 392.988 470.238 392.988 468.611C392.988 466.998 394.082 465.85 395.6 465.85ZM395.6 466.752C394.643 466.766 393.945 467.545 393.945 468.611C393.945 469.691 394.643 470.471 395.6 470.457C396.57 470.471 397.281 469.691 397.281 468.611C397.281 467.545 396.57 466.766 395.6 466.752ZM402.928 462.049V474.203H401.902V468.064H400.289V473.602H399.277V462.35H400.289V467.176H401.902V462.049H402.928ZM414.193 462.049V465.221H416.012V466.123H414.193V469.309H413.113V462.049H414.193ZM410.283 469.541C412.758 469.541 414.289 470.402 414.289 471.852C414.289 473.328 412.758 474.176 410.283 474.176C407.795 474.176 406.25 473.328 406.25 471.852C406.25 470.402 407.795 469.541 410.283 469.541ZM410.283 470.43C408.451 470.416 407.303 470.963 407.303 471.852C407.303 472.754 408.451 473.314 410.283 473.314C412.102 473.314 413.25 472.754 413.25 471.852C413.25 470.963 412.102 470.416 410.283 470.43ZM410.639 462.979V463.867H406.291V467.436C408.752 467.422 410.174 467.347 411.801 467.012L411.91 467.9C410.215 468.242 408.752 468.311 406.182 468.311H405.238V462.979H410.639ZM423.846 465.781C423.846 467.723 424.844 469.719 426.512 470.607L425.883 471.414C424.673 470.751 423.798 469.507 423.354 468.037C422.916 469.596 422.048 470.949 420.838 471.66L420.195 470.867C421.836 469.91 422.82 467.791 422.834 465.781V465.221H420.482V464.332H422.834V462.5H423.859V464.332H426.184V465.221H423.846V465.781ZM430.736 462.049V474.203H429.697V467.887H428.043V473.588H427.018V462.309H428.043V466.971H429.697V462.049H430.736ZM438.926 462.951V463.826H434.182V465.357H438.584V466.232H434.182V467.832C436.773 467.832 438.208 467.784 439.924 467.504L440.033 468.379C438.256 468.666 436.766 468.721 434.086 468.721H433.102V462.951H438.926ZM442.426 462.062V469.596H441.359V462.062H442.426ZM438.393 469.773C440.922 469.76 442.481 470.566 442.481 471.961C442.481 473.383 440.922 474.176 438.393 474.176C435.809 474.176 434.277 473.383 434.277 471.961C434.277 470.566 435.809 469.76 438.393 469.773ZM438.393 470.621C436.479 470.621 435.344 471.127 435.344 471.961C435.344 472.822 436.479 473.328 438.393 473.328C440.252 473.328 441.428 472.822 441.428 471.961C441.428 471.127 440.252 470.621 438.393 470.621ZM458.08 462.049V474.23H457V467.367H454.334V466.479H457V462.049H458.08ZM452.215 465.658C452.215 467.682 453.664 469.883 455.441 470.689L454.799 471.551C453.411 470.874 452.242 469.404 451.695 467.709C451.135 469.507 449.939 471.065 448.551 471.797L447.895 470.963C449.658 470.102 451.121 467.818 451.135 465.658V464.195H448.359V463.307H455.004V464.195H452.215V465.658ZM464.219 464.359C464.219 465.945 465.408 467.367 467.199 467.955L466.693 468.803C465.292 468.345 464.232 467.374 463.713 466.15C463.187 467.545 462.065 468.632 460.609 469.158L460.063 468.297C461.881 467.682 463.152 466.109 463.166 464.359V463.84H460.391V462.951H466.953V463.84H464.219V464.359ZM469.606 462.049V465.152H471.438V466.055H469.606V469.391H468.539V462.049H469.606ZM465.709 469.719C468.211 469.719 469.715 470.539 469.715 471.934C469.715 473.355 468.211 474.176 465.709 474.176C463.207 474.176 461.676 473.355 461.676 471.934C461.676 470.539 463.207 469.719 465.709 469.719ZM465.709 470.58C463.877 470.58 462.742 471.086 462.756 471.934C462.742 472.809 463.877 473.314 465.709 473.314C467.555 473.314 468.676 472.809 468.676 471.934C468.676 471.086 467.555 470.58 465.709 470.58Z" fill="black"/>
<rect x="937.969" y="242.969" width="150.912" height="35.8908" rx="8" fill="#D9D9D9"/>
<path d="M980.156 255.986V256.861H974.059V255.986H976.588V254.25H977.654V255.986H980.156ZM977.107 257.682C978.639 257.682 979.732 258.83 979.746 260.443C979.732 262.07 978.639 263.232 977.107 263.232C975.59 263.232 974.496 262.07 974.496 260.443C974.496 258.83 975.59 257.682 977.107 257.682ZM977.107 258.584C976.15 258.598 975.453 259.377 975.453 260.443C975.453 261.523 976.15 262.303 977.107 262.289C978.078 262.303 978.789 261.523 978.789 260.443C978.789 259.377 978.078 258.598 977.107 258.584ZM984.436 253.881V266.035H983.41V259.896H981.797V265.434H980.785V254.182H981.797V259.008H983.41V253.881H984.436ZM995.701 253.881V257.053H997.52V257.955H995.701V261.141H994.621V253.881H995.701ZM991.791 261.373C994.266 261.373 995.797 262.234 995.797 263.684C995.797 265.16 994.266 266.008 991.791 266.008C989.303 266.008 987.758 265.16 987.758 263.684C987.758 262.234 989.303 261.373 991.791 261.373ZM991.791 262.262C989.959 262.248 988.811 262.795 988.811 263.684C988.811 264.586 989.959 265.146 991.791 265.146C993.609 265.146 994.758 264.586 994.758 263.684C994.758 262.795 993.609 262.248 991.791 262.262ZM992.147 254.811V255.699H987.799V259.268C990.26 259.254 991.682 259.179 993.309 258.844L993.418 259.732C991.723 260.074 990.26 260.143 987.69 260.143H986.746V254.811H992.147ZM1005.35 257.613C1005.35 259.555 1006.35 261.551 1008.02 262.439L1007.39 263.246C1006.18 262.583 1005.31 261.339 1004.86 259.869C1004.42 261.428 1003.56 262.781 1002.35 263.492L1001.7 262.699C1003.34 261.742 1004.33 259.623 1004.34 257.613V257.053H1001.99V256.164H1004.34V254.332H1005.37V256.164H1007.69V257.053H1005.35V257.613ZM1012.24 253.881V266.035H1011.21V259.719H1009.55V265.42H1008.53V254.141H1009.55V258.803H1011.21V253.881H1012.24ZM1020.43 254.783V255.658H1015.69V257.189H1020.09V258.064H1015.69V259.664C1018.28 259.664 1019.72 259.616 1021.43 259.336L1021.54 260.211C1019.76 260.498 1018.27 260.553 1015.59 260.553H1014.61V254.783H1020.43ZM1023.93 253.895V261.428H1022.87V253.895H1023.93ZM1019.9 261.605C1022.43 261.592 1023.99 262.398 1023.99 263.793C1023.99 265.215 1022.43 266.008 1019.9 266.008C1017.32 266.008 1015.79 265.215 1015.79 263.793C1015.79 262.398 1017.32 261.592 1019.9 261.605ZM1019.9 262.453C1017.99 262.453 1016.85 262.959 1016.85 263.793C1016.85 264.654 1017.99 265.16 1019.9 265.16C1021.76 265.16 1022.94 264.654 1022.94 263.793C1022.94 262.959 1021.76 262.453 1019.9 262.453ZM1039.59 253.881V266.062H1038.51V259.199H1035.84V258.311H1038.51V253.881H1039.59ZM1033.72 257.49C1033.72 259.514 1035.17 261.715 1036.95 262.521L1036.31 263.383C1034.92 262.706 1033.75 261.236 1033.2 259.541C1032.64 261.339 1031.45 262.897 1030.06 263.629L1029.4 262.795C1031.17 261.934 1032.63 259.65 1032.64 257.49V256.027H1029.87V255.139H1036.51V256.027H1033.72V257.49ZM1045.73 256.191C1045.73 257.777 1046.92 259.199 1048.71 259.787L1048.2 260.635C1046.8 260.177 1045.74 259.206 1045.22 257.982C1044.69 259.377 1043.57 260.464 1042.12 260.99L1041.57 260.129C1043.39 259.514 1044.66 257.941 1044.67 256.191V255.672H1041.9V254.783H1048.46V255.672H1045.73V256.191ZM1051.11 253.881V256.984H1052.95V257.887H1051.11V261.223H1050.05V253.881H1051.11ZM1047.22 261.551C1049.72 261.551 1051.22 262.371 1051.22 263.766C1051.22 265.188 1049.72 266.008 1047.22 266.008C1044.71 266.008 1043.18 265.188 1043.18 263.766C1043.18 262.371 1044.71 261.551 1047.22 261.551ZM1047.22 262.412C1045.38 262.412 1044.25 262.918 1044.26 263.766C1044.25 264.641 1045.38 265.146 1047.22 265.146C1049.06 265.146 1050.18 264.641 1050.18 263.766C1050.18 262.918 1049.06 262.412 1047.22 262.412Z" fill="black"/>
<rect x="778.062" y="310.719" width="150.912" height="35.8908" rx="8" fill="#D9D9D9"/>
<path d="M851.955 321.631V333.785H850.889V327.414H847.99V326.525H850.889V321.631H851.955ZM848.018 322.957C848.018 326.402 846.555 329.465 842.494 331.475L841.906 330.613C845.201 329.021 846.726 326.683 846.938 323.832H842.44V322.957H848.018ZM858.203 323.518C858.203 324.967 859.434 326.361 861.184 326.922L860.65 327.77C859.276 327.312 858.203 326.368 857.684 325.186C857.137 326.491 856.009 327.564 854.58 328.057L854.047 327.209C855.824 326.594 857.123 325.076 857.123 323.504V323.162H854.375V322.273H860.924V323.162H858.203V323.518ZM864.055 321.631V327.92H862.988V325.24H860.541V324.352H862.988V321.631H864.055ZM864.055 328.521V331.434H857.274V332.787H864.52V333.648H856.207V330.613H862.988V329.396H856.18V328.521H864.055Z" fill="black"/>
<rect x="1132.88" y="310.719" width="150.912" height="35.8908" rx="8" fill="#D9D9D9"/>
<path d="M1206.78 321.631V333.785H1205.71V327.414H1202.81V326.525H1205.71V321.631H1206.78ZM1202.84 322.957C1202.84 326.402 1201.38 329.465 1197.31 331.475L1196.73 330.613C1200.02 329.021 1201.55 326.683 1201.76 323.832H1197.26V322.957H1202.84ZM1213.02 323.518C1213.02 324.967 1214.25 326.361 1216 326.922L1215.47 327.77C1214.1 327.312 1213.02 326.368 1212.5 325.186C1211.96 326.491 1210.83 327.564 1209.4 328.057L1208.87 327.209C1210.64 326.594 1211.94 325.076 1211.94 323.504V323.162H1209.2V322.273H1215.74V323.162H1213.02V323.518ZM1218.88 321.631V327.92H1217.81V325.24H1215.36V324.352H1217.81V321.631H1218.88ZM1218.88 328.521V331.434H1212.09V332.787H1219.34V333.648H1211.03V330.613H1217.81V329.396H1211V328.521H1218.88Z" fill="black"/>
<rect x="972.977" y="376.781" width="150.912" height="35.8908" rx="8" fill="#D9D9D9"/>
<path d="M998.42 387.693V394.01H997.367V387.693H998.42ZM998.434 394.598V397.496H991.611V398.85H998.871V399.711H990.559V396.689H997.367V395.445H990.531V394.598H998.434ZM992.773 389.416C992.773 391.002 994.072 392.383 995.904 392.93L995.371 393.764C993.936 393.312 992.794 392.349 992.254 391.098C991.728 392.465 990.565 393.531 989.082 394.023L988.576 393.176C990.395 392.574 991.693 391.084 991.693 389.416V389.279H988.85V388.391H995.576V389.279H992.773V389.416ZM1011.61 393.914V394.803H1006.66V397.291H1005.6V394.803H1000.48V393.914H1011.61ZM1010.16 388.295V392.52H1001.93V388.295H1010.16ZM1002.99 389.143V391.658H1009.1V389.143H1002.99ZM1010.37 398.686V399.588H1001.91V396.088H1002.99V398.686H1010.37ZM1020.17 389.662C1020.17 391.316 1021.43 392.834 1023.19 393.436L1022.61 394.283C1021.26 393.791 1020.2 392.786 1019.67 391.521C1019.15 392.95 1018.07 394.078 1016.64 394.625L1016.07 393.764C1017.89 393.08 1019.11 391.453 1019.12 389.58V388.322H1020.17V389.662ZM1025.61 387.693V390.865H1027.45V391.768H1025.61V395.09H1024.55V387.693H1025.61ZM1021.72 395.404C1024.22 395.404 1025.72 396.211 1025.72 397.605C1025.72 399.027 1024.22 399.82 1021.72 399.82C1019.21 399.82 1017.68 399.027 1017.68 397.605C1017.68 396.211 1019.21 395.404 1021.72 395.404ZM1021.72 396.266C1019.88 396.266 1018.75 396.771 1018.76 397.605C1018.75 398.467 1019.88 398.959 1021.72 398.973C1023.56 398.959 1024.68 398.467 1024.68 397.605C1024.68 396.771 1023.56 396.266 1021.72 396.266ZM1033.52 389.102V389.977H1029.73V392.314H1033.34V393.176H1029.73V395.924C1031.53 395.917 1032.65 395.869 1033.98 395.623L1034.08 396.512C1032.65 396.785 1031.48 396.84 1029.48 396.84H1028.7V389.102H1033.52ZM1038.63 387.693V399.848H1037.59V393.477H1035.92V399.232H1034.88V387.953H1035.92V392.588H1037.59V387.693H1038.63ZM1054.95 397.4V398.289H1043.82V397.4H1048.83V394.775H1045.14V388.555H1046.22V390.756H1052.53V388.555H1053.59V394.775H1049.88V397.4H1054.95ZM1046.22 393.9H1052.53V391.631H1046.22V393.9ZM1067.04 394.953V395.814H1064.11V399.848H1063.05V395.814H1059.9V399.848H1058.82V395.814H1055.91V394.953H1067.04ZM1065.69 388.172V391.289H1058.36V392.807H1065.95V393.695H1057.28V390.455H1064.59V389.061H1057.25V388.172H1065.69ZM1079.15 397.441V398.344H1068.02V397.441H1073.03V395.145H1069.42V391.398H1076.69V389.484H1069.39V388.596H1077.74V392.273H1070.48V394.256H1078.03V395.145H1074.08V397.441H1079.15ZM1093.71 387.707V396.703H1092.63V393.436H1089.76V394.625H1084.25V388.514H1085.32V390.674H1088.71V388.514H1089.76V389.936H1092.63V387.707H1093.71ZM1093.99 398.686V399.588H1085.85V395.814H1086.93V398.686H1093.99ZM1085.32 393.736H1088.71V391.521H1085.32V393.736ZM1089.76 392.547H1092.63V390.838H1089.76V392.547ZM1105.81 387.707V395.008H1104.73V393.367H1101.51V392.479H1104.73V390.838H1101.63C1100.83 392.793 1098.95 394.208 1096.35 394.98L1095.9 394.133C1098.84 393.258 1100.67 391.617 1100.89 389.512H1096.52V388.609H1102.05C1102.05 389.088 1102 389.546 1101.9 389.977H1104.73V387.707H1105.81ZM1101.83 395.131C1104.29 395.131 1105.88 396.006 1105.88 397.455C1105.88 398.918 1104.29 399.793 1101.83 399.793C1099.35 399.793 1097.77 398.918 1097.77 397.455C1097.77 396.006 1099.35 395.131 1101.83 395.131ZM1101.83 395.992C1100 395.979 1098.83 396.539 1098.83 397.455C1098.83 398.371 1100 398.918 1101.83 398.918C1103.64 398.918 1104.8 398.371 1104.81 397.455C1104.8 396.539 1103.64 395.979 1101.83 395.992Z" fill="black"/>
<rect x="778.062" y="378.766" width="150.912" height="35.8908" rx="8" fill="#D9D9D9"/>
<path d="M853.022 399.385V400.273H841.893V399.385H846.897V396.76H843.205V390.539H844.285V392.74H850.602V390.539H851.654V396.76H847.949V399.385H853.022ZM844.285 395.885H850.602V393.615H844.285V395.885ZM865.107 396.938V397.799H862.182V401.832H861.115V397.799H857.971V401.832H856.891V397.799H853.979V396.938H865.107ZM863.754 390.156V393.273H856.426V394.791H864.014V395.68H855.346V392.439H862.66V391.045H855.318V390.156H863.754Z" fill="black"/>
<rect x="1167.89" y="378.766" width="150.912" height="35.8908" rx="8" fill="#D9D9D9"/>
<path d="M1215.79 389.678V395.994H1214.73V389.678H1215.79ZM1215.8 396.582V399.48H1208.98V400.834H1216.24V401.695H1207.92V398.674H1214.73V397.43H1207.9V396.582H1215.8ZM1210.14 391.4C1210.14 392.986 1211.44 394.367 1213.27 394.914L1212.74 395.748C1211.3 395.297 1210.16 394.333 1209.62 393.082C1209.09 394.449 1207.93 395.516 1206.45 396.008L1205.94 395.16C1207.76 394.559 1209.06 393.068 1209.06 391.4V391.264H1206.22V390.375H1212.94V391.264H1210.14V391.4ZM1228.98 395.898V396.787H1224.03V399.275H1222.96V396.787H1217.85V395.898H1228.98ZM1227.53 390.279V394.504H1219.3V390.279H1227.53ZM1220.35 391.127V393.643H1226.46V391.127H1220.35ZM1227.74 400.67V401.572H1219.27V398.072H1220.35V400.67H1227.74ZM1239.47 389.678V392.918H1241.3V393.834H1239.47V397.006H1238.4V389.678H1239.47ZM1239.47 397.703V401.668H1231.8V397.703H1239.47ZM1232.85 398.564V400.793H1238.4V398.564H1232.85ZM1237.24 390.977V391.865H1229.99V390.977H1233.08V389.582H1234.15V390.977H1237.24ZM1233.61 392.467C1235.36 392.467 1236.53 393.328 1236.54 394.627C1236.53 395.953 1235.36 396.801 1233.61 396.801C1231.85 396.801 1230.67 395.953 1230.69 394.627C1230.67 393.328 1231.85 392.467 1233.61 392.467ZM1233.61 393.301C1232.47 393.301 1231.7 393.834 1231.71 394.627C1231.7 395.461 1232.47 395.967 1233.61 395.98C1234.75 395.967 1235.51 395.461 1235.53 394.627C1235.51 393.834 1234.75 393.301 1233.61 393.301ZM1252.48 389.678V401.832H1251.44V389.678H1252.48ZM1250.03 389.938V401.217H1249.01V395.311H1247.45C1247.33 397.676 1246.33 399.152 1244.83 399.152C1243.24 399.152 1242.21 397.512 1242.21 394.928C1242.21 392.344 1243.24 390.703 1244.83 390.703C1246.3 390.703 1247.3 392.132 1247.44 394.422H1249.01V389.938H1250.03ZM1244.83 391.715C1243.84 391.715 1243.21 392.945 1243.23 394.928C1243.21 396.896 1243.84 398.141 1244.83 398.127C1245.81 398.141 1246.44 396.896 1246.44 394.928C1246.44 392.945 1245.81 391.715 1244.83 391.715ZM1267.18 389.691V392.48H1269.02V393.383H1267.18V396.555H1266.11V389.691H1267.18ZM1267.18 397.225V401.668H1259.48V397.225H1267.18ZM1260.53 398.072V400.793H1266.14V398.072H1260.53ZM1259.34 390.307V394.723C1261.07 394.716 1262.86 394.579 1264.83 394.176L1264.96 395.078C1262.9 395.488 1261.07 395.625 1259.24 395.625H1258.26V390.307H1259.34ZM1279.83 389.678V401.832H1278.75V389.678H1279.83ZM1276.23 391.004C1276.22 394.504 1274.59 397.594 1270.51 399.549L1269.93 398.674C1273.21 397.115 1274.89 394.784 1275.14 391.879H1270.49V391.004H1276.23Z" fill="black"/>
<rect x="582.523" y="116.293" width="150.912" height="35.8908" rx="8" fill="#D9D9D9"/>
<path d="M602.97 134.561V135.463H597.952V139.387H596.899V135.463H591.896V134.561H602.97ZM597.966 129.611C597.966 131.129 600.085 132.455 602.259 132.756L601.862 133.617C599.982 133.33 598.212 132.387 597.446 131.061C596.667 132.4 594.869 133.33 592.989 133.617L592.593 132.756C594.753 132.455 596.899 131.143 596.899 129.611V129.598H592.976V128.723H596.899V127.205H597.952V128.723H601.903V129.598H597.966V129.611ZM608.138 130.117C608.138 131.73 609.423 133.152 611.228 133.713L610.694 134.574C609.286 134.116 608.179 133.152 607.632 131.908C607.105 133.241 606.005 134.273 604.569 134.779L604.036 133.945C605.827 133.344 607.085 131.826 607.085 130.117V129.721H604.337V128.846H607.085V127.287H608.165V128.846H610.886V129.721H608.138V130.117ZM614.071 127.219V136.297H612.991V131.854H610.462V130.965H612.991V127.219H614.071ZM614.413 138.197V139.1H606.265V135.477H607.345V138.197H614.413ZM623.163 131.197V132.072H620.702V133.768C621.837 133.72 622.972 133.638 624.024 133.521L624.106 134.314C621.495 134.67 618.597 134.752 616.313 134.752L616.149 133.877C617.216 133.87 618.412 133.856 619.636 133.809V132.072H617.257V127.998H623.067V128.887H618.337V131.197H623.163ZM626.116 127.219V136.311H625.036V127.219H626.116ZM626.513 138.197V139.1H618.228V135.682H619.294V138.197H626.513ZM641.729 127.205V133.521H640.677V127.205H641.729ZM641.743 134.109V137.008H634.921V138.361H642.181V139.223H633.868V136.201H640.677V134.957H633.841V134.109H641.743ZM636.083 128.928C636.083 130.514 637.382 131.895 639.214 132.441L638.681 133.275C637.245 132.824 636.104 131.86 635.563 130.609C635.037 131.977 633.875 133.043 632.392 133.535L631.886 132.688C633.704 132.086 635.003 130.596 635.003 128.928V128.791H632.159V127.902H638.886V128.791H636.083V128.928ZM654.923 133.426V134.314H649.974V136.803H648.907V134.314H643.794V133.426H654.923ZM653.474 127.807V132.031H645.243V127.807H653.474ZM646.296 128.654V131.17H652.407V128.654H646.296ZM653.679 138.197V139.1H645.216V135.6H646.296V138.197H653.679ZM669.456 127.205V139.387H668.39V127.205H669.456ZM665.765 128.34V132.66H661.226V135.531C663.242 135.531 665.04 135.442 667.214 135.094L667.323 135.996C665.081 136.352 663.235 136.434 661.144 136.434H660.132V131.785H664.685V129.229H660.104V128.34H665.765ZM677.577 128.996C677.577 131.074 679.956 132.934 682.075 133.33L681.583 134.232C679.751 133.809 677.816 132.503 677.03 130.705C676.244 132.496 674.316 133.802 672.478 134.232L671.985 133.33C674.091 132.92 676.456 131.088 676.456 128.996V128.066H677.577V128.996ZM682.649 136.816V137.705H671.521V136.816H682.649ZM693.464 133.781V134.656H685.056V128.258H693.327V129.16H686.149V130.965H693.067V131.826H686.149V133.781H693.464ZM694.749 136.885V137.773H683.62V136.885H694.749ZM708.722 127.219V130.896H710.54V131.799H708.722V135.367H707.642V127.219H708.722ZM699.179 134.123C700.149 134.123 701.284 134.123 702.474 134.082V133.193C701.059 133.07 700.149 132.407 700.149 131.402C700.149 130.295 701.284 129.611 702.993 129.611C704.716 129.611 705.837 130.295 705.851 131.402C705.837 132.4 704.948 133.063 703.54 133.193V134.041C704.675 133.986 705.823 133.897 706.89 133.74L706.985 134.52C704.347 134.984 701.435 134.998 699.302 134.998L699.179 134.123ZM708.722 135.969V139.359H707.642V136.83H700.669V135.969H708.722ZM706.521 128.326V129.146H699.479V128.326H702.474V127.109H703.54V128.326H706.521ZM702.993 130.377C701.872 130.363 701.175 130.76 701.175 131.402C701.175 132.031 701.872 132.469 702.993 132.455C704.114 132.469 704.825 132.031 704.825 131.402C704.825 130.76 704.114 130.363 702.993 130.377ZM721.368 127.219V136.105H720.302V127.219H721.368ZM721.751 138.197V139.1H713.521V135.203H714.587V138.197H721.751ZM714.806 128.066C716.624 128.066 717.991 129.297 717.991 131.047C717.991 132.824 716.624 134.041 714.806 134.041C712.987 134.041 711.62 132.824 711.62 131.047C711.62 129.297 712.987 128.066 714.806 128.066ZM714.806 129.01C713.575 129.01 712.659 129.857 712.673 131.047C712.659 132.264 713.575 133.098 714.806 133.098C716.009 133.098 716.938 132.264 716.938 131.047C716.938 129.857 716.009 129.01 714.806 129.01Z" fill="black"/>
<rect x="582.523" y="243.453" width="150.912" height="35.8908" rx="8" fill="#D9D9D9"/>
<path d="M609.812 256.334C609.812 257.988 611.07 259.506 612.834 260.107L612.246 260.955C610.899 260.463 609.84 259.458 609.307 258.193C608.787 259.622 607.707 260.75 606.285 261.297L605.711 260.436C607.529 259.752 608.746 258.125 608.76 256.252V254.994H609.812V256.334ZM615.254 254.365V257.537H617.086V258.439H615.254V261.762H614.188V254.365H615.254ZM611.357 262.076C613.859 262.076 615.363 262.883 615.363 264.277C615.363 265.699 613.859 266.492 611.357 266.492C608.855 266.492 607.324 265.699 607.324 264.277C607.324 262.883 608.855 262.076 611.357 262.076ZM611.357 262.938C609.525 262.938 608.391 263.443 608.404 264.277C608.391 265.139 609.525 265.631 611.357 265.645C613.203 265.631 614.324 265.139 614.324 264.277C614.324 263.443 613.203 262.938 611.357 262.938ZM621.461 257.824C621.461 259.752 622.404 261.844 624.018 262.801L623.402 263.635C622.233 262.924 621.393 261.625 620.969 260.148C620.518 261.762 619.615 263.149 618.398 263.895L617.715 263.088C619.396 262.104 620.422 259.943 620.422 257.865V255.514H621.461V257.824ZM628.27 254.365V266.52H627.23V254.365H628.27ZM625.754 254.625V265.904H624.742V259.643H622.678V258.727H624.742V254.625H625.754ZM641.08 264.072V264.961H629.951V264.072H634.955V261.447H631.264V255.227H632.344V257.428H638.66V255.227H639.713V261.447H636.008V264.072H641.08ZM632.344 260.572H638.66V258.303H632.344V260.572ZM652.1 254.365V266.52H651.02V254.365H652.1ZM648.504 255.691C648.49 259.191 646.863 262.281 642.789 264.236L642.201 263.361C645.489 261.803 647.164 259.472 647.41 256.566H642.762V255.691H648.504ZM667.098 254.365V259.547H669.039V260.449H667.098V266.52H666.018V254.365H667.098ZM657.514 263.279C658.505 263.279 659.66 263.279 660.863 263.238V261.885C659.448 261.728 658.525 260.9 658.539 259.697C658.525 258.33 659.688 257.441 661.41 257.441C663.105 257.441 664.281 258.33 664.295 259.697C664.281 260.9 663.345 261.728 661.943 261.898V263.197C663.078 263.143 664.22 263.054 665.279 262.896L665.348 263.717C662.695 264.168 659.824 264.195 657.691 264.195L657.514 263.279ZM665.061 255.855V256.73H657.732V255.855H660.863V254.393H661.943V255.855H665.061ZM661.41 258.275C660.289 258.275 659.537 258.85 659.537 259.697C659.537 260.545 660.289 261.092 661.41 261.078C662.518 261.092 663.27 260.545 663.27 259.697C663.27 258.85 662.518 258.275 661.41 258.275ZM675.916 255.432V256.512H678.76V254.379H679.84V263.252H678.76V260.012H675.916V261.105H670.338V255.432H675.916ZM671.404 256.32V260.244H674.863V256.32H671.404ZM680.113 265.357V266.26H671.979V262.459H673.059V265.357H680.113ZM675.916 259.123H678.76V257.414H675.916V259.123ZM695.398 254.365V266.547H694.318V254.365H695.398ZM688.932 255.309C690.736 255.322 692.035 256.963 692.035 259.547C692.035 262.131 690.736 263.771 688.932 263.771C687.113 263.771 685.828 262.131 685.828 259.547C685.828 256.963 687.113 255.322 688.932 255.309ZM688.932 256.266C687.715 256.279 686.867 257.564 686.867 259.547C686.867 261.529 687.715 262.814 688.932 262.814C690.148 262.814 690.996 261.529 690.996 259.547C690.996 257.564 690.148 256.279 688.932 256.266ZM708.564 260.381V261.242H697.477V260.381H702.494V258.959H698.885V254.939H707.184V255.801H699.938V258.084H707.266V258.959H703.533V260.381H708.564ZM703.014 262.131C705.625 262.131 707.184 262.924 707.197 264.318C707.184 265.727 705.625 266.506 703.014 266.52C700.389 266.506 698.816 265.727 698.816 264.318C698.816 262.924 700.389 262.131 703.014 262.131ZM703.014 262.979C701.059 262.979 699.896 263.484 699.91 264.318C699.896 265.166 701.059 265.658 703.014 265.658C704.941 265.658 706.117 265.166 706.117 264.318C706.117 263.484 704.941 262.979 703.014 262.979Z" fill="black"/>
<rect y="52.4961" width="150.912" height="41.2377" rx="20.6189" fill="#3D72FF"/>
<rect x="583.852" y="52.4961" width="150.912" height="41.2377" rx="20.6189" fill="#3D72FF"/>
<rect x="583.852" y="600.289" width="150.912" height="41.2377" rx="20.6189" fill="#3D72FF"/>
<rect y="511.934" width="150.912" height="41.2377" rx="20.6189" fill="#3D72FF"/>
<rect y="254.562" width="150.811" height="35.8908" rx="8" fill="#D9D9D9"/>
<path d="M32.5381 272.83V273.732H27.5205V277.656H26.4678V273.732H21.4639V272.83H32.5381ZM27.5342 267.881C27.5342 269.398 29.6533 270.725 31.8271 271.025L31.4307 271.887C29.5508 271.6 27.7803 270.656 27.0146 269.33C26.2354 270.67 24.4375 271.6 22.5576 271.887L22.1611 271.025C24.3213 270.725 26.4678 269.412 26.4678 267.881V267.867H22.5439V266.992H26.4678V265.475H27.5205V266.992H31.4717V267.867H27.5342V267.881ZM37.7061 268.387C37.7061 270 38.9912 271.422 40.7959 271.982L40.2627 272.844C38.8545 272.386 37.7471 271.422 37.2002 270.178C36.6738 271.511 35.5732 272.543 34.1377 273.049L33.6045 272.215C35.3955 271.613 36.6533 270.096 36.6533 268.387V267.99H33.9053V267.115H36.6533V265.557H37.7334V267.115H40.4541V267.99H37.7061V268.387ZM43.6396 265.488V274.566H42.5596V270.123H40.0303V269.234H42.5596V265.488H43.6396ZM43.9814 276.467V277.369H35.833V273.746H36.9131V276.467H43.9814ZM58.9385 266.705V268.059C58.9385 269.617 58.9385 271.189 58.501 273.445L57.4482 273.322C57.8857 271.176 57.8857 269.576 57.8857 268.059V267.594H50.3389V266.705H58.9385ZM60.251 275.018V275.906H49.1768V275.018H51.9248V271.012H52.9912V275.018H54.96V271.012H56.0127V275.018H60.251ZM67.374 266.609C67.374 268.318 69.6162 269.809 71.8037 270.109L71.3662 270.984C69.4795 270.67 67.6133 269.624 66.8271 268.127C66.0479 269.631 64.1748 270.67 62.2881 270.984L61.8506 270.109C64.0381 269.809 66.2666 268.346 66.2666 266.609V265.912H67.374V266.609ZM72.3506 272.324V273.227H67.3193V277.629H66.2666V273.227H61.2764V272.324H72.3506ZM86.5557 265.994V270.096H82.96V271.654H87.9639V272.529H76.8896V271.654H81.8936V270.096H78.3252V265.994H86.5557ZM79.3779 266.855V269.234H85.4893V266.855H79.3779ZM86.5967 273.801V277.629H85.5166V274.662H78.1201V273.801H86.5967ZM100.104 272.174V273.062H88.9756V272.174H94.0068V270.889H90.4248V267.922H97.5889V266.664H90.3838V265.789H98.6689V268.729H91.4912V270.027H98.9287V270.889H95.0596V272.174H100.104ZM98.7373 273.992V277.52H97.6572V274.867H90.2197V273.992H98.7373ZM114.993 265.475V277.629H113.968V265.475H114.993ZM112.532 265.775V277H111.521V270.738H109.47V269.863H111.521V265.775H112.532ZM108.171 268.947C108.171 271.053 109.114 273.145 110.796 274.115L110.14 274.908C108.943 274.19 108.096 272.878 107.679 271.326C107.234 273.001 106.353 274.43 105.136 275.195L104.452 274.389C106.147 273.377 107.132 271.162 107.132 268.947V267.799H104.794V266.91H110.399V267.799H108.171V268.947ZM126.204 265.475V269.18H128.036V270.082H126.204V274.443H125.138V265.475H126.204ZM126.765 276.467V277.369H118.603V273.514H119.655V276.467H126.765ZM120.12 266.336C121.938 266.336 123.306 267.566 123.319 269.33C123.306 271.094 121.938 272.324 120.12 272.324C118.302 272.324 116.921 271.094 116.935 269.33C116.921 267.566 118.302 266.336 120.12 266.336ZM120.12 267.279C118.917 267.279 117.974 268.127 117.987 269.33C117.974 270.533 118.917 271.381 120.12 271.381C121.351 271.381 122.267 270.533 122.267 269.33C122.267 268.127 121.351 267.279 120.12 267.279Z" fill="black"/>
<rect y="391.848" width="150.811" height="35.8908" rx="8" fill="#D9D9D9"/>
<path d="M7.4707 405.057C7.4707 406.752 8.70117 408.352 10.4785 408.994L9.87695 409.828C8.54395 409.295 7.48438 408.235 6.96484 406.916C6.44531 408.386 5.33789 409.555 3.90234 410.129L3.32812 409.254C5.14648 408.584 6.4043 406.889 6.41797 405.016V403.512H7.4707V405.057ZM13.3906 402.773V411.879H12.3105V406.533H9.60352V405.631H12.3105V402.773H13.3906ZM13.6641 413.752V414.654H5.5293V410.84H6.60938V413.752H13.6641ZM20.6777 403.648V404.551H16.9863V406.068H20.541V406.916H16.9863V408.598C18.7568 408.591 19.8643 408.529 21.1699 408.27L21.2793 409.158C19.8574 409.432 18.709 409.5 16.7266 409.5H15.9609V403.648H20.6777ZM25.7363 402.773V410.143H24.7109V406.82H23.002V410.061H22.0039V403.006H23.002V405.945H24.7109V402.773H25.7363ZM25.7363 410.771V414.914H24.6836V411.646H17.5469V410.771H25.7363ZM37.0156 402.773V406.779H38.8477V407.682H37.0156V411.879H35.9492V402.773H37.0156ZM34.7871 404.264V405.139H27.541V404.264H30.6309V402.773H31.6973V404.264H34.7871ZM31.1641 405.809C32.9004 405.809 34.0762 406.697 34.0898 408.078C34.0762 409.445 32.9004 410.32 31.1641 410.32C29.4141 410.32 28.2246 409.445 28.2383 408.078C28.2246 406.697 29.4141 405.809 31.1641 405.809ZM31.1641 406.656C30.0156 406.656 29.25 407.217 29.2637 408.078C29.25 408.939 30.0156 409.486 31.1641 409.473C32.2988 409.486 33.0645 408.939 33.0781 408.078C33.0645 407.217 32.2988 406.656 31.1641 406.656ZM37.5762 413.752V414.654H29.4141V411.154H30.4668V413.752H37.5762ZM52.8887 403.99V405.344C52.8887 406.902 52.8887 408.475 52.4512 410.73L51.3984 410.607C51.8359 408.461 51.8359 406.861 51.8359 405.344V404.879H44.2891V403.99H52.8887ZM54.2012 412.303V413.191H43.127V412.303H45.875V408.297H46.9414V412.303H48.9102V408.297H49.9629V412.303H54.2012ZM61.3242 403.895C61.3242 405.604 63.5664 407.094 65.7539 407.395L65.3164 408.27C63.4297 407.955 61.5635 406.909 60.7773 405.412C59.998 406.916 58.125 407.955 56.2383 408.27L55.8008 407.395C57.9883 407.094 60.2168 405.631 60.2168 403.895V403.197H61.3242V403.895ZM66.3008 409.609V410.512H61.2695V414.914H60.2168V410.512H55.2266V409.609H66.3008ZM77.7441 402.76V414.914H76.7051V402.76H77.7441ZM75.2969 403.02V414.299H74.2715V408.393H72.7129C72.5967 410.758 71.5918 412.234 70.0879 412.234C68.502 412.234 67.4766 410.594 67.4766 408.01C67.4766 405.426 68.502 403.785 70.0879 403.785C71.5645 403.785 72.5625 405.214 72.6992 407.504H74.2715V403.02H75.2969ZM70.0879 404.797C69.1035 404.797 68.4746 406.027 68.4883 408.01C68.4746 409.979 69.1035 411.223 70.0879 411.209C71.0723 411.223 71.7012 409.979 71.7012 408.01C71.7012 406.027 71.0723 404.797 70.0879 404.797ZM89.8301 402.76V414.914H88.8047V402.76H89.8301ZM87.2734 403.088V414.299H86.248V408.625H83.6777C82.9326 410.04 81.7637 411.291 80.0684 412.289L79.4395 411.51C82.085 409.944 83.4111 407.75 83.6094 405.207H79.959V404.318H84.6758C84.6689 405.515 84.4775 406.67 84.0742 407.75H86.248V403.088H87.2734ZM105.061 402.76V409.076H104.008V402.76H105.061ZM105.074 409.664V412.562H98.252V413.916H105.512V414.777H97.1992V411.756H104.008V410.512H97.1719V409.664H105.074ZM99.4141 404.482C99.4141 406.068 100.713 407.449 102.545 407.996L102.012 408.83C100.576 408.379 99.4346 407.415 98.8945 406.164C98.3682 407.531 97.2061 408.598 95.7227 409.09L95.2168 408.242C97.0352 407.641 98.334 406.15 98.334 404.482V404.346H95.4902V403.457H102.217V404.346H99.4141V404.482ZM118.254 408.98V409.869H113.305V412.357H112.238V409.869H107.125V408.98H118.254ZM116.805 403.361V407.586H108.574V403.361H116.805ZM109.627 404.209V406.725H115.738V404.209H109.627ZM117.01 413.752V414.654H108.547V411.154H109.627V413.752H117.01ZM132.828 402.773V411.688H131.748V407.025H129.246V406.137H131.748V402.773H132.828ZM133.17 413.752V414.654H125.021V410.881H126.102V413.752H133.17ZM126.977 405.275C126.977 406.848 128.193 408.379 129.971 408.98L129.41 409.842C128.036 409.35 126.977 408.324 126.457 407.066C125.931 408.468 124.81 409.589 123.367 410.129L122.807 409.254C124.598 408.625 125.896 407.025 125.896 405.275V404.646H123.148V403.758H129.697V404.646H126.977V405.275ZM140.908 407.012V408.803H145.926V409.678H134.852V408.803H139.855V407.012H140.908ZM140.922 403.525C140.922 405.139 143.109 406.492 145.256 406.793L144.818 407.654C142.973 407.333 141.147 406.355 140.389 404.947C139.623 406.362 137.791 407.333 135.932 407.654L135.521 406.793C137.668 406.492 139.842 405.139 139.842 403.525V402.951H140.922V403.525ZM140.389 410.689C143 410.689 144.559 411.441 144.572 412.795C144.559 414.148 143 414.887 140.389 414.887C137.75 414.887 136.191 414.148 136.191 412.795C136.191 411.441 137.75 410.689 140.389 410.689ZM140.389 411.537C138.42 411.537 137.271 411.988 137.285 412.795C137.271 413.588 138.42 414.053 140.389 414.053C142.33 414.053 143.492 413.588 143.492 412.795C143.492 411.988 142.33 411.537 140.389 411.537Z" fill="black"/>
<rect x="37.625" y="1" width="74" height="22" fill="#D9D9D9"/>
<rect x="621.484" y="1" width="74" height="22" fill="#D9D9D9"/>
<path d="M67.7188 4.9375V6.42188H57.2891V4.9375H61.5859V3.08203H63.4414V4.9375H67.7188ZM62.5039 7.20312C65.0234 7.22266 66.7422 8.47266 66.7422 10.3867C66.7422 12.3008 65.0234 13.5703 62.5039 13.5703C59.9648 13.5703 58.2461 12.3008 58.2461 10.3867C58.2461 8.47266 59.9648 7.22266 62.5039 7.20312ZM62.5039 8.62891C61.0195 8.62891 60.0234 9.3125 60.043 10.3867C60.0234 11.4805 61.0195 12.125 62.5039 12.125C63.9883 12.125 64.9844 11.4805 65.0039 10.3867C64.9844 9.3125 63.9883 8.62891 62.5039 8.62891ZM71.0195 3.16016V7.90625H73.5586V9.44922H71.0195V14.0977H69.1641V3.16016H71.0195ZM71.0195 14.9961V20.6602H69.1641V16.5H59.457V14.9961H71.0195ZM79.9062 6.51953C79.9062 8.43359 81.1367 10.3672 83.4023 11.2266L82.4258 12.6523C80.7949 12.0273 79.6523 10.8359 79.0273 9.39062C78.3828 11.0215 77.1816 12.4375 75.4922 13.1602L74.4766 11.7148C76.8398 10.6797 78.1094 8.47266 78.1094 6.51953V4.25391H79.9062V6.51953ZM89.4766 3.17969V13.9414H87.7188V9.25391H85.668V13.3945H83.9492V3.49219H85.668V7.73047H87.7188V3.17969H89.4766ZM83.6172 14.2734C87.2695 14.2734 89.5547 15.4648 89.5742 17.457C89.5547 19.4492 87.2695 20.6406 83.6172 20.6211C79.9648 20.6406 77.6797 19.4492 77.6992 17.457C77.6797 15.4648 79.9648 14.2734 83.6172 14.2734ZM83.6172 15.6992C81.0781 15.6992 79.5156 16.3438 79.5352 17.457C79.5156 18.5703 81.0781 19.2148 83.6172 19.1953C86.1562 19.2148 87.6992 18.5703 87.7188 17.457C87.6992 16.3438 86.1562 15.6992 83.6172 15.6992Z" fill="#3D72FF"/>
<path d="M655.348 4.83984V6.71484C655.328 8.92188 655.328 11.2266 654.703 14.5664L652.887 14.3711C653.492 11.207 653.492 8.86328 653.492 6.71484V6.34375H642.77V4.83984H655.348ZM657.086 16.7539V18.2969H641.129V16.7539H644.898V11.0898H646.754V16.7539H649.273V11.0898H651.09V16.7539H657.086ZM667.379 4.70312C667.359 7.02734 670.211 9.21484 673.648 9.66406L672.926 11.1875C670.064 10.7285 667.545 9.24414 666.422 7.18359C665.27 9.25391 662.76 10.7285 659.918 11.1875L659.176 9.66406C662.613 9.21484 665.426 7.04688 665.445 4.70312V3.74609H667.379V4.70312ZM674.371 12.9062V14.4297H667.262V20.6602H665.445V14.4297H658.414V12.9062H674.371Z" fill="#3D72FF"/>
<path d="M325.98 119.637H217.965C217.365 119.637 216.797 119.906 216.417 120.37L181.963 162.465C180.894 163.771 181.823 165.732 183.511 165.732H291.526C292.126 165.732 292.694 165.463 293.073 164.999L327.528 122.903C328.596 121.598 327.667 119.637 325.98 119.637Z" fill="#A5BEFF"/>
<path d="M218.693 136.719V140.424H220.525V141.326H218.693V145.688H217.626V136.719H218.693ZM219.253 147.711V148.613H211.091V144.758H212.144V147.711H219.253ZM212.609 137.58C214.427 137.58 215.794 138.811 215.808 140.574C215.794 142.338 214.427 143.568 212.609 143.568C210.79 143.568 209.409 142.338 209.423 140.574C209.409 138.811 210.79 137.58 212.609 137.58ZM212.609 138.523C211.406 138.523 210.462 139.371 210.476 140.574C210.462 141.777 211.406 142.625 212.609 142.625C213.839 142.625 214.755 141.777 214.755 140.574C214.755 139.371 213.839 138.523 212.609 138.523ZM231.667 136.719V148.873H230.614V142.584H228.864V148.244H227.853V136.992H228.864V141.668H230.614V136.719H231.667ZM222.972 138.209V144.771C224.182 144.758 225.467 144.676 226.95 144.375L227.087 145.332C225.392 145.633 223.997 145.729 222.657 145.729H221.906V138.209H222.972ZM242.003 138.141V141.312H243.849V136.979H244.874V148.258H243.849V142.201H242.003V145.605H237.355V138.141H242.003ZM238.366 139.002V144.744H240.991V139.002H238.366ZM247.322 136.719V148.873H246.282V136.719H247.322ZM252.613 140.178C252.613 142.105 253.556 144.197 255.169 145.154L254.554 145.988C253.385 145.277 252.544 143.979 252.12 142.502C251.669 144.115 250.767 145.503 249.55 146.248L248.866 145.441C250.548 144.457 251.573 142.297 251.573 140.219V137.867H252.613V140.178ZM259.421 136.719V148.873H258.382V136.719H259.421ZM256.906 136.979V148.258H255.894V141.996H253.829V141.08H255.894V136.979H256.906ZM265.45 140.451C265.45 142.516 266.954 144.607 268.745 145.387L268.144 146.234C266.722 145.585 265.491 144.184 264.931 142.502C264.357 144.286 263.133 145.838 261.745 146.535L261.103 145.688C262.839 144.854 264.357 142.557 264.37 140.451V138.865H261.499V137.977H268.349V138.865H265.45V140.451ZM271.124 136.719V148.873H270.044V136.719H271.124ZM287.79 142.133V142.967H282.773V144.102H286.368V146.727H279.15V147.916H286.738V148.736H278.083V145.961H285.316V144.908H278.056V144.102H281.72V142.967H276.73V142.133H287.79ZM282.773 136.65V137.785H286.669V138.633H282.855C283.053 139.843 284.953 140.608 287.189 140.752L286.861 141.572C284.83 141.401 282.998 140.772 282.253 139.617C281.508 140.772 279.676 141.401 277.632 141.572L277.318 140.752C279.539 140.608 281.44 139.843 281.652 138.633H277.864V137.785H281.72V136.65H282.773ZM294.585 137.471V140.875H290.402V142.762C292.685 142.762 293.861 142.728 295.296 142.461L295.406 143.35C293.888 143.596 292.657 143.637 290.197 143.637H289.335V140.055H293.519V138.332H289.308V137.471H294.585ZM298.892 136.732V144.197H297.812V141.941H295.392V141.053H297.812V139.412H295.392V138.537H297.812V136.732H298.892ZM298.892 144.854V148.9H297.812V145.729H290.702V144.854H298.892Z" fill="black"/>
<path d="M730.542 174.742H622.527C621.927 174.742 621.359 175.011 620.979 175.475L586.525 217.57C585.457 218.876 586.386 220.837 588.073 220.837H696.088C696.688 220.837 697.256 220.568 697.636 220.104L732.09 178.009C733.159 176.703 732.23 174.742 730.542 174.742Z" fill="#A5BEFF"/>
<path d="M643.681 191.824V198.141H642.628V191.824H643.681ZM643.695 198.729V201.627H636.872V202.98H644.132V203.842H635.82V200.82H642.628V199.576H635.792V198.729H643.695ZM638.034 193.547C638.034 195.133 639.333 196.514 641.165 197.061L640.632 197.895C639.197 197.443 638.055 196.479 637.515 195.229C636.989 196.596 635.826 197.662 634.343 198.154L633.837 197.307C635.656 196.705 636.954 195.215 636.954 193.547V193.41H634.111V192.521H640.837V193.41H638.034V193.547ZM656.874 198.045V198.934H651.925V201.422H650.859V198.934H645.745V198.045H656.874ZM655.425 192.426V196.65H647.195V192.426H655.425ZM648.247 193.273V195.789H654.359V193.273H648.247ZM655.63 202.816V203.719H647.167V200.219H648.247V202.816H655.63ZM665.529 194.121C665.529 195.816 666.759 197.416 668.536 198.059L667.935 198.893C666.602 198.359 665.542 197.3 665.023 195.98C664.503 197.45 663.396 198.619 661.96 199.193L661.386 198.318C663.204 197.648 664.462 195.953 664.476 194.08V192.576H665.529V194.121ZM671.448 191.838V200.943H670.368V195.598H667.661V194.695H670.368V191.838H671.448ZM671.722 202.816V203.719H663.587V199.904H664.667V202.816H671.722ZM678.736 192.713V193.615H675.044V195.133H678.599V195.98H675.044V197.662C676.815 197.655 677.922 197.594 679.228 197.334L679.337 198.223C677.915 198.496 676.767 198.564 674.784 198.564H674.019V192.713H678.736ZM683.794 191.838V199.207H682.769V195.885H681.06V199.125H680.062V192.07H681.06V195.01H682.769V191.838H683.794ZM683.794 199.836V203.979H682.741V200.711H675.605V199.836H683.794Z" fill="black"/>
<path d="M730.542 380.469H622.527C621.927 380.469 621.359 380.738 620.979 381.202L586.525 423.297C585.457 424.603 586.386 426.564 588.073 426.564H696.088C696.688 426.564 697.256 426.295 697.636 425.831L732.09 383.736C733.159 382.43 732.23 380.469 730.542 380.469Z" fill="#A5BEFF"/>
<path d="M640.571 399.598H639.285L642.908 389.699H644.207L647.83 399.598H646.531L645.547 396.809H641.569L640.571 399.598ZM641.938 395.729H645.164L643.592 391.299H643.51L641.938 395.729ZM650.401 389.699V399.598H649.17V389.699H650.401ZM666.629 398.271V399.174H655.5V398.271H660.518V395.482H661.571V398.271H666.629ZM665.563 390.492V391.381H661.598C661.605 393.288 663.628 394.689 665.959 395.072L665.549 395.92C663.601 395.571 661.817 394.594 661.051 393.076C660.279 394.594 658.494 395.571 656.539 395.92L656.115 395.072C658.46 394.689 660.497 393.288 660.504 391.381H656.539V390.492H660.518V388.811H661.571V390.492H665.563ZM677.102 388.551V392.256H678.934V393.158H677.102V397.52H676.035V388.551H677.102ZM677.662 399.543V400.445H669.5V396.59H670.553V399.543H677.662ZM671.018 389.412C672.836 389.412 674.203 390.643 674.217 392.406C674.203 394.17 672.836 395.4 671.018 395.4C669.199 395.4 667.819 394.17 667.832 392.406C667.819 390.643 669.199 389.412 671.018 389.412ZM671.018 390.355C669.815 390.355 668.871 391.203 668.885 392.406C668.871 393.609 669.815 394.457 671.018 394.457C672.248 394.457 673.164 393.609 673.164 392.406C673.164 391.203 672.248 390.355 671.018 390.355ZM644.788 415.258V416.146H633.659V415.258H638.663V412.633H634.972V406.412H636.052V408.613H642.368V406.412H643.421V412.633H639.716V415.258H644.788ZM636.052 411.758H642.368V409.488H636.052V411.758ZM655.808 405.551V417.705H654.728V405.551H655.808ZM652.212 406.877C652.198 410.377 650.572 413.467 646.497 415.422L645.909 414.547C649.198 412.988 650.872 410.657 651.118 407.752H646.47V406.877H652.212ZM665.529 407.848C665.529 409.543 666.759 411.143 668.536 411.785L667.935 412.619C666.602 412.086 665.542 411.026 665.023 409.707C664.503 411.177 663.396 412.346 661.96 412.92L661.386 412.045C663.204 411.375 664.462 409.68 664.476 407.807V406.303H665.529V407.848ZM671.448 405.564V414.67H670.368V409.324H667.661V408.422H670.368V405.564H671.448ZM671.722 416.543V417.445H663.587V413.631H664.667V416.543H671.722ZM678.736 406.439V407.342H675.044V408.859H678.599V409.707H675.044V411.389C676.815 411.382 677.922 411.32 679.228 411.061L679.337 411.949C677.915 412.223 676.767 412.291 674.784 412.291H674.019V406.439H678.736ZM683.794 405.564V412.934H682.769V409.611H681.06V412.852H680.062V405.797H681.06V408.736H682.769V405.564H683.794ZM683.794 413.562V417.705H682.741V414.438H675.605V413.562H683.794Z" fill="black"/>
<path d="M730.542 525.863H622.527C621.927 525.863 621.359 526.132 620.979 526.597L586.525 568.692C585.457 569.997 586.386 571.958 588.073 571.958H696.088C696.688 571.958 697.256 571.689 697.636 571.225L732.09 529.13C733.159 527.824 732.23 525.863 730.542 525.863Z" fill="#A5BEFF"/>
<path d="M644.788 552.666V553.568H633.659V552.666H638.677V549.877H639.73V552.666H644.788ZM643.722 544.887V545.775H639.757C639.764 547.683 641.787 549.084 644.118 549.467L643.708 550.314C641.76 549.966 639.976 548.988 639.21 547.471C638.438 548.988 636.654 549.966 634.698 550.314L634.275 549.467C636.619 549.084 638.656 547.683 638.663 545.775H634.698V544.887H638.677V543.205H639.73V544.887H643.722ZM655.261 542.945V546.65H657.093V547.553H655.261V551.914H654.195V542.945H655.261ZM655.822 553.938V554.84H647.659V550.984H648.712V553.938H655.822ZM649.177 543.807C650.995 543.807 652.363 545.037 652.376 546.801C652.363 548.564 650.995 549.795 649.177 549.795C647.359 549.795 645.978 548.564 645.991 546.801C645.978 545.037 647.359 543.807 649.177 543.807ZM649.177 544.75C647.974 544.75 647.031 545.598 647.044 546.801C647.031 548.004 647.974 548.852 649.177 548.852C650.407 548.852 651.323 548.004 651.323 546.801C651.323 545.598 650.407 544.75 649.177 544.75ZM667.47 544.08C667.47 545.789 669.712 547.279 671.9 547.58L671.462 548.455C669.575 548.141 667.709 547.095 666.923 545.598C666.144 547.102 664.271 548.141 662.384 548.455L661.947 547.58C664.134 547.279 666.363 545.816 666.363 544.08V543.383H667.47V544.08ZM672.447 549.795V550.697H667.415V555.1H666.363V550.697H661.372V549.795H672.447ZM683.548 542.945V550.191H682.468V547.006H680.021V546.117H682.468V542.945H683.548ZM679.515 550.574C682.044 550.574 683.589 551.395 683.589 552.83C683.589 554.266 682.044 555.086 679.515 555.1C676.986 555.086 675.441 554.266 675.441 552.83C675.441 551.395 676.986 550.574 679.515 550.574ZM679.515 551.408C677.656 551.408 676.493 551.941 676.507 552.83C676.493 553.705 677.656 554.238 679.515 554.238C681.374 554.238 682.523 553.705 682.523 552.83C682.523 551.941 681.374 551.408 679.515 551.408ZM677.697 545.174C677.697 546.76 678.913 548.264 680.691 548.879L680.13 549.74C678.763 549.248 677.703 548.229 677.191 546.965C676.657 548.394 675.53 549.535 674.087 550.082L673.527 549.221C675.331 548.564 676.616 546.924 676.616 545.188V544.736H673.868V543.834H680.417V544.736H677.697V545.174Z" fill="black"/>
<path d="M903.253 453.617H795.238C794.638 453.617 794.07 453.886 793.69 454.35L759.236 496.445C758.168 497.751 759.097 499.712 760.784 499.712H868.799C869.399 499.712 869.967 499.443 870.347 498.979L904.801 456.884C905.87 455.578 904.941 453.617 903.253 453.617Z" fill="#A5BEFF"/>
<path d="M789.082 472.955C789.082 474.596 790.381 476.086 792.199 476.674L791.653 477.508C790.238 477.029 789.11 476.024 788.563 474.732C788.03 476.12 786.888 477.214 785.446 477.74L784.885 476.906C786.703 476.264 788.002 474.678 788.002 472.955V472.436H785.158V471.561H791.885V472.436H789.082V472.955ZM794.742 470.699V478.055H793.676V470.699H794.742ZM794.742 478.697V482.854H793.676V479.586H786.567V478.697H794.742ZM806.869 470.699V477.303H805.803V474.555H803.342V473.652H805.803V470.699H806.869ZM800.129 477.891V479.408H805.803V477.891H806.869V482.689H799.049V477.891H800.129ZM800.129 481.814H805.803V480.27H800.129V481.814ZM801.031 472.682C801.031 474.24 802.248 475.771 804.026 476.387L803.465 477.221C802.091 476.722 801.031 475.703 800.512 474.445C799.986 475.854 798.864 476.981 797.422 477.508L796.862 476.66C798.653 476.018 799.951 474.404 799.951 472.682V472.326H797.203V471.438H803.752V472.326H801.031V472.682ZM816.057 474.131C816.057 476.127 817.028 478.191 818.641 479.066L817.998 479.914C816.823 479.237 815.982 478 815.551 476.537C815.093 478.13 814.191 479.49 812.981 480.215L812.283 479.422C813.979 478.451 815.018 476.277 815.018 474.199V471.848H816.057V474.131ZM822.838 470.699V482.854H821.799V476.482H820.131V482.238H819.092V470.959H820.131V475.594H821.799V470.699H822.838ZM837.535 470.699V473.557H839.367V474.459H837.535V477.18H836.469V470.699H837.535ZM833.994 471.506V472.395H829.674V475.867C832.114 475.867 833.502 475.792 835.129 475.457L835.266 476.346C833.557 476.688 832.108 476.77 829.551 476.77H828.608V471.506H833.994ZM830.905 477.836V479.354H836.469V477.836H837.535V482.648H829.838V477.836H830.905ZM830.905 481.76H836.469V480.215H830.905V481.76ZM850.209 470.713V479.709H849.129V476.441H846.258V477.631H840.748V471.52H841.815V473.68H845.205V471.52H846.258V472.941H849.129V470.713H850.209ZM850.483 481.691V482.594H842.348V478.82H843.428V481.691H850.483ZM841.815 476.742H845.205V474.527H841.815V476.742ZM846.258 475.553H849.129V473.844H846.258V475.553ZM865.781 470.699V477.221H864.715V470.699H865.781ZM858.973 477.836V479.312H864.715V477.836H865.781V482.689H857.906V477.836H858.973ZM858.973 481.814H864.715V480.174H858.973V481.814ZM859.219 471.301C861.065 471.287 862.405 472.422 862.405 474.09C862.405 475.744 861.065 476.879 859.219 476.879C857.373 476.879 856.033 475.744 856.033 474.09C856.033 472.422 857.373 471.287 859.219 471.301ZM859.219 472.203C857.975 472.189 857.073 472.982 857.086 474.09C857.073 475.197 857.975 475.99 859.219 475.99C860.449 475.99 861.352 475.197 861.352 474.09C861.352 472.982 860.449 472.189 859.219 472.203ZM873.615 471.451V474.855H869.432V476.742C871.715 476.742 872.891 476.708 874.326 476.441L874.436 477.33C872.918 477.576 871.688 477.617 869.227 477.617H868.365V474.035H872.549V472.312H868.338V471.451H873.615ZM877.922 470.713V478.178H876.842V475.922H874.422V475.033H876.842V473.393H874.422V472.518H876.842V470.713H877.922ZM877.922 478.834V482.881H876.842V479.709H869.733V478.834H877.922Z" fill="black"/>
<path d="M909.753 236.867H801.738C801.138 236.867 800.57 237.136 800.19 237.6L765.736 279.695C764.668 281.001 765.597 282.962 767.284 282.962H875.299C875.899 282.962 876.467 282.693 876.847 282.229L911.301 240.134C912.37 238.828 911.441 236.867 909.753 236.867Z" fill="#A5BEFF"/>
<path d="M804.366 247.588C804.366 249.023 805.323 250.432 806.868 250.992L806.349 251.826C805.159 251.354 804.319 250.445 803.888 249.338C803.464 250.541 802.61 251.532 801.4 252.045L800.866 251.238C802.411 250.596 803.341 249.133 803.355 247.588V247.438H801.113V246.562H803.355V245.1H804.366V246.562H806.568V247.438H804.366V247.588ZM811.093 244.963V252.4H810.068V249.105H808.482V252.346H807.443V245.182H808.482V248.217H810.068V244.963H811.093ZM811.093 253.057V257.104H810.04V253.932H802.904V253.057H811.093ZM822.372 244.949V247.697H824.204V248.6H822.372V251.143H821.306V244.949H822.372ZM819.064 245.551C819.064 248.613 816.849 250.609 813.308 251.457L812.884 250.555C815.912 249.871 817.703 248.36 817.888 246.439H813.431V245.551H819.064ZM822.372 251.689V254.697H815.7V256.105H822.823V256.994H814.648V253.863H821.306V252.564H814.62V251.689H822.372ZM835.019 244.949V257.104H833.939V244.949H835.019ZM832.216 246.275V247.164H830.835V253.016C831.519 252.968 832.196 252.906 832.845 252.824L832.913 253.631C830.261 254.041 827.335 254.082 825.079 254.096L824.956 253.18L826.638 253.166V247.164H825.271V246.275H832.216ZM827.691 253.152C828.374 253.139 829.078 253.111 829.782 253.07V247.164H827.691V253.152ZM843.837 245.893C845.628 245.906 846.9 247.547 846.913 250.131C846.9 252.715 845.628 254.355 843.837 254.355C842.032 254.355 840.775 252.715 840.775 250.131C840.775 247.547 842.032 245.906 843.837 245.893ZM843.837 246.85C842.634 246.863 841.786 248.148 841.786 250.131C841.786 252.113 842.634 253.398 843.837 253.398C845.054 253.398 845.874 252.113 845.874 250.131C845.874 248.148 845.054 246.863 843.837 246.85ZM849.989 244.949V249.803H852.027V250.732H849.989V257.104H848.923V244.949H849.989ZM862.704 244.949V257.131H861.624V244.949H862.704ZM856.238 245.893C858.042 245.906 859.341 247.547 859.341 250.131C859.341 252.715 858.042 254.355 856.238 254.355C854.419 254.355 853.134 252.715 853.134 250.131C853.134 247.547 854.419 245.906 856.238 245.893ZM856.238 246.85C855.021 246.863 854.173 248.148 854.173 250.131C854.173 252.113 855.021 253.398 856.238 253.398C857.454 253.398 858.302 252.113 858.302 250.131C858.302 248.148 857.454 246.863 856.238 246.85ZM874.476 245.551V246.562C874.476 247.697 874.476 248.928 874.148 250.596L873.081 250.5C873.232 249.789 873.314 249.153 873.368 248.572L865.958 248.928L865.808 248.012L873.409 247.766C873.423 247.342 873.423 246.945 873.423 246.562V246.426H866.109V245.551H874.476ZM875.857 251.416V252.291H864.796V251.416H869.308V249.625H870.388V251.416H875.857ZM874.763 256.037V256.912H866.204V253.33H867.284V256.037H874.763ZM823.076 264.246C823.076 265.941 824.307 267.541 826.084 268.184L825.483 269.018C824.15 268.484 823.09 267.425 822.571 266.105C822.051 267.575 820.944 268.744 819.508 269.318L818.934 268.443C820.752 267.773 822.01 266.078 822.024 264.205V262.701H823.076V264.246ZM828.996 261.963V271.068H827.916V265.723H825.209V264.82H827.916V261.963H828.996ZM829.27 272.941V273.844H821.135V270.029H822.215V272.941H829.27ZM836.283 262.838V263.74H832.592V265.258H836.147V266.105H832.592V267.787C834.363 267.78 835.47 267.719 836.776 267.459L836.885 268.348C835.463 268.621 834.315 268.689 832.332 268.689H831.567V262.838H836.283ZM841.342 261.963V269.332H840.317V266.01H838.608V269.25H837.61V262.195H838.608V265.135H840.317V261.963H841.342ZM841.342 269.961V274.104H840.289V270.836H833.153V269.961H841.342ZM850.953 265.217C850.94 267.432 852.457 269.674 854.248 270.48L853.592 271.328C852.211 270.651 851.015 269.223 850.434 267.486C849.866 269.325 848.67 270.856 847.248 271.574L846.565 270.672C848.369 269.838 849.873 267.527 849.887 265.217V263.002H850.953V265.217ZM856.655 261.949V274.131H855.574V261.949H856.655Z" fill="black"/>
<path d="M1104.67 306.117H996.652C996.052 306.117 995.484 306.386 995.104 306.85L960.65 348.945C959.582 350.251 960.511 352.212 962.198 352.212H1070.21C1070.81 352.212 1071.38 351.943 1071.76 351.479L1106.22 309.384C1107.28 308.078 1106.35 306.117 1104.67 306.117Z" fill="#A5BEFF"/>
<path d="M1003.99 323.199V335.354H1002.92V328.982H1000.03V328.094H1002.92V323.199H1003.99ZM1000.05 324.525C1000.05 327.971 998.59 331.033 994.53 333.043L993.942 332.182C997.237 330.589 998.761 328.251 998.973 325.4H994.475V324.525H1000.05ZM1010.24 325.086C1010.24 326.535 1011.47 327.93 1013.22 328.49L1012.69 329.338C1011.31 328.88 1010.24 327.937 1009.72 326.754C1009.17 328.06 1008.04 329.133 1006.62 329.625L1006.08 328.777C1007.86 328.162 1009.16 326.645 1009.16 325.072V324.73H1006.41V323.842H1012.96V324.73H1010.24V325.086ZM1016.09 323.199V329.488H1015.02V326.809H1012.58V325.92H1015.02V323.199H1016.09ZM1016.09 330.09V333.002H1009.31V334.355H1016.55V335.217H1008.24V332.182H1015.02V330.965H1008.22V330.09H1016.09ZM1025.72 326.467C1025.72 328.613 1027.14 330.814 1028.86 331.662L1028.2 332.523C1026.86 331.819 1025.74 330.384 1025.21 328.695C1024.66 330.493 1023.51 332.024 1022.15 332.756L1021.46 331.895C1023.24 331.02 1024.65 328.682 1024.66 326.467V324.252H1025.72V326.467ZM1031.05 323.199V328.135H1033.08V329.064H1031.05V335.354H1029.98V323.199H1031.05ZM1044.86 330.131V331.02H1041.92V335.354H1040.84V331.02H1037.72V335.354H1036.61V331.02H1033.73V330.131H1044.86ZM1039.26 323.691C1041.82 323.691 1043.54 324.717 1043.54 326.344C1043.54 327.957 1041.82 328.982 1039.26 328.969C1036.71 328.982 1034.98 327.957 1034.98 326.344C1034.98 324.717 1036.71 323.691 1039.26 323.691ZM1039.26 324.566C1037.36 324.566 1036.08 325.264 1036.09 326.344C1036.08 327.424 1037.36 328.107 1039.26 328.107C1041.15 328.107 1042.45 327.424 1042.45 326.344C1042.45 325.264 1041.15 324.566 1039.26 324.566ZM1059.39 323.199V329.721H1058.32V323.199H1059.39ZM1052.58 330.336V331.812H1058.32V330.336H1059.39V335.189H1051.51V330.336H1052.58ZM1052.58 334.314H1058.32V332.674H1052.58V334.314ZM1052.83 323.801C1054.67 323.787 1056.01 324.922 1056.01 326.59C1056.01 328.244 1054.67 329.379 1052.83 329.379C1050.98 329.379 1049.64 328.244 1049.64 326.59C1049.64 324.922 1050.98 323.787 1052.83 323.801ZM1052.83 324.703C1051.58 324.689 1050.68 325.482 1050.69 326.59C1050.68 327.697 1051.58 328.49 1052.83 328.49C1054.06 328.49 1054.96 327.697 1054.96 326.59C1054.96 325.482 1054.06 324.689 1052.83 324.703ZM1067.22 323.951V327.355H1063.04V329.242C1065.32 329.242 1066.5 329.208 1067.93 328.941L1068.04 329.83C1066.53 330.076 1065.3 330.117 1062.83 330.117H1061.97V326.535H1066.16V324.812H1061.95V323.951H1067.22ZM1071.53 323.213V330.678H1070.45V328.422H1068.03V327.533H1070.45V325.893H1068.03V325.018H1070.45V323.213H1071.53ZM1071.53 331.334V335.381H1070.45V332.209H1063.34V331.334H1071.53Z" fill="black"/>
<path d="M325.808 316.41H217.793C217.193 316.41 216.625 316.679 216.245 317.143L181.791 359.238C180.722 360.544 181.651 362.505 183.339 362.505H291.354C291.954 362.505 292.522 362.236 292.902 361.772L327.356 319.677C328.425 318.371 327.495 316.41 325.808 316.41Z" fill="#A5BEFF"/>
<path d="M230.962 326.748C230.962 328.389 232.261 329.879 234.079 330.467L233.532 331.301C232.117 330.822 230.989 329.817 230.443 328.525C229.909 329.913 228.768 331.007 227.325 331.533L226.765 330.699C228.583 330.057 229.882 328.471 229.882 326.748V326.229H227.038V325.354H233.765V326.229H230.962V326.748ZM236.622 324.492V331.848H235.556V324.492H236.622ZM236.622 332.49V336.646H235.556V333.379H228.447V332.49H236.622ZM248.749 324.492V331.096H247.683V328.348H245.222V327.445H247.683V324.492H248.749ZM242.009 331.684V333.201H247.683V331.684H248.749V336.482H240.929V331.684H242.009ZM242.009 335.607H247.683V334.062H242.009V335.607ZM242.911 326.475C242.911 328.033 244.128 329.564 245.906 330.18L245.345 331.014C243.971 330.515 242.911 329.496 242.392 328.238C241.865 329.646 240.744 330.774 239.302 331.301L238.741 330.453C240.532 329.811 241.831 328.197 241.831 326.475V326.119H239.083V325.23H245.632V326.119H242.911V326.475ZM260.575 325.285C260.562 328.334 258.388 330.521 254.888 331.52L254.437 330.672C257.342 329.852 259.195 328.238 259.427 326.174H255.066V325.285H260.575ZM264.376 324.506V331.438H263.296V328.539H260.603V327.637H263.296V324.506H264.376ZM264.376 331.957V336.482H256.488V331.957H264.376ZM257.527 332.818V335.607H263.31V332.818H257.527ZM270.023 326.871C270.023 328.252 270.952 329.646 272.511 330.262L271.937 331.096C270.788 330.617 269.948 329.729 269.517 328.648C269.066 329.831 268.191 330.863 267.001 331.396L266.413 330.562C268.013 329.852 268.997 328.252 268.997 326.871V325.244H270.023V326.871ZM276.722 324.506V331.848H275.697V328.58H274.083V331.779H273.072V324.725H274.083V327.678H275.697V324.506H276.722ZM276.722 332.518V336.646H275.669V333.406H268.532V332.518H276.722ZM282.478 325.176L279.279 337.029H278.212L281.398 325.176H282.478ZM226.232 341.492V346.305H228.269V347.207H226.232V353.674H225.165V341.492H226.232ZM223.032 342.682V343.57H218.425V349.723C220.626 349.723 222.185 349.62 223.989 349.285L224.126 350.215C222.226 350.557 220.626 350.625 218.316 350.625H217.359V342.682H223.032ZM233.245 344.76C233.232 346.975 234.749 349.217 236.54 350.023L235.884 350.871C234.503 350.194 233.307 348.766 232.726 347.029C232.158 348.868 230.962 350.399 229.54 351.117L228.857 350.215C230.661 349.381 232.165 347.07 232.179 344.76V342.545H233.245V344.76ZM238.947 341.492V353.674H237.866V341.492H238.947ZM255.613 348.848V349.75H250.595V353.674H249.542V349.75H244.538V348.848H255.613ZM250.609 343.898C250.609 345.416 252.728 346.742 254.902 347.043L254.505 347.904C252.625 347.617 250.855 346.674 250.089 345.348C249.31 346.688 247.512 347.617 245.632 347.904L245.236 347.043C247.396 346.742 249.542 345.43 249.542 343.898V343.885H245.618V343.01H249.542V341.492H250.595V343.01H254.546V343.885H250.609V343.898ZM260.781 344.404C260.781 346.018 262.066 347.439 263.87 348L263.337 348.861C261.929 348.403 260.822 347.439 260.275 346.195C259.748 347.528 258.648 348.561 257.212 349.066L256.679 348.232C258.47 347.631 259.728 346.113 259.728 344.404V344.008H256.98V343.133H259.728V341.574H260.808V343.133H263.529V344.008H260.781V344.404ZM266.714 341.506V350.584H265.634V346.141H263.105V345.252H265.634V341.506H266.714ZM267.056 352.484V353.387H258.907V349.764H259.988V352.484H267.056ZM278.239 341.492V344.432H280.072V345.334H278.239V348.602H277.173V341.492H278.239ZM270.31 342.189V344.049H273.851V342.189H274.917V347.836H269.257V342.189H270.31ZM270.31 346.975H273.851V344.91H270.31V346.975ZM278.335 349.285V350.146H271.677V352.607H278.568V353.482H270.611V349.285H278.335ZM290.886 341.492V353.646H289.806V341.492H290.886ZM287.29 342.818C287.277 346.318 285.65 349.408 281.575 351.363L280.988 350.488C284.276 348.93 285.95 346.599 286.197 343.693H281.548V342.818H287.29Z" fill="black"/>
<path d="M326.597 445.551H218.582C217.982 445.551 217.414 445.82 217.034 446.284L182.58 488.379C181.511 489.685 182.44 491.646 184.128 491.646H292.143C292.743 491.646 293.311 491.377 293.691 490.913L328.145 448.818C329.214 447.512 328.285 445.551 326.597 445.551Z" fill="#A5BEFF"/>
<path d="M233.74 453.633V465.814H232.66V458.951H229.994V458.062H232.66V453.633H233.74ZM227.875 457.242C227.875 459.266 229.324 461.467 231.102 462.273L230.459 463.135C229.072 462.458 227.903 460.988 227.356 459.293C226.795 461.091 225.599 462.649 224.211 463.381L223.555 462.547C225.319 461.686 226.781 459.402 226.795 457.242V455.779H224.02V454.891H230.664V455.779H227.875V457.242ZM239.879 455.943C239.879 457.529 241.069 458.951 242.86 459.539L242.354 460.387C240.952 459.929 239.893 458.958 239.373 457.734C238.847 459.129 237.726 460.216 236.27 460.742L235.723 459.881C237.541 459.266 238.813 457.693 238.826 455.943V455.424H236.051V454.535H242.614V455.424H239.879V455.943ZM245.266 453.633V456.736H247.098V457.639H245.266V460.975H244.199V453.633H245.266ZM241.369 461.303C243.871 461.303 245.375 462.123 245.375 463.518C245.375 464.939 243.871 465.76 241.369 465.76C238.867 465.76 237.336 464.939 237.336 463.518C237.336 462.123 238.867 461.303 241.369 461.303ZM241.369 462.164C239.537 462.164 238.403 462.67 238.416 463.518C238.403 464.393 239.537 464.898 241.369 464.898C243.215 464.898 244.336 464.393 244.336 463.518C244.336 462.67 243.215 462.164 241.369 462.164ZM254.631 454.576C256.422 454.59 257.694 456.23 257.707 458.814C257.694 461.398 256.422 463.039 254.631 463.039C252.826 463.039 251.569 461.398 251.569 458.814C251.569 456.23 252.826 454.59 254.631 454.576ZM254.631 455.533C253.428 455.547 252.58 456.832 252.58 458.814C252.58 460.797 253.428 462.082 254.631 462.082C255.848 462.082 256.668 460.797 256.668 458.814C256.668 456.832 255.848 455.547 254.631 455.533ZM260.783 453.633V458.486H262.821V459.416H260.783V465.787H259.717V453.633H260.783ZM273.498 453.633V465.814H272.418V453.633H273.498ZM267.031 454.576C268.836 454.59 270.135 456.23 270.135 458.814C270.135 461.398 268.836 463.039 267.031 463.039C265.213 463.039 263.928 461.398 263.928 458.814C263.928 456.23 265.213 454.59 267.031 454.576ZM267.031 455.533C265.815 455.547 264.967 456.832 264.967 458.814C264.967 460.797 265.815 462.082 267.031 462.082C268.248 462.082 269.096 460.797 269.096 458.814C269.096 456.832 268.248 455.547 267.031 455.533ZM285.27 454.234V455.246C285.27 456.381 285.27 457.611 284.942 459.279L283.875 459.184C284.026 458.473 284.108 457.837 284.162 457.256L276.752 457.611L276.602 456.695L284.203 456.449C284.217 456.025 284.217 455.629 284.217 455.246V455.109H276.903V454.234H285.27ZM286.651 460.1V460.975H275.59V460.1H280.102V458.309H281.182V460.1H286.651ZM285.557 464.721V465.596H276.998V462.014H278.078V464.721H285.557ZM239.92 472.93C239.92 474.625 241.151 476.225 242.928 476.867L242.326 477.701C240.993 477.168 239.934 476.108 239.414 474.789C238.895 476.259 237.787 477.428 236.352 478.002L235.778 477.127C237.596 476.457 238.854 474.762 238.867 472.889V471.385H239.92V472.93ZM245.84 470.646V479.752H244.76V474.406H242.053V473.504H244.76V470.646H245.84ZM246.114 481.625V482.527H237.979V478.713H239.059V481.625H246.114ZM253.127 471.521V472.424H249.436V473.941H252.99V474.789H249.436V476.471C251.206 476.464 252.314 476.402 253.619 476.143L253.729 477.031C252.307 477.305 251.158 477.373 249.176 477.373H248.41V471.521H253.127ZM258.186 470.646V478.016H257.16V474.693H255.451V477.934H254.453V470.879H255.451V473.818H257.16V470.646H258.186ZM258.186 478.645V482.787H257.133V479.52H249.996V478.645H258.186ZM267.797 473.9C267.783 476.115 269.301 478.357 271.092 479.164L270.436 480.012C269.055 479.335 267.859 477.906 267.278 476.17C266.71 478.009 265.514 479.54 264.092 480.258L263.408 479.355C265.213 478.521 266.717 476.211 266.731 473.9V471.686H267.797V473.9ZM273.498 470.633V482.814H272.418V470.633H273.498Z" fill="black"/>
<path d="M71.4453 116.68C71.4453 118.889 73.2362 120.68 75.4453 120.68C77.6545 120.68 79.4453 118.889 79.4453 116.68C79.4453 114.471 77.6545 112.68 75.4453 112.68C73.2362 112.68 71.4453 114.471 71.4453 116.68ZM75.4453 93.6797L74.6953 93.6797L74.6953 116.68L75.4453 116.68L76.1953 116.68L76.1953 93.6797L75.4453 93.6797Z" fill="#3D72FF"/>
<path d="M655.305 116.68C655.305 118.889 657.096 120.68 659.305 120.68C661.514 120.68 663.305 118.889 663.305 116.68C663.305 114.471 661.514 112.68 659.305 112.68C657.096 112.68 655.305 114.471 655.305 116.68ZM659.305 93.6797L658.555 93.6797L658.555 116.68L659.305 116.68L660.055 116.68L660.055 93.6797L659.305 93.6797Z" fill="#3D72FF"/>
<path d="M655.305 243.84C655.305 246.049 657.096 247.84 659.305 247.84C661.514 247.84 663.305 246.049 663.305 243.84C663.305 241.631 661.514 239.84 659.305 239.84C657.096 239.84 655.305 241.631 655.305 243.84ZM659.305 220.84L658.555 220.84L658.555 243.84L659.305 243.84L660.055 243.84L660.055 220.84L659.305 220.84Z" fill="#3D72FF"/>
<path d="M655.305 175.184C655.305 177.393 657.096 179.184 659.305 179.184C661.514 179.184 663.305 177.393 663.305 175.184C663.305 172.974 661.514 171.184 659.305 171.184C657.096 171.184 655.305 172.974 655.305 175.184ZM659.305 152.184L658.555 152.184L658.555 175.184L659.305 175.184L660.055 175.184L660.055 152.184L659.305 152.184Z" fill="#3D72FF"/>
<path d="M655.305 302.344C655.305 304.553 657.096 306.344 659.305 306.344C661.514 306.344 663.305 304.553 663.305 302.344C663.305 300.135 661.514 298.344 659.305 298.344C657.096 298.344 655.305 300.135 655.305 302.344ZM659.305 279.344L658.555 279.344L658.555 302.344L659.305 302.344L660.055 302.344L660.055 279.344L659.305 279.344Z" fill="#3D72FF"/>
<path d="M655.305 449.227C655.305 451.436 657.096 453.227 659.305 453.227C661.514 453.227 663.305 451.436 663.305 449.227C663.305 447.017 661.514 445.227 659.305 445.227C657.096 445.227 655.305 447.017 655.305 449.227ZM659.305 426.227L658.555 426.227L658.555 449.227L659.305 449.227L660.055 449.227L660.055 426.227L659.305 426.227Z" fill="#3D72FF"/>
<path d="M71.4453 313.449C71.4453 315.658 73.2362 317.449 75.4453 317.449C77.6545 317.449 79.4453 315.658 79.4453 313.449C79.4453 311.24 77.6545 309.449 75.4453 309.449C73.2362 309.449 71.4453 311.24 71.4453 313.449ZM75.4453 290.449L74.6953 290.449L74.6953 313.449L75.4453 313.449L76.1953 313.449L76.1953 290.449L75.4453 290.449Z" fill="#3D72FF"/>
<path d="M71.4453 449.234C71.4453 451.444 73.2362 453.234 75.4453 453.234C77.6545 453.234 79.4453 451.444 79.4453 449.234C79.4453 447.025 77.6545 445.234 75.4453 445.234C73.2362 445.234 71.4453 447.025 71.4453 449.234ZM75.4453 426.234L74.6953 426.234L74.6953 449.234L75.4453 449.234L76.1953 449.234L76.1953 426.234L75.4453 426.234Z" fill="#3D72FF"/>
<path d="M71.4453 252.656C71.4453 254.865 73.2362 256.656 75.4453 256.656C77.6545 256.656 79.4453 254.865 79.4453 252.656C79.4453 250.447 77.6545 248.656 75.4453 248.656C73.2362 248.656 71.4453 250.447 71.4453 252.656ZM75.4453 229.656L74.6953 229.656L74.6953 252.656L75.4453 252.656L76.1953 252.656L76.1953 229.656L75.4453 229.656Z" fill="#3D72FF"/>
<rect y="193.766" width="150.912" height="35.8908" rx="8" fill="#D9D9D9"/>
<path d="M60.0167 204.678V211.199H58.9503V204.678H60.0167ZM53.2081 211.814V213.291H58.9503V211.814H60.0167V216.668H52.1417V211.814H53.2081ZM53.2081 215.793H58.9503V214.152H53.2081V215.793ZM53.4542 205.279C55.2999 205.266 56.6397 206.4 56.6397 208.068C56.6397 209.723 55.2999 210.857 53.4542 210.857C51.6085 210.857 50.2686 209.723 50.2686 208.068C50.2686 206.4 51.6085 205.266 53.4542 205.279ZM53.4542 206.182C52.21 206.168 51.3077 206.961 51.3214 208.068C51.3077 209.176 52.21 209.969 53.4542 209.969C54.6846 209.969 55.587 209.176 55.587 208.068C55.587 206.961 54.6846 206.168 53.4542 206.182ZM67.8507 205.43V208.834H63.6671V210.721C65.9503 210.721 67.126 210.687 68.5616 210.42L68.671 211.309C67.1534 211.555 65.9229 211.596 63.462 211.596H62.6007V208.014H66.7842V206.291H62.5733V205.43H67.8507ZM72.1573 204.691V212.156H71.0772V209.9H68.6573V209.012H71.0772V207.371H68.6573V206.496H71.0772V204.691H72.1573ZM72.1573 212.812V216.859H71.0772V213.688H63.9678V212.812H72.1573ZM81.3995 205.252C83.1768 205.252 84.421 206.209 84.421 207.658C84.421 208.909 83.4366 209.818 81.9737 209.996V211.186C83.1085 211.138 84.2637 211.035 85.3233 210.871L85.4053 211.678C82.835 212.143 79.9229 212.17 77.8174 212.17L77.6807 211.281C78.6241 211.288 79.7315 211.281 80.8936 211.24V210.01C79.3897 209.846 78.378 208.93 78.3917 207.658C78.378 206.209 79.6221 205.252 81.3995 205.252ZM81.3995 206.086C80.2237 206.086 79.3897 206.715 79.4034 207.658C79.3897 208.574 80.2237 209.203 81.3995 209.217C82.5889 209.203 83.3956 208.574 83.4092 207.658C83.3956 206.715 82.5889 206.086 81.3995 206.086ZM87.1827 204.691V208.807H89.001V209.723H87.1827V213.988H86.1026V204.691H87.1827ZM87.6202 215.656V216.559H79.4581V213.182H80.5382V215.656H87.6202ZM100.923 214.426V215.328H89.794V214.426H92.9249V212.115H91.1885V208.369H98.462V206.469H91.1612V205.58H99.5147V209.258H92.2549V211.227H99.8018V212.115H97.9014V214.426H100.923ZM93.9776 214.426H96.8487V212.115H93.9776V214.426Z" fill="black"/>
<path d="M70.9453 191.863C70.9453 194.072 72.7362 195.863 74.9453 195.863C77.1545 195.863 78.9453 194.072 78.9453 191.863C78.9453 189.654 77.1545 187.863 74.9453 187.863C72.7362 187.863 70.9453 189.654 70.9453 191.863ZM74.9453 163.863H74.1953V191.863H74.9453H75.6953V163.863H74.9453Z" fill="#3D72FF"/>
<path d="M70.9453 389.941C70.9453 392.151 72.7362 393.941 74.9453 393.941C77.1545 393.941 78.9453 392.151 78.9453 389.941C78.9453 387.732 77.1545 385.941 74.9453 385.941C72.7362 385.941 70.9453 387.732 70.9453 389.941ZM74.9453 361.941H74.1953V389.941H74.9453H75.6953V361.941H74.9453Z" fill="#3D72FF"/>
<path d="M655.336 378.648C655.336 380.858 657.127 382.648 659.336 382.648C661.545 382.648 663.336 380.858 663.336 378.648C663.336 376.439 661.545 374.648 659.336 374.648C657.127 374.648 655.336 376.439 655.336 378.648ZM659.336 350.648H658.586V378.648H659.336H660.086V350.648H659.336Z" fill="#3D72FF"/>
<path d="M655.336 525.527C655.336 527.736 657.127 529.527 659.336 529.527C661.545 529.527 663.336 527.736 663.336 525.527C663.336 523.318 661.545 521.527 659.336 521.527C657.127 521.527 655.336 523.318 655.336 525.527ZM659.336 497.527H658.586V525.527H659.336H660.086V497.527H659.336Z" fill="#3D72FF"/>
<path d="M655.336 599.957C655.336 602.166 657.127 603.957 659.336 603.957C661.545 603.957 663.336 602.166 663.336 599.957C663.336 597.748 661.545 595.957 659.336 595.957C657.127 595.957 655.336 597.748 655.336 599.957ZM659.336 571.957H658.586V599.957H659.336H660.086V571.957H659.336Z" fill="#3D72FF"/>
<path d="M75 119.332H75.9131C76.0365 119.332 76.1593 119.351 76.2773 119.387L149.949 141.847C150.076 141.885 150.162 142.002 150.162 142.134C150.162 142.266 150.076 142.383 149.949 142.422L76.2773 164.928C76.159 164.964 76.0359 164.982 75.9121 164.982H75C74.8763 164.982 74.753 164.964 74.6348 164.928L0.962891 142.422C0.836374 142.383 0.75 142.266 0.75 142.134C0.7501 142.002 0.836531 141.885 0.962891 141.847L74.6348 119.387C74.7529 119.351 74.8765 119.332 75 119.332Z" fill="#1F1E22" stroke="#3D72FF" stroke-width="1.5"/>
<path d="M46.9468 135.453V141.77H45.894V135.453H46.9468ZM46.9604 142.357V145.256H40.1382V146.609H47.3979V147.471H39.0854V144.449H45.894V143.205H39.0581V142.357H46.9604ZM41.3003 137.176C41.3003 138.762 42.5991 140.143 44.4311 140.689L43.8979 141.523C42.4624 141.072 41.3208 140.108 40.7808 138.857C40.2544 140.225 39.0923 141.291 37.6089 141.783L37.103 140.936C38.9214 140.334 40.2202 138.844 40.2202 137.176V137.039H37.3765V136.15H44.103V137.039H41.3003V137.176ZM60.1401 141.674V142.562H55.1909V145.051H54.1245V142.562H49.0112V141.674H60.1401ZM58.6909 136.055V140.279H50.4604V136.055H58.6909ZM51.5132 136.902V139.418H57.6245V136.902H51.5132ZM58.896 146.445V147.348H50.4331V143.848H51.5132V146.445H58.896ZM74.6733 135.453V141.975H73.6069V135.453H74.6733ZM67.8647 142.59V144.066H73.6069V142.59H74.6733V147.443H66.7983V142.59H67.8647ZM67.8647 146.568H73.6069V144.928H67.8647V146.568ZM68.1108 136.055C69.9565 136.041 71.2964 137.176 71.2964 138.844C71.2964 140.498 69.9565 141.633 68.1108 141.633C66.2651 141.633 64.9253 140.498 64.9253 138.844C64.9253 137.176 66.2651 136.041 68.1108 136.055ZM68.1108 136.957C66.8667 136.943 65.9643 137.736 65.978 138.844C65.9643 139.951 66.8667 140.744 68.1108 140.744C69.3413 140.744 70.2436 139.951 70.2436 138.844C70.2436 137.736 69.3413 136.943 68.1108 136.957ZM82.5073 136.205V139.609H78.3237V141.496C80.6069 141.496 81.7827 141.462 83.2183 141.195L83.3276 142.084C81.8101 142.33 80.5796 142.371 78.1186 142.371H77.2573V138.789H81.4409V137.066H77.23V136.205H82.5073ZM86.814 135.467V142.932H85.7339V140.676H83.314V139.787H85.7339V138.146H83.314V137.271H85.7339V135.467H86.814ZM86.814 143.588V147.635H85.7339V144.463H78.6245V143.588H86.814ZM95.6186 136.396C96.7329 136.403 97.6352 137.053 98.1616 138.174H101.361V135.453H102.427V147.635H101.361V142.918H98.2436C97.7309 144.148 96.7944 144.859 95.6186 144.859C93.8276 144.859 92.5698 143.219 92.5698 140.635C92.5698 138.051 93.8276 136.41 95.6186 136.396ZM95.6186 137.354C94.4155 137.367 93.5952 138.652 93.5952 140.635C93.5952 142.617 94.4155 143.902 95.6186 143.902C96.8081 143.902 97.6421 142.617 97.6421 140.635C97.6421 138.652 96.8081 137.367 95.6186 137.354ZM98.4761 139.076C98.5854 139.548 98.6538 140.067 98.6538 140.635C98.6538 141.134 98.5991 141.605 98.5171 142.029H101.361V139.076H98.4761ZM115.566 142.672V143.547H110.494V147.607H109.441V143.547H104.437V142.672H115.566ZM106.925 135.959V137.641H113.05V135.959H114.13V141.195H105.859V135.959H106.925ZM106.925 140.32H113.05V138.516H106.925V140.32Z" fill="white"/>
<path d="M75 316.105H75.9131C76.0365 316.106 76.1593 316.124 76.2773 316.16L149.949 338.62C150.076 338.659 150.162 338.775 150.162 338.907C150.162 339.04 150.076 339.157 149.949 339.195L76.2773 361.701C76.159 361.737 76.0359 361.756 75.9121 361.756H75C74.8763 361.756 74.753 361.737 74.6348 361.701L0.962891 339.195C0.836374 339.157 0.75 339.04 0.75 338.907C0.7501 338.775 0.836531 338.659 0.962891 338.62L74.6348 316.16C74.7529 316.124 74.8765 316.105 75 316.105Z" fill="#1F1E22" stroke="#3D72FF" stroke-width="1.5"/>
<path d="M46.687 333.457V334.811C46.687 336.369 46.687 337.941 46.2495 340.197L45.1968 340.074C45.6343 337.928 45.6343 336.328 45.6343 334.811V334.346H38.0874V333.457H46.687ZM47.9995 341.77V342.658H36.9253V341.77H39.6733V337.764H40.7397V341.77H42.7085V337.764H43.7612V341.77H47.9995ZM55.1226 333.361C55.1226 335.07 57.3647 336.561 59.5522 336.861L59.1147 337.736C57.228 337.422 55.3618 336.376 54.5757 334.879C53.7964 336.383 51.9233 337.422 50.0366 337.736L49.5991 336.861C51.7866 336.561 54.0151 335.098 54.0151 333.361V332.664H55.1226V333.361ZM60.0991 339.076V339.979H55.0679V344.381H54.0151V339.979H49.0249V339.076H60.0991ZM68.7944 334.523C68.7944 336.219 70.0249 337.818 71.8022 338.461L71.2007 339.295C69.8677 338.762 68.8081 337.702 68.2886 336.383C67.769 337.853 66.6616 339.021 65.2261 339.596L64.6518 338.721C66.4702 338.051 67.728 336.355 67.7417 334.482V332.979H68.7944V334.523ZM74.7143 332.24V341.346H73.6343V336H70.9272V335.098H73.6343V332.24H74.7143ZM74.9878 343.219V344.121H66.853V340.307H67.9331V343.219H74.9878ZM82.0015 333.115V334.018H78.3101V335.535H81.8647V336.383H78.3101V338.064C80.0806 338.058 81.188 337.996 82.4936 337.736L82.603 338.625C81.1811 338.898 80.0327 338.967 78.0503 338.967H77.2847V333.115H82.0015ZM87.0601 332.24V339.609H86.0347V336.287H84.3257V339.527H83.3276V332.473H84.3257V335.412H86.0347V332.24H87.0601ZM87.0601 340.238V344.381H86.0073V341.113H78.8706V340.238H87.0601ZM95.6186 333.17C96.7329 333.177 97.6352 333.826 98.1616 334.947H101.361V332.227H102.427V344.408H101.361V339.691H98.2436C97.7309 340.922 96.7944 341.633 95.6186 341.633C93.8276 341.633 92.5698 339.992 92.5698 337.408C92.5698 334.824 93.8276 333.184 95.6186 333.17ZM95.6186 334.127C94.4155 334.141 93.5952 335.426 93.5952 337.408C93.5952 339.391 94.4155 340.676 95.6186 340.676C96.8081 340.676 97.6421 339.391 97.6421 337.408C97.6421 335.426 96.8081 334.141 95.6186 334.127ZM98.4761 335.85C98.5854 336.321 98.6538 336.841 98.6538 337.408C98.6538 337.907 98.5991 338.379 98.5171 338.803H101.361V335.85H98.4761ZM115.566 339.445V340.32H110.494V344.381H109.441V340.32H104.437V339.445H115.566ZM106.925 332.732V334.414H113.05V332.732H114.13V337.969H105.859V332.732H106.925ZM106.925 337.094H113.05V335.289H106.925V337.094Z" fill="white"/>
<path d="M658.852 304.914H659.765C659.888 304.914 660.011 304.933 660.129 304.969L733.801 327.429C733.927 327.467 734.014 327.584 734.014 327.716C734.014 327.848 733.927 327.965 733.801 328.004L660.129 350.51C660.011 350.546 659.887 350.564 659.764 350.564H658.852C658.728 350.564 658.605 350.546 658.486 350.51L584.814 328.004C584.688 327.965 584.602 327.848 584.602 327.716C584.602 327.584 584.688 327.467 584.814 327.429L658.486 304.969C658.604 304.933 658.728 304.914 658.852 304.914Z" fill="#1F1E22" stroke="#3D72FF" stroke-width="1.5"/>
<path d="M630.279 321.035V323.893H632.111V324.795H630.279V327.516H629.212V321.035H630.279ZM626.738 321.842V322.73H622.417V326.203C624.858 326.203 626.246 326.128 627.873 325.793L628.009 326.682C626.3 327.023 624.851 327.105 622.294 327.105H621.351V321.842H626.738ZM623.648 328.172V329.689H629.212V328.172H630.279V332.984H622.582V328.172H623.648ZM623.648 332.096H629.212V330.551H623.648V332.096ZM642.953 321.049V330.045H641.873V326.777H639.001V327.967H633.492V321.855H634.558V324.016H637.949V321.855H639.001V323.277H641.873V321.049H642.953ZM643.226 332.027V332.93H635.091V329.156H636.171V332.027H643.226ZM634.558 327.078H637.949V324.863H634.558V327.078ZM639.001 325.889H641.873V324.18H639.001V325.889ZM657.896 321.035V325.984H659.865V326.887H657.896V333.189H656.83V321.035H657.896ZM654.751 322.348C654.751 325.793 653.138 328.924 649.173 330.879L648.572 330.031C651.716 328.466 653.425 326.128 653.671 323.25H649.132V322.348H654.751ZM670.406 324.439V325.328H662.107V321.281H663.173V324.439H670.406ZM671.677 326.75V327.639H660.589V326.75H671.677ZM666.126 328.732C668.738 328.732 670.296 329.525 670.31 330.934C670.296 332.342 668.738 333.135 666.126 333.135C663.501 333.135 661.929 332.342 661.929 330.934C661.929 329.525 663.501 328.732 666.126 328.732ZM666.126 329.58C664.171 329.594 663.009 330.072 663.023 330.934C663.009 331.781 664.171 332.301 666.126 332.301C668.054 332.301 669.23 331.781 669.23 330.934C669.23 330.072 668.054 329.594 666.126 329.58ZM679.47 321.979C680.584 321.985 681.487 322.635 682.013 323.756H685.212V321.035H686.279V333.217H685.212V328.5H682.095C681.583 329.73 680.646 330.441 679.47 330.441C677.679 330.441 676.421 328.801 676.421 326.217C676.421 323.633 677.679 321.992 679.47 321.979ZM679.47 322.936C678.267 322.949 677.447 324.234 677.447 326.217C677.447 328.199 678.267 329.484 679.47 329.484C680.66 329.484 681.494 328.199 681.494 326.217C681.494 324.234 680.66 322.949 679.47 322.936ZM682.328 324.658C682.437 325.13 682.505 325.649 682.505 326.217C682.505 326.716 682.451 327.188 682.369 327.611H685.212V324.658H682.328ZM699.417 328.254V329.129H694.345V333.189H693.292V329.129H688.289V328.254H699.417ZM690.777 321.541V323.223H696.902V321.541H697.982V326.777H689.71V321.541H690.777ZM690.777 325.902H696.902V324.098H690.777V325.902Z" fill="white"/>
<path d="M658.852 451.797H659.765C659.888 451.797 660.011 451.816 660.129 451.852L733.801 474.312C733.927 474.35 734.014 474.466 734.014 474.599C734.014 474.731 733.927 474.848 733.801 474.887L660.129 497.393C660.011 497.429 659.887 497.447 659.764 497.447H658.852C658.728 497.447 658.605 497.429 658.486 497.393L584.814 474.887C584.688 474.848 584.602 474.731 584.602 474.599C584.602 474.466 584.688 474.35 584.814 474.312L658.486 451.852C658.604 451.816 658.728 451.797 658.852 451.797Z" fill="#1F1E22" stroke="#3D72FF" stroke-width="1.5"/>
<path d="M631.906 477.639V478.541H620.777V477.639H625.794V474.85H626.847V477.639H631.906ZM630.839 469.859V470.748H626.875C626.881 472.655 628.905 474.057 631.236 474.439L630.826 475.287C628.877 474.938 627.093 473.961 626.328 472.443C625.555 473.961 623.771 474.938 621.816 475.287L621.392 474.439C623.737 474.057 625.774 472.655 625.781 470.748H621.816V469.859H625.794V468.178H626.847V469.859H630.839ZM642.378 467.918V471.623H644.21V472.525H642.378V476.887H641.312V467.918H642.378ZM642.939 478.91V479.812H634.777V475.957H635.83V478.91H642.939ZM636.294 468.779C638.113 468.779 639.48 470.01 639.494 471.773C639.48 473.537 638.113 474.768 636.294 474.768C634.476 474.768 633.095 473.537 633.109 471.773C633.095 470.01 634.476 468.779 636.294 468.779ZM636.294 469.723C635.091 469.723 634.148 470.57 634.162 471.773C634.148 472.977 635.091 473.824 636.294 473.824C637.525 473.824 638.441 472.977 638.441 471.773C638.441 470.57 637.525 469.723 636.294 469.723ZM657.978 467.918V471.035H659.796V471.951H657.978V475.096H656.898V467.918H657.978ZM657.978 475.643V478.09H651.156V479.17H658.443V479.936H650.089V477.365H656.912V476.408H650.062V475.643H657.978ZM648.435 474.002C649.406 474.002 650.541 474.002 651.73 473.961V473.209C650.308 473.106 649.406 472.539 649.406 471.609C649.406 470.611 650.527 470.037 652.25 470.037C653.986 470.037 655.093 470.611 655.107 471.609C655.093 472.532 654.218 473.1 652.796 473.209V473.934C653.931 473.879 655.08 473.79 656.146 473.633L656.242 474.357C653.617 474.781 650.691 474.809 648.558 474.809L648.435 474.002ZM655.777 468.848V469.627H648.736V468.848H651.73V467.809H652.796V468.848H655.777ZM652.25 470.748C651.128 470.762 650.431 471.076 650.431 471.609C650.431 472.156 651.128 472.512 652.25 472.512C653.371 472.512 654.082 472.156 654.082 471.609C654.082 471.076 653.371 470.762 652.25 470.748ZM671.664 473.934V474.822H660.589V473.934H663.337V472.225C662.367 471.849 661.82 471.227 661.82 470.406C661.82 468.971 663.46 468.15 666.126 468.15C668.765 468.15 670.419 468.971 670.419 470.406C670.419 471.22 669.879 471.842 668.916 472.211V473.934H671.664ZM666.126 475.752C668.738 475.752 670.296 476.504 670.31 477.898C670.296 479.279 668.738 480.045 666.126 480.045C663.488 480.045 661.929 479.279 661.929 477.898C661.929 476.504 663.488 475.752 666.126 475.752ZM666.126 476.572C664.171 476.586 663.009 477.064 663.023 477.898C663.009 478.719 664.171 479.211 666.126 479.211C668.054 479.211 669.23 478.719 669.23 477.898C669.23 477.064 668.054 476.586 666.126 476.572ZM666.126 468.998C664.144 468.998 662.914 469.531 662.927 470.406C662.914 471.295 664.144 471.814 666.126 471.814C668.095 471.814 669.326 471.295 669.326 470.406C669.326 469.531 668.095 468.998 666.126 468.998ZM664.404 473.934H667.849V472.512C667.336 472.601 666.762 472.648 666.126 472.648C665.491 472.648 664.916 472.601 664.404 472.512V473.934ZM679.47 468.861C680.584 468.868 681.487 469.518 682.013 470.639H685.212V467.918H686.279V480.1H685.212V475.383H682.095C681.583 476.613 680.646 477.324 679.47 477.324C677.679 477.324 676.421 475.684 676.421 473.1C676.421 470.516 677.679 468.875 679.47 468.861ZM679.47 469.818C678.267 469.832 677.447 471.117 677.447 473.1C677.447 475.082 678.267 476.367 679.47 476.367C680.66 476.367 681.494 475.082 681.494 473.1C681.494 471.117 680.66 469.832 679.47 469.818ZM682.328 471.541C682.437 472.013 682.505 472.532 682.505 473.1C682.505 473.599 682.451 474.07 682.369 474.494H685.212V471.541H682.328ZM699.417 475.137V476.012H694.345V480.072H693.292V476.012H688.289V475.137H699.417ZM690.777 468.424V470.105H696.902V468.424H697.982V473.66H689.71V468.424H690.777ZM690.777 472.785H696.902V470.98H690.777V472.785Z" fill="white"/>
<rect x="67.9453" y="171.863" width="14" height="13" fill="#D9D9D9"/>
<rect x="67.9453" y="369.941" width="14" height="13" fill="#D9D9D9"/>
<rect x="652.336" y="358.648" width="14" height="13" fill="#D9D9D9"/>
<rect x="652.336" y="505.527" width="14" height="13" fill="#D9D9D9"/>
<path d="M71.1914 173.965H72.9004L75.4707 178.449H75.5801L78.1641 173.965H79.873L76.2773 179.98V183.863H74.7734V179.98L71.1914 173.965Z" fill="#3D72FF"/>
<path d="M71.1914 372.043H72.9004L75.4707 376.527H75.5801L78.1641 372.043H79.873L76.2773 378.059V381.941H74.7734V378.059L71.1914 372.043Z" fill="#3D72FF"/>
<path d="M655.582 360.75H657.291L659.861 365.234H659.971L662.555 360.75H664.264L660.668 366.766V370.648H659.164V366.766L655.582 360.75Z" fill="#3D72FF"/>
<path d="M655.582 507.629H657.291L659.861 512.113H659.971L662.555 507.629H664.264L660.668 513.645V517.527H659.164V513.645L655.582 507.629Z" fill="#3D72FF"/>
<path d="M190.289 142.18C190.289 144.389 192.08 146.18 194.289 146.18C196.498 146.18 198.289 144.389 198.289 142.18C198.289 139.971 196.498 138.18 194.289 138.18C192.08 138.18 190.289 139.971 190.289 142.18ZM150.289 142.18V142.93H194.289V142.18V141.43H150.289V142.18Z" fill="#3D72FF"/>
<path d="M190.117 338.957C190.117 341.166 191.908 342.957 194.117 342.957C196.326 342.957 198.117 341.166 198.117 338.957C198.117 336.748 196.326 334.957 194.117 334.957C191.908 334.957 190.117 336.748 190.117 338.957ZM150.117 338.957V339.707H194.117V338.957V338.207H150.117V338.957Z" fill="#3D72FF"/>
<path d="M774.062 327.664C774.062 329.873 775.853 331.664 778.062 331.664C780.272 331.664 782.062 329.873 782.062 327.664C782.062 325.455 780.272 323.664 778.062 323.664C775.853 323.664 774.062 325.455 774.062 327.664ZM734.062 327.664V328.414H778.062V327.664V326.914H734.062V327.664Z" fill="#3D72FF"/>
<path d="M774.062 474.547C774.062 476.756 775.853 478.547 778.062 478.547C780.272 478.547 782.062 476.756 782.062 474.547C782.062 472.338 780.272 470.547 778.062 470.547C775.853 470.547 774.062 472.338 774.062 474.547ZM734.062 474.547V475.297H778.062V474.547V473.797H734.062V474.547Z" fill="#3D72FF"/>
<path d="M774.062 259.914C774.062 262.123 775.853 263.914 778.062 263.914C780.272 263.914 782.062 262.123 782.062 259.914C782.062 257.705 780.272 255.914 778.062 255.914C775.853 255.914 774.062 257.705 774.062 259.914ZM734.062 259.914V260.664H778.062V259.914V259.164H734.062V259.914Z" fill="#3D72FF"/>
<path d="M968.977 329.164C968.977 331.373 970.767 333.164 972.977 333.164C975.186 333.164 976.977 331.373 976.977 329.164C976.977 326.955 975.186 325.164 972.977 325.164C970.767 325.164 968.977 326.955 968.977 329.164ZM928.977 329.164V329.914H972.977V329.164V328.414H928.977V329.164Z" fill="#3D72FF"/>
<path d="M968.977 394.727C968.977 396.936 970.767 398.727 972.977 398.727C975.186 398.727 976.977 396.936 976.977 394.727C976.977 392.517 975.186 390.727 972.977 390.727C970.767 390.727 968.977 392.517 968.977 394.727ZM928.977 394.727V395.477H972.977V394.727V393.977H928.977V394.727Z" fill="#3D72FF"/>
<path d="M1128.88 329.246C1128.88 331.455 1130.67 333.246 1132.88 333.246C1135.09 333.246 1136.88 331.455 1136.88 329.246C1136.88 327.037 1135.09 325.246 1132.88 325.246C1130.67 325.246 1128.88 327.037 1128.88 329.246ZM1088.88 329.246V329.996H1132.88V329.246V328.496H1088.88V329.246Z" fill="#3D72FF"/>
<path d="M1163.89 395.227C1163.89 397.436 1165.68 399.227 1167.89 399.227C1170.1 399.227 1171.89 397.436 1171.89 395.227C1171.89 393.017 1170.1 391.227 1167.89 391.227C1165.68 391.227 1163.89 393.017 1163.89 395.227ZM1123.89 395.227V395.977H1167.89V395.227V394.477H1123.89V395.227Z" fill="#3D72FF"/>
<path d="M190.906 468.098C190.906 470.307 192.697 472.098 194.906 472.098C197.115 472.098 198.906 470.307 198.906 468.098C198.906 465.889 197.115 464.098 194.906 464.098C192.697 464.098 190.906 465.889 190.906 468.098ZM150.906 468.098V468.848H194.906V468.098V467.348H150.906V468.098Z" fill="#3D72FF"/>
<path d="M351.461 468.098C351.461 470.307 353.252 472.098 355.461 472.098C357.67 472.098 359.461 470.307 359.461 468.098C359.461 465.889 357.67 464.098 355.461 464.098C353.252 464.098 351.461 465.889 351.461 468.098ZM311.461 468.098V468.848H355.461V468.098V467.348H311.461V468.098Z" fill="#3D72FF"/>
<path d="M932.969 259.926C932.969 262.135 934.76 263.926 936.969 263.926C939.178 263.926 940.969 262.135 940.969 259.926C940.969 257.717 939.178 255.926 936.969 255.926C934.76 255.926 932.969 257.717 932.969 259.926ZM892.969 259.926V260.676H936.969V259.926V259.176H892.969V259.926Z" fill="#3D72FF"/>
<path d="M774.562 396.711C774.562 398.92 776.353 400.711 778.562 400.711C780.772 400.711 782.562 398.92 782.562 396.711C782.562 394.502 780.772 392.711 778.562 392.711C776.353 392.711 774.562 394.502 774.562 396.711ZM756.562 396.711H755.812V397.461H756.562V396.711ZM756.562 329.711H755.812V396.711H756.562H757.312V329.711H756.562ZM756.562 396.711V397.461H778.562V396.711V395.961H756.562V396.711Z" fill="#3D72FF"/>
<rect x="165.289" y="135.18" width="14" height="13" fill="#D9D9D9"/>
<rect x="165.117" y="333.957" width="14" height="13" fill="#D9D9D9"/>
<rect x="749.062" y="322.664" width="14" height="13" fill="#D9D9D9"/>
<rect x="749.062" y="469.547" width="14" height="13" fill="#D9D9D9"/>
<path d="M177.285 137.281V147.18H175.904L170.887 139.947H170.805V147.18H169.301V137.281H170.695L175.713 144.527H175.809V137.281H177.285Z" fill="#3D72FF"/>
<path d="M177.113 336.059V345.957H175.732L170.715 338.725H170.633V345.957H169.129V336.059H170.523L175.541 343.305H175.637V336.059H177.113Z" fill="#3D72FF"/>
<path d="M761.059 324.766V334.664H759.678L754.66 327.432H754.578V334.664H753.074V324.766H754.469L759.486 332.012H759.582V324.766H761.059Z" fill="#3D72FF"/>
<path d="M761.059 471.648V481.547H759.678L754.66 474.314H754.578V481.547H753.074V471.648H754.469L759.486 478.895H759.582V471.648H761.059Z" fill="#3D72FF"/>
<path d="M33.5566 79.6133H31.5L36.0703 66.8867H38.3027L42.8906 79.6133H40.834L39.6738 76.2559H34.7168L33.5566 79.6133ZM35.2793 74.6387H39.1113L37.2305 69.207H37.1426L35.2793 74.6387ZM46.4414 66.8867V79.6133H44.5078V66.8867H46.4414ZM65.4961 66.8691V68.5566C65.4785 70.543 65.4785 72.6172 64.916 75.623L63.2812 75.4473C63.8262 72.5996 63.8262 70.4902 63.8262 68.5566V68.2227H54.1758V66.8691H65.4961ZM67.0605 77.5918V78.9805H52.6992V77.5918H56.0918V72.4941H57.7617V77.5918H60.0293V72.4941H61.6641V77.5918H67.0605ZM76.3242 66.7461C76.3066 68.8379 78.873 70.8066 81.9668 71.2109L81.3164 72.582C78.7412 72.1689 76.4736 70.833 75.4629 68.9785C74.4258 70.8418 72.167 72.1689 69.6094 72.582L68.9414 71.2109C72.0352 70.8066 74.5664 68.8555 74.584 66.7461V65.8848H76.3242V66.7461ZM82.6172 74.1289V75.5H76.2188V81.1074H74.584V75.5H68.2559V74.1289H82.6172ZM101.76 65.3574V81.1074H100.16V72.8984H98.209V80.334H96.627V65.6562H98.209V71.5273H100.16V65.3574H101.76ZM94.8516 67.1328V76.959H88.7344V67.1328H94.8516ZM90.3164 68.4512V75.623H93.2871V68.4512H90.3164ZM109.617 68.627C109.617 70.5078 111.164 72.2656 113.607 72.9336L112.816 74.2344C110.971 73.7246 109.564 72.582 108.826 71.0879C108.123 72.7314 106.734 74.0234 104.836 74.6211L104.01 73.3027C106.436 72.5645 107.947 70.666 107.947 68.627V68.5391H104.449V67.2031H107.947V65.3574H109.635V67.2031H113.098V68.5391H109.617V68.627ZM116.824 65.375V74.9727H115.154V65.375H116.824ZM111.533 75.2715C114.838 75.2715 116.877 76.3438 116.877 78.1719C116.877 80.0176 114.838 81.0898 111.533 81.0723C108.211 81.0898 106.172 80.0176 106.172 78.1719C106.172 76.3438 108.211 75.2715 111.533 75.2715ZM111.533 76.5898C109.195 76.5898 107.859 77.1699 107.859 78.1719C107.859 79.209 109.195 79.7891 111.533 79.7891C113.871 79.7891 115.225 79.209 115.225 78.1719C115.225 77.1699 113.871 76.5898 111.533 76.5898Z" fill="white"/>
<path d="M627.384 79.6133H625.327L629.897 66.8867H632.13L636.718 79.6133H634.661L633.501 76.2559H628.544L627.384 79.6133ZM629.106 74.6387H632.938L631.058 69.207H630.97L629.106 74.6387ZM640.269 66.8867V79.6133H638.335V66.8867H640.269ZM659.569 65.3574V73.4961H657.917V65.3574H659.569ZM659.587 74.2168V78.1191H650.903V79.6484H660.114V80.9492H649.286V76.9062H657.935V75.5H649.233V74.2168H659.587ZM652.362 67.5547C652.362 69.4707 653.874 71.2461 656.317 71.9492L655.509 73.2324C653.654 72.6787 652.257 71.4922 651.554 69.9805C650.851 71.6504 649.418 72.96 647.476 73.5664L646.702 72.248C649.146 71.4922 650.657 69.5938 650.675 67.5547H647.142V66.2012H655.825V67.5547H652.362ZM676.479 73.3203V74.6738H670.222V77.7324H668.569V74.6738H662.065V73.3203H676.479ZM674.616 66.0957V71.6855H663.911V66.0957H674.616ZM665.546 67.4141V70.3672H672.964V67.4141H665.546ZM674.88 79.4199V80.7734H663.858V76.2383H665.528V79.4199H674.88ZM690.015 65.3574V69.4355H692.3V70.8594H690.015V74.8496H688.345V65.3574H690.015ZM690.015 75.6758V80.9141H679.96V75.6758H690.015ZM681.595 76.9941V79.5605H688.362V76.9941H681.595ZM687.044 66.957V68.293H677.657V66.957H681.524V65.2344H683.194V66.957H687.044ZM682.351 68.9785C684.618 68.9785 686.165 70.1035 686.165 71.791C686.165 73.4961 684.618 74.6035 682.351 74.6211C680.048 74.6035 678.519 73.4961 678.519 71.791C678.519 70.1035 680.048 68.9785 682.351 68.9785ZM682.351 70.2617C681.015 70.2441 680.118 70.8418 680.136 71.791C680.118 72.7754 681.015 73.3555 682.351 73.3555C683.687 73.3555 684.583 72.7754 684.601 71.791C684.583 70.8418 683.687 70.2441 682.351 70.2617Z" fill="white"/>
<path d="M631.285 617.971C631.285 620.414 632.428 622.963 634.625 624.105L633.676 625.354C632.155 624.545 631.092 623.042 630.529 621.258C629.958 623.156 628.903 624.8 627.383 625.688L626.398 624.457C628.561 623.191 629.703 620.502 629.721 617.971V617.391H626.803V616.002H629.721V613.717H631.285V616.002H634.15V617.391H631.285V617.971ZM640.18 613.154V628.904H638.58V620.818H636.699V628.131H635.117V613.453H636.699V619.412H638.58V613.154H640.18ZM650.604 614.297V615.633H644.715V617.373H650.164V618.691H644.715V620.484C647.87 620.502 649.707 620.449 651.834 620.08L652.01 621.434C649.725 621.803 647.773 621.855 644.328 621.855H643.027V614.297H650.604ZM655.191 613.172V622.857H653.521V613.172H655.191ZM649.918 623.068C653.223 623.068 655.279 624.141 655.279 625.969C655.279 627.814 653.223 628.887 649.918 628.869C646.578 628.887 644.557 627.814 644.557 625.969C644.557 624.141 646.578 623.068 649.918 623.068ZM649.918 624.387C647.562 624.387 646.227 624.967 646.227 625.969C646.227 627.006 647.562 627.586 649.918 627.586C652.221 627.586 653.609 627.006 653.609 625.969C653.609 624.967 652.221 624.387 649.918 624.387ZM676.461 620.555V621.926H662.082V620.555H676.461ZM674.791 617.83V619.184H663.875V613.717H674.686V615.088H665.527V617.83H674.791ZM669.254 623.156C672.646 623.156 674.686 624.193 674.686 626.021C674.686 627.85 672.646 628.887 669.254 628.869C665.844 628.887 663.787 627.85 663.787 626.021C663.787 624.193 665.844 623.156 669.254 623.156ZM669.254 624.439C666.846 624.457 665.475 625.02 665.475 626.021C665.475 627.023 666.846 627.586 669.254 627.586C671.627 627.586 673.016 627.023 673.016 626.021C673.016 625.02 671.627 624.457 669.254 624.439ZM692.035 621.75V623.104H677.621V621.75H684.002V620.256H679.467V616.248H688.555V614.842H679.432V613.523H690.225V617.479H681.119V618.955H690.541V620.256H685.654V621.75H692.035ZM690.312 624.211V628.781H688.625V625.547H679.238V624.211H690.312Z" fill="white"/>
<path d="M47.4258 529.611C47.4258 532.055 48.5684 534.604 50.7656 535.746L49.8164 536.994C48.2959 536.186 47.2324 534.683 46.6699 532.898C46.0986 534.797 45.0439 536.44 43.5234 537.328L42.5391 536.098C44.7012 534.832 45.8438 532.143 45.8613 529.611V529.031H42.9434V527.643H45.8613V525.357H47.4258V527.643H50.291V529.031H47.4258V529.611ZM56.3203 524.795V540.545H54.7207V532.459H52.8398V539.771H51.2578V525.094H52.8398V531.053H54.7207V524.795H56.3203ZM66.7441 525.938V527.273H60.8555V529.014H66.3047V530.332H60.8555V532.125C64.0107 532.143 65.8477 532.09 67.9746 531.721L68.1504 533.074C65.8652 533.443 63.9141 533.496 60.4688 533.496H59.168V525.938H66.7441ZM71.332 524.812V534.498H69.6621V524.812H71.332ZM66.0586 534.709C69.3633 534.709 71.4199 535.781 71.4199 537.609C71.4199 539.455 69.3633 540.527 66.0586 540.51C62.7188 540.527 60.6973 539.455 60.6973 537.609C60.6973 535.781 62.7188 534.709 66.0586 534.709ZM66.0586 536.027C63.7031 536.027 62.3672 536.607 62.3672 537.609C62.3672 538.646 63.7031 539.227 66.0586 539.227C68.3613 539.227 69.75 538.646 69.75 537.609C69.75 536.607 68.3613 536.027 66.0586 536.027ZM90.4922 524.795V531.07H92.9355V532.459H90.4922V540.527H88.8223V524.795H90.4922ZM86.3789 526.447C86.3613 531 84.3574 535.061 79.1719 537.627L78.2402 536.326C82.1865 534.357 84.3311 531.51 84.6738 527.836H79.0312V526.447H86.3789ZM106.506 529.049V530.402H95.6953V525.076H97.3477V529.049H106.506ZM108.158 532.072V533.443H93.7793V532.072H108.158ZM100.951 534.727C104.344 534.727 106.383 535.764 106.383 537.592C106.383 539.438 104.344 540.475 100.951 540.475C97.541 540.475 95.4844 539.438 95.4844 537.592C95.4844 535.764 97.541 534.727 100.951 534.727ZM100.951 536.027C98.543 536.045 97.1719 536.572 97.1719 537.592C97.1719 538.594 98.543 539.191 100.951 539.191C103.324 539.191 104.713 538.594 104.713 537.592C104.713 536.572 103.324 536.045 100.951 536.027Z" fill="white"/>
</svg>
