<svg width="52" height="52" viewBox="0 0 52 52" fill="none" xmlns="http://www.w3.org/2000/svg">
<path fill-rule="evenodd" clip-rule="evenodd" d="M26.0032 0C31.2184 0 35.446 4.37072 35.446 9.76227C35.446 15.1538 31.2184 19.5245 26.0032 19.5245C20.788 19.5245 16.5604 15.1538 16.5604 9.76227C16.5604 4.37072 20.788 0 26.0032 0ZM10.2279 50.1348C6.00883 46.9659 5.07353 40.8608 8.1389 36.4989C11.2043 32.137 17.1094 31.1701 21.3286 34.3393C25.5477 37.5082 26.483 43.6133 23.4177 47.9752C20.3523 52.3371 14.447 53.3039 10.2279 50.1348ZM43.8981 36.4989C46.9635 40.8608 46.0282 46.9659 41.8091 50.1348C37.59 53.3039 31.6847 52.3371 28.6195 47.9752C25.554 43.6133 26.4893 37.5082 30.7084 34.3393C34.9275 31.1701 40.8328 32.137 43.8981 36.4989ZM0.464713 19.135C2.07627 14.0074 7.40344 11.2012 12.3633 12.8673C17.3232 14.5334 20.0375 20.0409 18.426 25.1685C16.8144 30.2961 11.4872 33.1023 6.52735 31.4362C1.56748 29.7701 -1.14684 24.2628 0.464713 19.135ZM39.6367 12.8673C44.5967 11.2012 49.9237 14.0074 51.5353 19.135C53.1468 24.2628 50.4325 29.7701 45.4727 31.4362C40.5127 33.1023 35.1857 30.2961 33.5741 25.1685C31.9626 20.0409 34.6769 14.5334 39.6367 12.8673Z" fill="#2F80ED"/>
</svg>
