<svg width="83" height="317" viewBox="0 0 83 317" fill="none" xmlns="http://www.w3.org/2000/svg">
<path d="M41.8008 275L47.5743 265L36.0273 265L41.8008 275ZM41.8008 0L40.8008 -4.37114e-08L40.8008 2.98913L41.8008 2.98913L42.8008 2.98913L42.8008 4.37114e-08L41.8008 0ZM41.8008 8.96739L40.8008 8.96739L40.8008 14.9457L41.8008 14.9457L42.8008 14.9457L42.8008 8.96739L41.8008 8.96739ZM41.8008 20.9239L40.8008 20.9239L40.8008 26.9022L41.8008 26.9022L42.8008 26.9022L42.8008 20.9239L41.8008 20.9239ZM41.8008 32.8804L40.8008 32.8804L40.8008 38.8587L41.8008 38.8587L42.8008 38.8587L42.8008 32.8804L41.8008 32.8804ZM41.8008 44.837L40.8008 44.837L40.8008 50.8152L41.8008 50.8152L42.8008 50.8152L42.8008 44.837L41.8008 44.837ZM41.8008 56.7935L40.8008 56.7935L40.8008 62.7717L41.8008 62.7717L42.8008 62.7717L42.8008 56.7935L41.8008 56.7935ZM41.8008 68.75L40.8008 68.75L40.8008 74.7283L41.8008 74.7283L42.8008 74.7283L42.8008 68.75L41.8008 68.75ZM41.8008 80.7065L40.8008 80.7065L40.8008 86.6848L41.8008 86.6848L42.8008 86.6848L42.8008 80.7065L41.8008 80.7065ZM41.8008 92.6631L40.8008 92.6631L40.8008 98.6413L41.8008 98.6413L42.8008 98.6413L42.8008 92.6631L41.8008 92.6631ZM41.8008 104.62L40.8008 104.62L40.8008 110.598L41.8008 110.598L42.8008 110.598L42.8008 104.62L41.8008 104.62ZM41.8008 116.576L40.8008 116.576L40.8008 122.554L41.8008 122.554L42.8008 122.554L42.8008 116.576L41.8008 116.576ZM41.8008 128.533L40.8008 128.533L40.8008 134.511L41.8008 134.511L42.8008 134.511L42.8008 128.533L41.8008 128.533ZM41.8008 140.489L40.8008 140.489L40.8008 146.467L41.8008 146.467L42.8008 146.467L42.8008 140.489L41.8008 140.489ZM41.8008 152.446L40.8008 152.446L40.8008 158.424L41.8008 158.424L42.8008 158.424L42.8008 152.446L41.8008 152.446ZM41.8008 164.402L40.8008 164.402L40.8008 170.38L41.8008 170.38L42.8008 170.38L42.8008 164.402L41.8008 164.402ZM41.8008 176.359L40.8008 176.359L40.8008 182.337L41.8008 182.337L42.8008 182.337L42.8008 176.359L41.8008 176.359ZM41.8008 188.315L40.8008 188.315L40.8008 194.293L41.8008 194.293L42.8008 194.293L42.8008 188.315L41.8008 188.315ZM41.8008 200.272L40.8008 200.272L40.8008 206.25L41.8008 206.25L42.8008 206.25L42.8008 200.272L41.8008 200.272ZM41.8008 212.228L40.8008 212.228L40.8008 218.206L41.8008 218.206L42.8008 218.206L42.8008 212.228L41.8008 212.228ZM41.8008 224.185L40.8008 224.185L40.8008 230.163L41.8008 230.163L42.8008 230.163L42.8008 224.185L41.8008 224.185ZM41.8008 236.141L40.8008 236.141L40.8008 242.12L41.8008 242.12L42.8008 242.12L42.8008 236.141L41.8008 236.141ZM41.8008 248.098L40.8008 248.098L40.8008 254.076L41.8008 254.076L42.8008 254.076L42.8008 248.098L41.8008 248.098ZM41.8008 260.054L40.8008 260.054L40.8008 266.033L41.8008 266.033L42.8008 266.033L42.8008 260.054L41.8008 260.054ZM41.8008 275L47.5743 265L36.0273 265L41.8008 275ZM41.8008 0L40.8008 -4.37114e-08L40.8008 2.98913L41.8008 2.98913L42.8008 2.98913L42.8008 4.37114e-08L41.8008 0ZM41.8008 8.96739L40.8008 8.96739L40.8008 14.9457L41.8008 14.9457L42.8008 14.9457L42.8008 8.96739L41.8008 8.96739ZM41.8008 20.9239L40.8008 20.9239L40.8008 26.9022L41.8008 26.9022L42.8008 26.9022L42.8008 20.9239L41.8008 20.9239ZM41.8008 32.8804L40.8008 32.8804L40.8008 38.8587L41.8008 38.8587L42.8008 38.8587L42.8008 32.8804L41.8008 32.8804ZM41.8008 44.837L40.8008 44.837L40.8008 50.8152L41.8008 50.8152L42.8008 50.8152L42.8008 44.837L41.8008 44.837ZM41.8008 56.7935L40.8008 56.7935L40.8008 62.7717L41.8008 62.7717L42.8008 62.7717L42.8008 56.7935L41.8008 56.7935ZM41.8008 68.75L40.8008 68.75L40.8008 74.7283L41.8008 74.7283L42.8008 74.7283L42.8008 68.75L41.8008 68.75ZM41.8008 80.7065L40.8008 80.7065L40.8008 86.6848L41.8008 86.6848L42.8008 86.6848L42.8008 80.7065L41.8008 80.7065ZM41.8008 92.6631L40.8008 92.6631L40.8008 98.6413L41.8008 98.6413L42.8008 98.6413L42.8008 92.6631L41.8008 92.6631ZM41.8008 104.62L40.8008 104.62L40.8008 110.598L41.8008 110.598L42.8008 110.598L42.8008 104.62L41.8008 104.62ZM41.8008 116.576L40.8008 116.576L40.8008 122.554L41.8008 122.554L42.8008 122.554L42.8008 116.576L41.8008 116.576ZM41.8008 128.533L40.8008 128.533L40.8008 134.511L41.8008 134.511L42.8008 134.511L42.8008 128.533L41.8008 128.533ZM41.8008 140.489L40.8008 140.489L40.8008 146.467L41.8008 146.467L42.8008 146.467L42.8008 140.489L41.8008 140.489ZM41.8008 152.446L40.8008 152.446L40.8008 158.424L41.8008 158.424L42.8008 158.424L42.8008 152.446L41.8008 152.446ZM41.8008 164.402L40.8008 164.402L40.8008 170.38L41.8008 170.38L42.8008 170.38L42.8008 164.402L41.8008 164.402ZM41.8008 176.359L40.8008 176.359L40.8008 182.337L41.8008 182.337L42.8008 182.337L42.8008 176.359L41.8008 176.359ZM41.8008 188.315L40.8008 188.315L40.8008 194.293L41.8008 194.293L42.8008 194.293L42.8008 188.315L41.8008 188.315ZM41.8008 200.272L40.8008 200.272L40.8008 206.25L41.8008 206.25L42.8008 206.25L42.8008 200.272L41.8008 200.272ZM41.8008 212.228L40.8008 212.228L40.8008 218.206L41.8008 218.206L42.8008 218.206L42.8008 212.228L41.8008 212.228ZM41.8008 224.185L40.8008 224.185L40.8008 230.163L41.8008 230.163L42.8008 230.163L42.8008 224.185L41.8008 224.185ZM41.8008 236.141L40.8008 236.141L40.8008 242.12L41.8008 242.12L42.8008 242.12L42.8008 236.141L41.8008 236.141ZM41.8008 248.098L40.8008 248.098L40.8008 254.076L41.8008 254.076L42.8008 254.076L42.8008 248.098L41.8008 248.098ZM41.8008 260.054L40.8008 260.054L40.8008 266.033L41.8008 266.033L42.8008 266.033L42.8008 260.054L41.8008 260.054Z" fill="white"/>
<g filter="url(#filter0_f_3462_4148)">
<path d="M65.3008 275C65.3008 288.255 54.5556 299 41.3008 299C28.0459 299 17.3008 288.255 17.3008 275C17.3008 261.745 28.0459 251 41.3008 251C54.5556 251 65.3008 261.745 65.3008 275Z" fill="#344A84"/>
</g>
<path d="M52.3008 275C52.3008 281.075 47.3759 286 41.3008 286C35.2256 286 30.3008 281.075 30.3008 275C30.3008 268.925 35.2256 264 41.3008 264C47.3759 264 52.3008 268.925 52.3008 275Z" fill="#3D72FF"/>
<circle cx="41.3008" cy="275" r="6" fill="white"/>
<defs>
<filter id="filter0_f_3462_4148" x="0.000782013" y="233.7" width="82.6" height="82.6" filterUnits="userSpaceOnUse" color-interpolation-filters="sRGB">
<feFlood flood-opacity="0" result="BackgroundImageFix"/>
<feBlend mode="normal" in="SourceGraphic" in2="BackgroundImageFix" result="shape"/>
<feGaussianBlur stdDeviation="8.65" result="effect1_foregroundBlur_3462_4148"/>
</filter>
</defs>
</svg>
