<svg width="402" height="148" viewBox="0 0 402 148" fill="none" xmlns="http://www.w3.org/2000/svg">
<g clip-path="url(#clip0_3457_3955)">
<rect width="402" height="148" rx="16" fill="black"/>
<g filter="url(#filter0_d_3457_3955)">
<path d="M0 32.0264C0 23.1898 7.16344 16.0264 16 16.0264H386C394.837 16.0264 402 23.1898 402 32.0264V233H0V32.0264Z" fill="white"/>
</g>
<path d="M24.2188 42.1641V45.2109H27.125V42.1641H29.8906V52.5H21.3828V42.1641H24.2188ZM24.2188 50.1328H27.125V47.4844H24.2188V50.1328ZM38.9609 40.8516V53.6953H36.125V48.4688H34.3438V53.5781H31.5547V41.2266H34.3438V46.0547H36.125V40.8516H38.9609ZM38.9609 54.6562V62.1562H35.9844V57.0469H24.2188V54.6562H38.9609ZM60.875 52.6875V55.1016H56.3047V62.1562H53.2578V55.1016H48.8984V62.1562H45.8281V55.1016H41.3516V52.6875H60.875ZM51.0547 41.5312C55.625 41.5312 58.8359 43.4297 58.8359 46.3594C58.8359 49.2422 55.625 51.0469 51.0547 51.0469C46.4844 51.0469 43.2969 49.2422 43.3203 46.3594C43.2969 43.4297 46.4844 41.5312 51.0547 41.5312ZM51.0547 43.9219C48.1953 43.9219 46.3672 44.7891 46.3906 46.3594C46.3672 47.8594 48.1953 48.7031 51.0547 48.7031C53.9375 48.7031 55.7422 47.8594 55.7422 46.3594C55.7422 44.7891 53.9375 43.9219 51.0547 43.9219ZM80 40.8281V62.2031H77.0234V40.8281H80ZM73.3906 42.6094V50.8359H66.3594V54.75C69.6055 54.7383 72.3711 54.5508 75.5 54.0469L75.7578 56.4609C72.2422 57.0703 69.0781 57.2109 65.1875 57.2109H63.2656V48.4688H70.3438V45.0234H63.2422V42.6094H73.3906Z" fill="black"/>
<path d="M29.4102 71.4961V81.9961H28.3555V71.4961H29.4102ZM27.2656 71.7656V81.4805H26.2109V77.9062H24.418V76.9922H26.2109V75.2812H24.5938C24.084 77.0449 22.9648 78.5742 20.9844 79.7578L20.3281 78.9609C22.5547 77.6367 23.627 75.873 23.8203 73.7109H20.8438V72.7969H24.9219C24.9219 73.3359 24.8809 73.8574 24.793 74.3672H26.2109V71.7656H27.2656ZM39.4883 71.5078V79.4648H38.375V78.457H36.2656V77.6719H38.375V71.5078H39.4883ZM39.7461 80.8711V81.7734H32.1641V78.6914H33.2656V80.8711H39.7461ZM30.7109 76.3008C32.6562 76.2891 35.2695 76.2656 37.5078 75.9844L37.5781 76.7812C36.6816 76.9277 35.7383 77.0273 34.8125 77.0859V79.1367H33.6992V77.1445C32.6797 77.1914 31.7012 77.1973 30.8516 77.1914L30.7109 76.3008ZM34.1445 71.9062C35.6797 71.9062 36.7461 72.6445 36.7461 73.7578C36.7461 74.8711 35.6797 75.5859 34.1445 75.5859C32.5859 75.5859 31.5312 74.8711 31.5312 73.7578C31.5312 72.6445 32.5859 71.9062 34.1445 71.9062ZM34.1445 72.7383C33.207 72.7266 32.5742 73.125 32.5859 73.7578C32.5742 74.3789 33.207 74.7656 34.1445 74.7656C35.0469 74.7656 35.6797 74.3789 35.6914 73.7578C35.6797 73.125 35.0469 72.7266 34.1445 72.7383ZM50.1641 71.4961V81.9961H49.0977V71.4961H50.1641ZM48.0547 71.6953V81.4805H47V78.0938H45.4766C45.1016 79.1367 44.4043 79.7402 43.5078 79.7344C42.1367 79.7461 41.2461 78.3047 41.2461 76.0312C41.2461 73.7578 42.1367 72.3281 43.5078 72.3398C44.4043 72.334 45.0957 72.9316 45.4766 73.9688H47V71.6953H48.0547ZM43.5078 73.3828C42.7344 73.3828 42.2656 74.3555 42.2656 76.0312C42.2656 77.707 42.7344 78.6797 43.5078 78.6797C44.2812 78.6797 44.7734 77.707 44.7734 76.0312C44.7734 74.3555 44.2812 73.3828 43.5078 73.3828ZM45.7109 74.8711C45.7637 75.2285 45.793 75.6152 45.793 76.0312C45.793 76.4414 45.7637 76.8281 45.7109 77.1797H47V74.8711H45.7109ZM56.8555 71.8945C56.8555 73.1016 58.5195 74.1094 60.5703 74.3438L60.1836 75.1875C58.4609 74.9824 56.9551 74.2559 56.2812 73.1836C55.6016 74.2559 54.0957 74.9824 52.3906 75.1875L52.0039 74.3438C54.0547 74.1094 55.7188 73.1016 55.7188 71.8945V71.543H56.8555V71.8945ZM61.0742 75.7969V76.6875H56.832V77.625H59.8672V80.1094H53.75V81.0352H60.1602V81.8906H52.6602V79.3008H58.7656V78.4805H52.6484V77.625H55.7188V76.6875H51.5V75.7969H61.0742ZM70.8828 71.4961V81.9961H69.8164V76.5703H68.457V81.457H67.4375V71.707H68.457V75.6562H69.8164V71.4961H70.8828ZM66.1602 72.7617V73.6641H63.3359V78.5273C64.625 78.5156 65.5977 78.457 66.7227 78.2461L66.8047 79.1602C65.5391 79.418 64.4609 79.4648 62.9258 79.4766H62.2227V72.7617H66.1602ZM78.5117 72.5625V73.4531H72.2539V72.5625H74.832V71.4492H75.9453V72.5625H78.5117ZM75.3828 73.9219C76.8945 73.9336 77.9258 74.6836 77.9258 75.832C77.9258 76.9805 76.8945 77.7422 75.3828 77.7422C73.8594 77.7422 72.8281 76.9805 72.8281 75.832C72.8281 74.6836 73.8594 73.9336 75.3828 73.9219ZM75.3828 74.7773C74.4922 74.7773 73.8945 75.1875 73.9062 75.832C73.8945 76.4883 74.4922 76.875 75.3828 76.875C76.2734 76.875 76.8711 76.4883 76.8828 75.832C76.8711 75.1875 76.2734 74.7773 75.3828 74.7773ZM80.4922 71.4961V74.3438H82.0156V75.2695H80.4922V78.0586H79.3789V71.4961H80.4922ZM80.4922 78.5977V81.9961H79.3789V79.5H73.5547V78.5977H80.4922ZM91.1445 72.5039V73.6289C91.1328 74.9531 91.1328 76.3359 90.7578 78.3398L89.668 78.2227C90.0312 76.3242 90.0312 74.918 90.0312 73.6289V73.4062H83.5977V72.5039H91.1445ZM92.1875 79.6523V80.5781H82.6133V79.6523H84.875V76.2539H85.9883V79.6523H87.5V76.2539H88.5898V79.6523H92.1875ZM104.609 71.4961V82.0195H103.496V71.4961H104.609ZM101.609 72.4688V73.3945H97.707V78.4922C99.6992 78.4863 100.971 78.4336 102.453 78.1641L102.57 79.0898C101 79.3711 99.6289 79.4414 97.4492 79.4414H96.582V72.4688H101.609ZM110.152 74.5898C110.152 76.3477 111.301 78.1641 112.918 78.8555L112.309 79.7227C111.072 79.1777 110.088 78.0234 109.602 76.6172C109.115 78.1172 108.125 79.3945 106.906 79.9922L106.262 79.1133C107.844 78.375 109.016 76.3945 109.027 74.5898V73.4766H106.625V72.5508H112.543V73.4766H110.152V74.5898ZM114.98 71.4961V81.9961H113.867V71.4961H114.98ZM121.988 72.1172V73.0195H118.285V73.9805H121.684V74.8242H118.285V75.8906C120.084 75.8848 121.174 75.8555 122.48 75.6445L122.574 76.5352C121.156 76.7578 119.984 76.7812 117.969 76.7812H117.184V72.1172H121.988ZM125.398 71.4961V77.1328H124.297V74.7422H122.387V73.8516H124.297V71.4961H125.398ZM125.398 77.5781V80.1211H119.668V81.0234H125.773V81.8906H118.555V79.2891H124.297V78.4453H118.531V77.5781H125.398ZM132.535 72.5039V79.4062H127.613V72.5039H132.535ZM128.715 73.3828V78.5039H131.457V73.3828H128.715ZM135.723 71.4961V82.0195H134.609V71.4961H135.723ZM146.094 71.4961V82.0195H144.98V71.4961H146.094ZM143.094 72.4688V73.3945H139.191V78.4922C141.184 78.4863 142.455 78.4336 143.938 78.1641L144.055 79.0898C142.484 79.3711 141.113 79.4414 138.934 79.4414H138.066V72.4688H143.094ZM150.617 72.2812C152.041 72.2812 153.084 73.4883 153.254 75.4336H155.422V71.4961H156.523V82.0195H155.422V76.3359H153.266C153.143 78.3809 152.076 79.6523 150.617 79.6523C149.047 79.6523 147.945 78.2227 147.957 75.9609C147.945 73.7109 149.047 72.2812 150.617 72.2812ZM150.617 73.2773C149.668 73.2773 149.012 74.3086 149.012 75.9609C149.012 77.625 149.668 78.6562 150.617 78.6562C151.566 78.6562 152.223 77.625 152.223 75.9609C152.223 74.3086 151.566 73.2773 150.617 73.2773ZM166.836 71.4961V82.0195H165.723V71.4961H166.836ZM163.836 72.4688V73.3945H159.934V78.4922C161.926 78.4863 163.197 78.4336 164.68 78.1641L164.797 79.0898C163.227 79.3711 161.855 79.4414 159.676 79.4414H158.809V72.4688H163.836ZM172.168 74.5898C172.168 76.2539 173.258 78.1055 174.852 78.8555L174.219 79.7227C173.041 79.1543 172.109 77.9707 171.641 76.5938C171.154 78.0996 170.17 79.3945 168.969 79.9922L168.312 79.1133C169.906 78.3516 171.066 76.3711 171.066 74.5898V73.4766H168.699V72.5508H174.453V73.4766H172.168V74.5898ZM176.691 71.4961V75.6562H178.379V76.5938H176.691V81.9961H175.578V71.4961H176.691ZM187.59 71.5078V79.1367H186.477V71.5078H187.59ZM187.906 80.8711V81.7734H180.723V78.3633H181.848V80.8711H187.906ZM181.895 72.2109C183.477 72.2109 184.684 73.2891 184.684 74.8125C184.684 76.3594 183.477 77.4258 181.895 77.4258C180.312 77.4258 179.094 76.3594 179.094 74.8125C179.094 73.2891 180.312 72.2109 181.895 72.2109ZM181.895 73.1836C180.91 73.1836 180.184 73.8516 180.184 74.8125C180.184 75.7969 180.91 76.4531 181.895 76.4531C182.855 76.4531 183.594 75.7969 183.594 74.8125C183.594 73.8516 182.855 73.1836 181.895 73.1836ZM195.102 72.6211V73.2656C195.102 74.1445 195.102 75.5039 194.797 77.3789L193.695 77.2969C193.959 75.6152 193.988 74.4023 194 73.5234H189.734V72.6211H195.102ZM192.406 75.6211V78.7617C193.525 78.7266 194.662 78.6504 195.711 78.5156L195.77 79.3477C193.578 79.6992 191.141 79.7461 189.277 79.7344L189.148 78.832C189.805 78.8262 190.537 78.8203 191.305 78.7969V75.6211H192.406ZM197.434 71.4961V75.832H199.039V76.7812H197.434V81.9961H196.309V71.4961H197.434Z" fill="#C5C5C5"/>
<path d="M28.918 97.5039V98.6289C28.9062 99.9531 28.9062 101.336 28.5312 103.34L27.4414 103.223C27.8047 101.324 27.8047 99.918 27.8047 98.6289V98.4062H21.3711V97.5039H28.918ZM29.9609 104.652V105.578H20.3867V104.652H22.6484V101.254H23.7617V104.652H25.2734V101.254H26.3633V104.652H29.9609ZM36.1367 97.4219C36.125 98.8164 37.8359 100.129 39.8984 100.398L39.4648 101.312C37.748 101.037 36.2363 100.146 35.5625 98.9102C34.8711 100.152 33.3652 101.037 31.6602 101.312L31.2148 100.398C33.2773 100.129 34.9648 98.8281 34.9766 97.4219V96.8477H36.1367V97.4219ZM40.332 102.344V103.258H36.0664V106.996H34.9766V103.258H30.7578V102.344H40.332ZM49.8242 96.4961V102.426H48.7227V96.4961H49.8242ZM42.8867 97.1055V100.785C44.5801 100.773 46.0684 100.65 47.6445 100.316L47.7969 101.242C46.0625 101.594 44.4805 101.723 42.6406 101.723H41.7734V97.1055H42.8867ZM49.8242 102.906V106.855H42.9453V102.906H49.8242ZM44.0352 103.785V105.965H48.7344V103.785H44.0352ZM62.6797 96.4961V99.3438H64.2031V100.281H62.6797V103.234H61.5664V96.4961H62.6797ZM59.3281 103.316C61.4727 103.316 62.7969 103.996 62.7969 105.156C62.7969 106.293 61.4727 106.984 59.3281 106.973C57.1602 106.984 55.8359 106.293 55.8477 105.156C55.8359 103.996 57.1602 103.316 59.3281 103.316ZM59.3281 104.172C57.8164 104.172 56.9375 104.512 56.9492 105.156C56.9375 105.766 57.8164 106.129 59.3281 106.129C60.8164 106.129 61.6953 105.766 61.6953 105.156C61.6953 104.512 60.8164 104.172 59.3281 104.172ZM60.6992 97.6211V98.5H54.4414V97.6211H57.0195V96.4141H58.1328V97.6211H60.6992ZM57.5703 98.9805C59.082 98.9805 60.1133 99.7305 60.1133 100.855C60.1133 101.98 59.082 102.719 57.5703 102.707C56.0352 102.719 55.0156 101.98 55.0156 100.855C55.0156 99.7305 56.0352 98.9805 57.5703 98.9805ZM57.5703 99.8125C56.6797 99.8125 56.082 100.211 56.0938 100.855C56.082 101.477 56.6797 101.863 57.5703 101.863C58.4609 101.863 59.0586 101.477 59.0703 100.855C59.0586 100.211 58.4609 99.8125 57.5703 99.8125ZM68.4219 98.1719C68.4219 99.5547 69.3828 100.832 70.9531 101.348L70.3555 102.227C69.207 101.822 68.3457 101.002 67.8945 99.9648C67.4316 101.143 66.541 102.062 65.3164 102.52L64.7188 101.629C66.3594 101.043 67.3086 99.6484 67.3203 98.0781V97.0469H68.4219V98.1719ZM73.0508 96.4961V99.1328H74.5742V100.07H73.0508V102.836H71.9375V96.4961H73.0508ZM69.6641 103.082C71.8203 103.082 73.1445 103.797 73.1445 105.027C73.1445 106.27 71.8203 106.984 69.6641 106.973C67.4844 106.984 66.1367 106.27 66.1367 105.027C66.1367 103.797 67.4844 103.082 69.6641 103.082ZM69.6641 103.961C68.1406 103.961 67.2383 104.359 67.25 105.027C67.2383 105.719 68.1406 106.094 69.6641 106.105C71.1758 106.094 72.0547 105.719 72.0547 105.027C72.0547 104.359 71.1758 103.961 69.6641 103.961ZM86.3516 96.4961V98.9688H87.875V99.8945H86.3516V102.426H85.2383V96.4961H86.3516ZM83.457 97.1523C83.4453 99.8477 81.6289 101.734 78.5 102.578L78.0547 101.688C80.5625 101.025 82.0449 99.707 82.25 98.0664H78.5469V97.1523H83.457ZM86.3516 102.871V106.855H79.625V102.871H86.3516ZM80.7383 103.797V105.965H85.25V103.797H80.7383ZM92.1172 99.168C92.1055 101.031 93.1836 102.93 94.7539 103.691L94.0625 104.582C92.9199 103.99 92.0352 102.812 91.5781 101.406C91.1035 102.906 90.1836 104.16 88.9883 104.781L88.2969 103.879C89.9141 103.105 91.0039 101.09 91.0039 99.168V97.375H92.1172V99.168ZM96.6523 96.4961V100.68H98.3398V101.629H96.6523V106.996H95.5391V96.4961H96.6523ZM107.094 96.4961V99.1328H108.617V100.07H107.094V102.613H105.98V96.4961H107.094ZM101.48 103.047V104.066H105.98V103.047H107.094V106.867H100.379V103.047H101.48ZM101.48 105.977H105.98V104.934H101.48V105.977ZM105.113 97.5273V98.418H98.8555V97.5273H101.434V96.4023H102.547V97.5273H105.113ZM101.984 98.8516C103.496 98.8516 104.527 99.5664 104.527 100.691C104.527 101.805 103.496 102.543 101.984 102.531C100.449 102.543 99.4297 101.805 99.4297 100.691C99.4297 99.5664 100.449 98.8516 101.984 98.8516ZM101.984 99.6836C101.094 99.6719 100.496 100.082 100.508 100.691C100.496 101.312 101.094 101.711 101.984 101.711C102.875 101.711 103.473 101.312 103.484 100.691C103.473 100.082 102.875 99.6719 101.984 99.6836ZM117.934 96.4961V106.996H116.82V96.4961H117.934ZM110.961 97.5156V103.363C112.49 103.352 114.102 103.229 115.789 102.883L115.941 103.82C114.078 104.195 112.391 104.324 110.738 104.324H109.859V97.5156H110.961ZM127.766 96.4961V100.562H129.453V101.477H127.766V107.02H126.652V96.4961H127.766ZM124.941 97.5039V98.4062H121.145V103.48C122.908 103.475 124.232 103.398 125.727 103.129L125.867 104.066C124.227 104.359 122.832 104.418 120.875 104.406H120.031V97.5039H124.941Z" fill="black"/>
<path d="M37.5352 122.496V121.93L40.7578 116.93H41.5977V121.881H42.5645V122.496H41.5977V124H40.9336V122.496H37.5352ZM38.3066 121.881H40.9336V117.857H40.8652L38.3066 121.832V121.881ZM44 124L47.3008 117.594V117.555H43.502V116.93H48.0332V117.584L44.7324 124H44ZM51.4707 116.93V124H50.7676V117.652H50.7285L49.0586 118.756V118.043L50.748 116.93H51.4707ZM55.6211 124.098C54.3809 124.098 53.4531 123.316 53.4238 122.223H54.0977C54.1367 122.945 54.7812 123.482 55.6211 123.482C56.6074 123.482 57.3203 122.74 57.3105 121.773C57.3105 120.758 56.5586 120.055 55.5723 120.045C54.9766 120.045 54.4883 120.24 54.2051 120.699H53.5117L54 116.93H57.6816V117.555H54.5859L54.2832 119.889H54.3418C54.6543 119.596 55.1621 119.42 55.6895 119.42C56.9883 119.42 57.9941 120.387 57.9941 121.764C57.9941 123.111 56.998 124.098 55.6211 124.098ZM62.8867 125.992V123.043H62.8379C62.623 123.502 62.1836 124.107 61.2168 124.107C59.918 124.107 59.0293 123.014 59.0293 121.363C59.0293 119.713 59.918 118.619 61.2266 118.619C62.2129 118.619 62.623 119.234 62.8379 119.684H62.9062V118.697H63.5605V125.992H62.8867ZM61.3047 123.512C62.3203 123.512 62.9062 122.613 62.9062 121.354C62.9062 120.104 62.3301 119.225 61.3047 119.225C60.2598 119.225 59.7031 120.152 59.7031 121.354C59.7031 122.564 60.2695 123.512 61.3047 123.512ZM66.168 124L64.5664 118.697H65.2695L66.5 123.004H66.5488L67.7695 118.697H68.4727L69.6934 122.994H69.7324L70.9629 118.697H71.666L70.0645 124H69.3906L68.1504 119.713H68.082L66.8516 124H66.168ZM74.6641 124.107C73.1699 124.107 72.2324 122.994 72.2324 121.383C72.2324 119.771 73.1895 118.619 74.5664 118.619C75.7188 118.619 76.832 119.439 76.832 121.236V121.549H72.8965C72.9258 122.745 73.6045 123.512 74.6641 123.512C75.3965 123.512 75.8262 123.131 76.0117 122.799H76.7246C76.4902 123.531 75.7383 124.107 74.6641 124.107ZM72.9062 120.973H76.1484C76.1484 119.977 75.5039 119.225 74.5762 119.225C73.6143 119.225 72.96 120.016 72.9062 120.973ZM81.4609 123.072C80.5039 123.072 79.8105 122.271 79.8105 121.012C79.8105 119.762 80.5137 118.961 81.4609 118.961C82.1543 118.961 82.5059 119.41 82.6426 119.752H82.6816V119.029H83.2773V121.871C83.2871 122.34 83.5117 122.584 83.8926 122.584C84.5469 122.584 84.9863 121.832 84.9961 120.719C84.9961 118.834 83.6289 117.564 81.6758 117.564C79.6836 117.574 78.375 119.078 78.3652 121.012C78.3652 123.082 79.5566 124.479 81.6465 124.469C82.2812 124.459 82.7305 124.42 83.2773 124.273V124.811C82.7988 124.938 82.2422 125.016 81.6465 125.016C79.293 125.016 77.7988 123.463 77.7988 121.012C77.7988 118.697 79.4102 117.018 81.6758 117.018C83.9902 117.018 85.5625 118.58 85.5625 120.699C85.5625 122.203 84.8301 123.111 83.8535 123.111C83.2383 123.111 82.7695 122.74 82.7305 122.223H82.6816C82.5449 122.564 82.1836 123.072 81.4609 123.072ZM81.5586 122.496C82.2812 122.496 82.6914 121.881 82.6914 121.002C82.6914 120.143 82.2812 119.537 81.5586 119.537C80.8359 119.537 80.4258 120.162 80.4258 121.002C80.4258 121.861 80.8457 122.496 81.5586 122.496ZM88.8535 126.1C87.6816 126.1 86.832 125.602 86.7051 124.664H87.4082C87.5352 125.23 88.0918 125.514 88.8535 125.514C89.8203 125.514 90.4062 125.064 90.4062 124.098V122.926H90.3477C90.1426 123.385 89.6934 123.941 88.7266 123.941C87.457 123.941 86.5391 122.936 86.5391 121.305C86.5391 119.684 87.4277 118.619 88.7363 118.619C89.7227 118.619 90.1426 119.234 90.3574 119.684H90.416V118.697H91.0703V124.137C91.0703 125.484 90.1328 126.1 88.8535 126.1ZM88.8145 123.346C89.8203 123.346 90.416 122.584 90.416 121.324C90.416 120.104 89.8398 119.225 88.8145 119.225C87.7695 119.225 87.2129 120.152 87.2129 121.324C87.2129 122.516 87.7793 123.346 88.8145 123.346ZM92.5059 124V118.697H93.1504V119.518H93.209C93.4238 118.961 93.9414 118.629 94.6348 118.629C95.3574 118.629 95.8359 118.99 96.0703 119.586H96.1094C96.3535 119 96.9102 118.629 97.6816 118.629C98.668 118.629 99.293 119.254 99.293 120.445V124H98.6191V120.455C98.6191 119.635 98.1602 119.234 97.4766 119.234C96.6855 119.234 96.2363 119.771 96.2363 120.523V124H95.5625V120.396C95.5625 119.703 95.1426 119.234 94.4395 119.234C93.7168 119.234 93.1797 119.801 93.1797 120.621V124H92.5059ZM100.465 122.516C100.465 121.441 101.334 121.031 102.418 120.943C102.77 120.919 103.629 120.87 103.883 120.855V120.357C103.883 119.645 103.424 119.215 102.594 119.215C101.9 119.215 101.432 119.537 101.305 120.016H100.611C100.719 119.176 101.529 118.619 102.633 118.619C103.424 118.619 104.547 118.961 104.547 120.416V124H103.883V123.18H103.844C103.629 123.639 103.102 124.117 102.213 124.117C101.246 124.117 100.465 123.541 100.465 122.516ZM101.129 122.545C101.129 123.17 101.627 123.521 102.311 123.521C103.287 123.521 103.883 122.818 103.883 121.979V121.412L102.516 121.51C101.578 121.578 101.129 121.939 101.129 122.545ZM105.992 124V118.697H106.656V124H105.992ZM106.334 117.789C106.07 117.789 105.846 117.584 105.846 117.33C105.846 117.076 106.07 116.861 106.334 116.861C106.598 116.861 106.822 117.076 106.822 117.33C106.822 117.584 106.598 117.789 106.334 117.789ZM108.766 116.93V124H108.092V116.93H108.766ZM110.709 124.049C110.416 124.049 110.182 123.814 110.182 123.531C110.182 123.238 110.416 123.004 110.709 123.004C110.992 123.004 111.227 123.238 111.227 123.531C111.227 123.814 110.992 124.049 110.709 124.049ZM114.742 124.107C113.297 124.107 112.379 122.955 112.379 121.373C112.379 119.771 113.326 118.619 114.732 118.619C115.807 118.619 116.637 119.293 116.773 120.279H116.109C115.982 119.703 115.484 119.225 114.742 119.225C113.736 119.225 113.043 120.084 113.043 121.354C113.043 122.623 113.717 123.512 114.742 123.512C115.426 123.512 115.963 123.102 116.109 122.447H116.783C116.637 123.404 115.855 124.107 114.742 124.107ZM119.986 124.107C118.6 124.107 117.633 122.994 117.633 121.373C117.633 119.742 118.6 118.619 119.986 118.619C121.373 118.619 122.33 119.742 122.33 121.373C122.33 122.994 121.373 124.107 119.986 124.107ZM119.986 123.512C121.07 123.512 121.666 122.535 121.666 121.373C121.666 120.211 121.07 119.225 119.986 119.225C118.893 119.225 118.297 120.211 118.297 121.373C118.297 122.535 118.893 123.512 119.986 123.512ZM123.492 124V118.697H124.137V119.518H124.195C124.41 118.961 124.928 118.629 125.621 118.629C126.344 118.629 126.822 118.99 127.057 119.586H127.096C127.34 119 127.896 118.629 128.668 118.629C129.654 118.629 130.279 119.254 130.279 120.445V124H129.605V120.455C129.605 119.635 129.146 119.234 128.463 119.234C127.672 119.234 127.223 119.771 127.223 120.523V124H126.549V120.396C126.549 119.703 126.129 119.234 125.426 119.234C124.703 119.234 124.166 119.801 124.166 120.621V124H123.492Z" fill="#8C8C8C"/>
<g clip-path="url(#clip1_3457_3955)">
<path d="M29.0594 123.182L27.6452 124.596C27.0826 125.159 26.3195 125.475 25.5239 125.475C24.7282 125.475 23.9652 125.159 23.4026 124.596C22.84 124.034 22.5239 123.271 22.5239 122.475C22.5239 121.679 22.84 120.916 23.4026 120.354L24.8168 118.94M26.9381 116.818L28.3523 115.404C28.9149 114.841 29.678 114.525 30.4736 114.525C31.2693 114.525 32.0323 114.841 32.595 115.404C33.1576 115.967 33.4736 116.73 33.4736 117.525C33.4736 118.321 33.1576 119.084 32.595 119.647L31.1807 121.061M25.9501 122.049L30.0916 117.907" stroke="black" stroke-width="1.125" stroke-linecap="round" stroke-linejoin="round"/>
</g>
<path d="M98.8325 46.3351L91.151 54.0151C90.9226 54.2434 90.774 54.5393 90.7272 54.8589L90.3125 57.6894L93.1438 57.2746C93.4634 57.2277 93.7593 57.0788 93.9875 56.8501L101.667 49.1701M98.8325 46.3351L100.504 44.6626C100.616 44.5511 100.748 44.4627 100.894 44.4024C101.039 44.3421 101.195 44.311 101.353 44.311C101.51 44.311 101.667 44.3421 101.812 44.4024C101.958 44.4627 102.09 44.5511 102.201 44.6626L103.34 45.8011C103.451 45.9125 103.54 46.0448 103.6 46.1904C103.661 46.3361 103.692 46.4921 103.692 46.6497C103.692 46.8073 103.661 46.9634 103.6 47.109C103.54 47.2546 103.451 47.3869 103.34 47.4984L101.667 49.1701M98.8325 46.3351L101.667 49.1701" stroke="#898989" stroke-width="1.5" stroke-linecap="round" stroke-linejoin="round"/>
</g>
<defs>
<filter id="filter0_d_3457_3955" x="-20" y="-8.97363" width="442" height="256.974" filterUnits="userSpaceOnUse" color-interpolation-filters="sRGB">
<feFlood flood-opacity="0" result="BackgroundImageFix"/>
<feColorMatrix in="SourceAlpha" type="matrix" values="0 0 0 0 0 0 0 0 0 0 0 0 0 0 0 0 0 0 127 0" result="hardAlpha"/>
<feOffset dy="-5"/>
<feGaussianBlur stdDeviation="10"/>
<feComposite in2="hardAlpha" operator="out"/>
<feColorMatrix type="matrix" values="0 0 0 0 0 0 0 0 0 0 0 0 0 0 0 0 0 0 0.1 0"/>
<feBlend mode="normal" in2="BackgroundImageFix" result="effect1_dropShadow_3457_3955"/>
<feBlend mode="normal" in="SourceGraphic" in2="effect1_dropShadow_3457_3955" result="shape"/>
</filter>
<clipPath id="clip0_3457_3955">
<rect width="402" height="148" rx="16" fill="white"/>
</clipPath>
<clipPath id="clip1_3457_3955">
<rect width="16" height="16" fill="white" transform="translate(16.6875 120) rotate(-45)"/>
</clipPath>
</defs>
</svg>
