<svg width="139" height="109" viewBox="0 0 139 109" fill="none" xmlns="http://www.w3.org/2000/svg">
<path d="M125.516 38.7839C129.026 37.849 132.234 41.0614 131.294 44.5704L116.515 99.7251C116.269 100.641 115.328 101.185 114.411 100.94L6.71925 72.0836C5.87006 71.8559 5.87099 70.6506 6.72062 70.4243L125.516 38.7839Z" fill="#255DF3"/>
<g filter="url(#filter0_d_3457_3923)">
<path d="M18.8383 14.4378C19.7786 10.929 24.1627 9.75076 26.7353 12.3155L114.933 100.25C115.244 100.56 114.943 101.082 114.519 100.968L5.27409 71.6961C4.35783 71.4506 3.81408 70.5088 4.05959 69.5926L18.8383 14.4378Z" fill="#3368F6"/>
</g>
<g filter="url(#filter1_d_3457_3923)">
<path d="M132.679 31.0949C133.825 31.4018 134.504 32.5791 134.197 33.7244L130.344 48.1073C130.156 48.806 129.63 49.3636 128.943 49.5904L65.2648 70.6231C64.4526 70.8913 63.5586 70.6517 62.9893 70.0134L18.3588 19.9595C17.8774 19.4196 17.7001 18.6734 17.8873 17.9747L21.7412 3.59186C22.0481 2.4466 23.2254 1.76686 24.3707 2.07374L132.679 31.0949Z" fill="#3D72FF"/>
</g>
<defs>
<filter id="filter0_d_3457_3923" x="0" y="10.9343" width="119.061" height="98.0498" filterUnits="userSpaceOnUse" color-interpolation-filters="sRGB">
<feFlood flood-opacity="0" result="BackgroundImageFix"/>
<feColorMatrix in="SourceAlpha" type="matrix" values="0 0 0 0 0 0 0 0 0 0 0 0 0 0 0 0 0 0 127 0" result="hardAlpha"/>
<feOffset dy="4"/>
<feGaussianBlur stdDeviation="2"/>
<feComposite in2="hardAlpha" operator="out"/>
<feColorMatrix type="matrix" values="0 0 0 0 0 0 0 0 0 0 0 0 0 0 0 0 0 0 0.25 0"/>
<feBlend mode="normal" in2="BackgroundImageFix" result="effect1_dropShadow_3457_3923"/>
<feBlend mode="normal" in="SourceGraphic" in2="effect1_dropShadow_3457_3923" result="shape"/>
</filter>
<filter id="filter1_d_3457_3923" x="13.8145" y="0" width="124.457" height="76.7314" filterUnits="userSpaceOnUse" color-interpolation-filters="sRGB">
<feFlood flood-opacity="0" result="BackgroundImageFix"/>
<feColorMatrix in="SourceAlpha" type="matrix" values="0 0 0 0 0 0 0 0 0 0 0 0 0 0 0 0 0 0 127 0" result="hardAlpha"/>
<feOffset dy="2"/>
<feGaussianBlur stdDeviation="2"/>
<feComposite in2="hardAlpha" operator="out"/>
<feColorMatrix type="matrix" values="0 0 0 0 0.0627451 0 0 0 0 0.498039 0 0 0 0 0.8 0 0 0 0.25 0"/>
<feBlend mode="normal" in2="BackgroundImageFix" result="effect1_dropShadow_3457_3923"/>
<feBlend mode="normal" in="SourceGraphic" in2="effect1_dropShadow_3457_3923" result="shape"/>
</filter>
</defs>
</svg>
