<svg width="362" height="207" viewBox="0 0 362 207" fill="none" xmlns="http://www.w3.org/2000/svg">
<mask id="path-1-inside-1_3457_4082" fill="white">
<path d="M362 191C362 199.837 354.837 207 346 207H16C7.16344 207 0 199.837 0 191V16C0 7.16345 7.16344 0 16 0H346C354.837 0 362 7.16344 362 16V191Z"/>
</mask>
<path d="M362 191C362 199.837 354.837 207 346 207H16C7.16344 207 0 199.837 0 191V16C0 7.16345 7.16344 0 16 0H346C354.837 0 362 7.16344 362 16V191Z" fill="white"/>
<path d="M346 207V206H16V207V208H346V207ZM0 191H1V16H0H-1V191H0ZM16 0V1H346V0V-1H16V0ZM362 16H361V191H362H363V16H362ZM346 0V1C354.284 1 361 7.71573 361 16H362H363C363 6.61116 355.389 -1 346 -1V0ZM0 16H1C1 7.71573 7.71573 1 16 1V0V-1C6.61116 -1 -1 6.61116 -1 16H0ZM16 207V206C7.71572 206 1 199.284 1 191H0H-1C-1 200.389 6.61115 208 16 208V207ZM346 207V208C355.389 208 363 200.389 363 191H362H361C361 199.284 354.284 206 346 206V207Z" fill="#EDEEF0" mask="url(#path-1-inside-1_3457_4082)"/>
<path d="M281.352 40.1562C279.008 40.1562 277.336 38.8906 277.273 37.0469H279.023C279.086 38.0469 280.07 38.6719 281.336 38.6719C282.695 38.6719 283.695 37.9219 283.695 36.8281C283.695 35.7188 282.758 34.9062 281.148 34.9062H280.18V33.5H281.148C282.43 33.5 283.336 32.7812 283.336 31.7031C283.336 30.6719 282.57 29.9688 281.367 29.9688C280.227 29.9688 279.227 30.5938 279.18 31.625H277.523C277.57 29.7812 279.273 28.5312 281.383 28.5312C283.602 28.5312 285.008 29.9375 284.992 31.6094C285.008 32.8906 284.211 33.8281 282.992 34.125V34.2031C284.539 34.4219 285.43 35.4531 285.43 36.8906C285.43 38.7812 283.695 40.1562 281.352 40.1562ZM287.32 40V38.75L291.242 34.7969C292.477 33.5 293.102 32.7812 293.102 31.7969C293.102 30.6875 292.195 29.9688 291.008 29.9688C289.758 29.9688 288.945 30.7656 288.945 31.9688H287.32C287.305 29.9062 288.883 28.5312 291.039 28.5312C293.227 28.5312 294.727 29.9062 294.742 31.75C294.727 33.0156 294.133 34.0156 292.008 36.1094L289.711 38.4375V38.5312H294.93V40H287.32ZM308.336 27.3281V41.3281H306.914V34.0625H305.18V40.6562H303.789V27.7031H305.18V32.8594H306.914V27.3281H308.336ZM302.398 29.1094C302.383 32.7969 301.164 36.0938 297.164 38.3594L296.305 37.3281C299.414 35.5703 300.727 33.1875 300.961 30.3281H296.898V29.1094H302.398Z" fill="black"/>
<path d="M325 29.5L329.293 33.7929C329.683 34.1834 329.683 34.8166 329.293 35.2071L325 39.5" stroke="#59585D" stroke-width="2" stroke-linecap="round"/>
<path d="M288.5 109L293.547 99.25V99.1562H287.719V97.6875H295.328V99.2188L290.297 109H288.5ZM308.562 96.3281V110.328H307.141V103.062H305.406V109.656H304.016V96.7031H305.406V101.859H307.141V96.3281H308.562ZM302.625 98.1094C302.609 101.797 301.391 105.094 297.391 107.359L296.531 106.328C299.641 104.57 300.953 102.188 301.188 99.3281H297.125V98.1094H302.625Z" fill="black"/>
<path d="M325 98.5L329.293 102.793C329.683 103.183 329.683 103.817 329.293 104.207L325 108.5" stroke="#59585D" stroke-width="2" stroke-linecap="round"/>
<path d="M286.758 175.797V174.406L291.758 166.688H293.883V174.344H295.43V175.797H293.883V178H292.258V175.797H286.758ZM288.57 174.344H292.258V168.734H292.133L288.57 174.25V174.344ZM308.664 165.328V179.328H307.242V172.062H305.508V178.656H304.117V165.703H305.508V170.859H307.242V165.328H308.664ZM302.727 167.109C302.711 170.797 301.492 174.094 297.492 176.359L296.633 175.328C299.742 173.57 301.055 171.188 301.289 168.328H297.227V167.109H302.727Z" fill="black"/>
<path d="M325 167.5L329.293 171.793C329.683 172.183 329.683 172.817 329.293 173.207L325 177.5" stroke="#59585D" stroke-width="2" stroke-linecap="round"/>
<line x1="24" y1="68.5" x2="338" y2="68.5" stroke="#EDEEF0"/>
<line x1="24" y1="137.5" x2="338" y2="137.5" stroke="#EDEEF0"/>
<path d="M73.5938 27.2656V41.3906H71.9219V34.25H70.3594V40.6719H68.7344V27.5312H70.3594V32.8281H71.9219V27.2656H73.5938ZM63.8281 28.8906V36.3438C65.0469 36.3203 66.3828 36.2188 67.8594 35.9219L68.0312 37.4375C66.125 37.7812 64.5156 37.875 63.0156 37.875H62.0781V28.8906H63.8281ZM86.3594 27.2656V32.7812H88.4531V34.2344H86.3594V41.3594H84.625V27.2656H86.3594ZM82.625 28.7344C82.625 32.8906 80.9062 36.5312 76.2031 38.8438L75.2188 37.5C78.6562 35.7891 80.5156 33.3828 80.875 30.1719H75.9844V28.7344H82.625ZM104.062 27.2812V31.7188H106.031V33.1562H104.062V37.8281H102.328V27.2812H104.062ZM101.312 28.8438V30.2344H92.9375V28.8438H96.2656V27.2656H98V28.8438H101.312ZM97.125 30.8125C99.1562 30.8125 100.562 31.8906 100.578 33.5156C100.562 35.125 99.1562 36.1875 97.125 36.1875C95.0781 36.1875 93.6562 35.125 93.6562 33.5156C93.6562 31.8906 95.0781 30.8125 97.125 30.8125ZM97.125 32.1562C96.0469 32.1562 95.3438 32.6562 95.3438 33.5156C95.3438 34.3594 96.0469 34.8594 97.125 34.8438C98.2031 34.8594 98.9219 34.3594 98.9219 33.5156C98.9219 32.6562 98.2031 32.1562 97.125 32.1562ZM104.625 39.7031V41.1094H95.0156V37H96.75V39.7031H104.625ZM122.281 27.2656V34.5469H120.562V27.2656H122.281ZM122.312 35.1406V38.7812H114.672V39.9219H122.734V41.2656H112.969V37.5156H120.578V36.4688H112.938V35.1406H122.312ZM118.875 27.9688V29.375H115.922C115.992 30.9375 117.188 32.4141 119.375 33.0156L118.531 34.3594C116.883 33.8828 115.703 32.875 115.062 31.5938C114.43 33.0078 113.195 34.1328 111.453 34.6562L110.656 33.2812C112.844 32.6328 114.062 31.0469 114.156 29.375H111.109V27.9688H118.875ZM137.266 34.3281V35.7188H131.812V38.3125H130.094V35.7188H124.359V34.3281H137.266ZM135.609 27.9062V33.0156H126V27.9062H135.609ZM127.688 29.2656V31.6562H133.891V29.2656H127.688ZM135.844 39.7031V41.1094H125.922V37.0156H127.656V39.7031H135.844Z" fill="black"/>
<rect x="27" y="22.5" width="24" height="24" fill="white"/>
<path d="M48.999 29.7825C48.999 32.4245 46.76 34.5665 43.999 34.5665C43.6737 34.5665 43.3514 34.5365 43.032 34.4765C42.802 34.4335 42.687 34.4125 42.607 34.4245C42.527 34.4365 42.413 34.4965 42.187 34.6175C41.54 34.9624 40.7953 35.0783 40.074 34.9465C40.348 34.6095 40.535 34.2055 40.618 33.7725C40.668 33.5075 40.544 33.2495 40.358 33.0615C39.4902 32.1906 39.0017 31.012 38.999 29.7825C38.999 27.1415 41.238 24.9995 43.999 24.9995C46.76 24.9995 48.999 27.1415 48.999 29.7825Z" stroke="#59585D" stroke-linejoin="round"/>
<path d="M42.4912 29.9995H42.4992M45.4912 29.9995H45.4992" stroke="#59585D" stroke-linecap="round"/>
<path d="M34.5015 43.9996H31.7175C31.3941 44.0062 31.0726 43.9474 30.7725 43.8266C29.8065 43.4116 29.3155 42.8626 29.0875 42.5196C29.0256 42.4246 28.9952 42.3125 29.0006 42.1993C29.006 42.086 29.0469 41.9773 29.1175 41.8886C30.2375 40.4006 32.8375 39.5026 34.5065 39.5026C36.1745 39.5026 38.7705 40.4006 39.8905 41.8886C40.0315 42.0756 40.0505 42.3246 39.9205 42.5196C39.6915 42.8626 39.2005 43.4116 38.2345 43.8266C37.9344 43.9474 37.6129 44.0062 37.2895 43.9996H34.5015ZM37.2845 34.2886C37.2837 35.0247 36.9906 35.7303 36.4697 36.2503C35.9487 36.7703 35.2426 37.0622 34.5065 37.0616C34.1419 37.0622 33.7807 36.9908 33.4436 36.8518C33.1066 36.7127 32.8002 36.5085 32.5421 36.251C32.2839 35.9935 32.079 35.6877 31.9391 35.351C31.7991 35.0142 31.7269 34.6533 31.7265 34.2886C31.7269 33.924 31.7991 33.563 31.9391 33.2263C32.079 32.8896 32.2839 32.5837 32.5421 32.3262C32.8002 32.0687 33.1066 31.8646 33.4436 31.7255C33.7807 31.5864 34.1419 31.5151 34.5065 31.5156C35.2426 31.5151 35.9487 31.8069 36.4697 32.3269C36.9906 32.8469 37.2837 33.5526 37.2845 34.2886Z" stroke="#59585D" stroke-linecap="round" stroke-linejoin="round"/>
<path d="M72.6094 96.2656V99.4062H74.5781V100.844H72.6094V103.812H70.875V96.2656H72.6094ZM68.3438 97.1406V98.5469H63.7812V102.016C66.4375 102.008 67.9141 101.93 69.5938 101.562L69.7812 102.969C67.9375 103.359 66.2812 103.438 63.2031 103.438H62.0625V97.1406H68.3438ZM65.1875 104.516V105.969H70.875V104.516H72.6094V110.188H63.4531V104.516H65.1875ZM65.1875 108.781H70.875V107.344H65.1875V108.781ZM86.4375 96.2812V100.719H88.4062V102.156H86.4375V106.828H84.7031V96.2812H86.4375ZM83.6875 97.8438V99.2344H75.3125V97.8438H78.6406V96.2656H80.375V97.8438H83.6875ZM79.5 99.8125C81.5312 99.8125 82.9375 100.891 82.9531 102.516C82.9375 104.125 81.5312 105.188 79.5 105.188C77.4531 105.188 76.0312 104.125 76.0312 102.516C76.0312 100.891 77.4531 99.8125 79.5 99.8125ZM79.5 101.156C78.4219 101.156 77.7188 101.656 77.7188 102.516C77.7188 103.359 78.4219 103.859 79.5 103.844C80.5781 103.859 81.2969 103.359 81.2969 102.516C81.2969 101.656 80.5781 101.156 79.5 101.156ZM87 108.703V110.109H77.3906V106H79.125V108.703H87ZM104.656 96.2656V103.547H102.938V96.2656H104.656ZM104.688 104.141V107.781H97.0469V108.922H105.109V110.266H95.3438V106.516H102.953V105.469H95.3125V104.141H104.688ZM101.25 96.9688V98.375H98.2969C98.3672 99.9375 99.5625 101.414 101.75 102.016L100.906 103.359C99.2578 102.883 98.0781 101.875 97.4375 100.594C96.8047 102.008 95.5703 103.133 93.8281 103.656L93.0312 102.281C95.2188 101.633 96.4375 100.047 96.5312 98.375H93.4844V96.9688H101.25ZM119.641 103.328V104.719H114.188V107.312H112.469V104.719H106.734V103.328H119.641ZM117.984 96.9062V102.016H108.375V96.9062H117.984ZM110.062 98.2656V100.656H116.266V98.2656H110.062ZM118.219 108.703V110.109H108.297V106.016H110.031V108.703H118.219Z" fill="black"/>
<rect x="27" y="91.5" width="24" height="24" fill="white"/>
<path d="M37.867 102.015C39.507 102.015 40.8365 100.686 40.8365 99.0457C40.8365 97.4057 39.507 96.0762 37.867 96.0762C36.227 96.0762 34.8975 97.4057 34.8975 99.0457C34.8975 100.686 36.227 102.015 37.867 102.015Z" stroke="#59585D"/>
<path d="M43.0957 101.124L44.0853 102.015L46.0652 99.7881" stroke="#59585D" stroke-linecap="round" stroke-linejoin="round"/>
<path d="M43.8044 107.954C43.8054 107.832 43.8059 107.709 43.8059 107.583C43.8059 105.738 41.1466 104.242 37.8668 104.242C34.5869 104.242 31.9277 105.738 31.9277 107.583C31.9277 109.428 31.9277 110.924 37.8668 110.924C39.5231 110.924 40.7175 110.807 41.5787 110.599" stroke="#59585D" stroke-linecap="round"/>
<path d="M72.6094 165.266V168.547H74.5781V169.984H72.6094V173.5H70.875V165.266H72.6094ZM63.6719 166.094V168.016H66.9688V166.094H68.6875V172.75H61.9531V166.094H63.6719ZM63.6719 171.375H66.9688V169.359H63.6719V171.375ZM72.7031 174.188V175.578H65.2344V177.812H72.9688V179.188H63.5V174.188H72.7031ZM88.1719 172.562V173.953H75.2969V172.562H88.1719ZM86.7188 177.703V179.109H76.8906V175H78.625V177.703H86.7188ZM81.7188 165.719C84.7969 165.719 86.7969 166.797 86.8125 168.578C86.7969 170.375 84.7969 171.469 81.7188 171.469C78.6406 171.469 76.625 170.375 76.625 168.578C76.625 166.797 78.6406 165.719 81.7188 165.719ZM81.7188 167.109C79.6719 167.109 78.4219 167.641 78.4375 168.578C78.4219 169.531 79.6719 170.062 81.7188 170.047C83.7812 170.062 85.0156 169.531 85.0156 168.578C85.0156 167.641 83.7812 167.109 81.7188 167.109ZM95 166.562V169.828H97.2969V166.562H98.9062V175.969H93.3594V166.562H95ZM95 174.562H97.2969V171.203H95V174.562ZM105.109 165.266V179.391H103.438V172.156H101.938V178.703H100.297V165.516H101.938V170.719H103.438V165.266H105.109ZM112.078 169.281C112.078 171.594 113.438 174.031 115.719 174.984L114.766 176.359C113.094 175.641 111.875 174.156 111.234 172.359C110.578 174.297 109.344 175.922 107.688 176.703L106.688 175.344C108.922 174.312 110.312 171.688 110.312 169.281V168.094H107.203V166.656H115.172V168.094H112.078V169.281ZM118.5 165.266V179.391H116.75V165.266H118.5Z" fill="black"/>
<rect x="27" y="160.5" width="24" height="24" fill="white"/>
<path d="M30.5315 178.057C31.6585 176.103 33.9131 172.195 33.9153 172.196L37.9112 174.503L34.5274 180.364L33.683 177.212L30.5315 178.057Z" stroke="#59585D" stroke-linejoin="round"/>
<path d="M47.4685 178.057C46.3415 176.103 44.0869 172.195 44.0847 172.196L40.0888 174.503L43.4726 180.364L44.317 177.212L47.4685 178.057Z" stroke="#59585D" stroke-linejoin="round"/>
<circle cx="39" cy="169.534" r="5.4375" fill="white" stroke="#59585D"/>
</svg>
