<svg width="1067" height="565" viewBox="0 0 1067 565" fill="none" xmlns="http://www.w3.org/2000/svg">
<path fill-rule="evenodd" clip-rule="evenodd" d="M593.639 176.576C659.095 176.576 712.158 229.64 712.159 295.097V301.482C712.159 366.94 659.096 420.003 593.639 420.003H530.911V564.857H467.883V176.576H593.639ZM530.911 325.274C531.87 343.076 546.607 357.214 564.648 357.215H590.194C622.737 357.214 649.118 330.833 649.119 298.29C649.118 265.747 622.737 239.365 590.194 239.364H530.911V325.274Z" fill="#3D72FF"/>
<path fill-rule="evenodd" clip-rule="evenodd" d="M1067 420.226L941.247 420.223C875.79 420.223 822.727 367.159 822.727 301.702V295.317C822.728 229.86 875.791 176.796 941.247 176.796H1003.97V15.3076H1067V420.226ZM944.694 239.584C912.151 239.584 885.768 265.967 885.767 298.51C885.767 331.053 912.151 357.435 944.694 357.435H1003.97V271.49C1002.99 253.706 988.266 239.585 970.238 239.584H944.694Z" fill="#3D72FF"/>
<path d="M799 420.219H735.974V158.133C745.573 162.494 756.241 164.927 767.479 164.927C778.723 164.927 789.397 162.493 799 158.129V420.219Z" fill="#3D72FF"/>
<path d="M767.453 59.1097C791.659 59.1097 811.282 78.6646 811.282 102.787C811.282 126.909 791.659 146.464 767.453 146.464C743.248 146.464 723.626 126.909 723.626 102.787C723.626 78.6647 743.248 59.1099 767.453 59.1097Z" fill="#3D72FF"/>
<mask id="mask0_2479_2929" style="mask-type:alpha" maskUnits="userSpaceOnUse" x="0" y="0" width="439" height="438">
<path d="M224.109 437.527V346.375V214.206H438.104V0H0V437.527H224.109Z" fill="#D9D9D9"/>
</mask>
<g mask="url(#mask0_2479_2929)">
<ellipse cx="78.0893" cy="72.0099" rx="43.8326" ry="43.6815" transform="rotate(180 78.0893 72.0099)" fill="#3D72FF"/>
<path d="M38.5527 124.713C49.5775 132.943 63.2705 137.817 78.1055 137.817C89.3269 137.817 99.8936 135.026 109.147 130.105C91.0361 153.921 80.2892 183.605 80.2891 215.791C80.2891 290.994 138.953 352.541 213.164 357.468V420.45C104.076 415.456 17.1719 325.739 17.1719 215.793C17.1719 183.075 24.8668 152.148 38.5527 124.713ZM308.098 329.523C303.554 338.452 300.992 348.552 300.992 359.249C300.992 374.261 306.036 388.098 314.527 399.171C289.598 411.585 261.785 419.102 232.355 420.45V357.47C260.661 355.597 286.706 345.487 308.098 329.523ZM428.121 225.387C426.772 254.545 419.304 282.111 406.972 306.843C395.88 298.434 382.039 293.441 367.027 293.441C356.246 293.441 346.067 296.016 337.078 300.583C352.986 279.322 363.062 253.472 364.942 225.387H428.121ZM222.758 10.916C333.071 10.916 423.091 97.5008 428.121 206.195H364.942C359.991 132.248 298.234 73.7949 222.776 73.7949C190.34 73.795 160.437 84.5967 136.487 102.786C141.372 93.6021 144.141 83.1283 144.141 72.0098C144.141 57.1655 139.208 43.4698 130.888 32.46C158.536 18.6736 189.738 10.916 222.758 10.916Z" fill="#3D72FF"/>
</g>
<mask id="mask1_2479_2929" style="mask-type:alpha" maskUnits="userSpaceOnUse" x="220" y="218" width="243" height="247">
<path d="M220.383 464.872V307.18V218.763H462.766V464.872H220.383Z" fill="#D9D9D9"/>
</mask>
<g mask="url(#mask1_2479_2929)">
<ellipse cx="367.004" cy="358.337" rx="43.8326" ry="43.6815" fill="#FF7B00"/>
<path d="M38.5527 123.801C49.5775 132.031 63.2705 136.905 78.1055 136.905C89.3269 136.905 99.8936 134.114 109.147 129.193C91.0361 153.009 80.2892 182.693 80.2891 214.879C80.2891 290.082 138.953 351.629 213.164 356.556V419.538C104.076 414.544 17.1719 324.827 17.1719 214.881C17.1719 182.163 24.8668 151.236 38.5527 123.801ZM308.1 328.61C303.554 337.54 300.992 347.642 300.992 358.341C300.992 373.351 306.035 387.188 314.524 398.26C289.596 410.673 261.784 418.19 232.355 419.538V356.558C260.662 354.685 286.707 344.574 308.1 328.61ZM428.121 224.475C426.772 253.634 419.303 281.2 406.971 305.933C395.879 297.525 382.038 292.533 367.027 292.533C356.244 292.533 346.064 295.11 337.073 299.678C352.984 278.415 363.062 252.563 364.942 224.475H428.121ZM222.758 10.0039C333.071 10.0039 423.091 96.5887 428.121 205.283H364.942C359.991 131.336 298.234 72.8828 222.776 72.8828C190.34 72.8829 160.437 83.6846 136.487 101.874C141.372 92.69 144.141 82.2162 144.141 71.0977C144.141 56.2534 139.208 42.5577 130.888 31.5479C158.536 17.7615 189.738 10.0039 222.758 10.0039Z" fill="#FF7B00"/>
</g>
</svg>
