<svg width="1495" height="289" viewBox="0 0 1495 289" fill="none" xmlns="http://www.w3.org/2000/svg">
<g filter="url(#filter0_f_3378_214)">
<circle cx="1352" cy="63.6858" r="8.38257" fill="#A5BEFF"/>
</g>
<g filter="url(#filter1_f_3378_214)">
<circle cx="1352" cy="49.553" r="8.38257" fill="#A5BEFF"/>
</g>
<g filter="url(#filter2_f_3378_214)">
<circle cx="193" cy="181.553" r="8.38257" fill="#A5BEFF"/>
</g>
<g filter="url(#filter3_f_3378_214)">
<circle cx="338" cy="181.553" r="8.38257" fill="#A5BEFF"/>
</g>
<g filter="url(#filter4_f_3378_214)">
<circle cx="483" cy="181.553" r="8.38257" fill="#A5BEFF"/>
</g>
<g filter="url(#filter5_f_3378_214)">
<circle cx="629.047" cy="100.553" r="8.38257" fill="#A5BEFF"/>
</g>
<g filter="url(#filter6_f_3378_214)">
<circle cx="774" cy="67.1516" r="8.38257" fill="#A5BEFF"/>
</g>
<g filter="url(#filter7_f_3378_214)">
<circle cx="774" cy="24.7825" r="8.38257" fill="#A5BEFF"/>
</g>
<g filter="url(#filter8_f_3378_214)">
<circle cx="918" cy="65.553" r="8.38257" fill="#A5BEFF"/>
</g>
<g filter="url(#filter9_f_3378_214)">
<circle cx="918" cy="82.3186" r="8.38257" fill="#A5BEFF"/>
</g>
<g filter="url(#filter10_f_3378_214)">
<circle cx="1064" cy="68.1702" r="8.38257" fill="#A5BEFF"/>
</g>
<g filter="url(#filter11_f_3378_214)">
<circle cx="1064" cy="133.42" r="8.38257" fill="#A5BEFF"/>
</g>
<g filter="url(#filter12_f_3378_214)">
<circle cx="1209.3" cy="94.553" r="8.38257" fill="#A5BEFF"/>
</g>
<g filter="url(#filter13_f_3378_214)">
<circle cx="1209.3" cy="64.6858" r="8.38257" fill="#A5BEFF"/>
</g>
<g filter="url(#filter14_f_3378_214)">
<circle cx="193" cy="218.053" r="8.38257" fill="#A5BEFF"/>
</g>
<path d="M9 201.793H41V169.793H9V201.793Z" fill="black"/>
<path d="M9 117.793H41V85.7932H9V117.793Z" fill="black"/>
<path d="M9 33.7932H41V1.79322H9V33.7932Z" fill="black"/>
<rect x="53.6328" y="7.46338" width="1440" height="281" stroke="#3D72FF"/>
<line x1="193.5" y1="6.55322" x2="193.5" y2="275.553" stroke="#3D72FF"/>
<line x1="338.5" y1="6.55322" x2="338.5" y2="275.553" stroke="#3D72FF"/>
<line x1="483.5" y1="6.55322" x2="483.5" y2="275.553" stroke="#3D72FF"/>
<line x1="628.5" y1="6.55322" x2="628.5" y2="275.553" stroke="#3D72FF"/>
<line x1="773.5" y1="6.55322" x2="773.5" y2="275.553" stroke="#3D72FF"/>
<line x1="918.5" y1="6.55322" x2="918.5" y2="275.553" stroke="#3D72FF"/>
<line x1="1063.5" y1="6.55322" x2="1063.5" y2="275.553" stroke="#3D72FF"/>
<line x1="1208.5" y1="6.55322" x2="1208.5" y2="275.553" stroke="#3D72FF"/>
<line x1="1353.5" y1="6.55322" x2="1353.5" y2="275.553" stroke="#3D72FF"/>
<line x1="53" y1="179.053" x2="1494" y2="179.053" stroke="#3D72FF"/>
<line x1="53" y1="85.0532" x2="1494" y2="85.0532" stroke="#3D72FF"/>
<path d="M776.5 65.5532L192.5 218.053V275.053H1354.5V65.5532H1064H776.5Z" fill="#3D72FF" fill-opacity="0.3"/>
<path d="M483 182.553L194 180.441V270.053H1354V51.4409L1065.24 135.941L775.242 23.4409L483 182.553Z" fill="#3D72FF" fill-opacity="0.3"/>
<rect x="53" y="252.553" width="1441" height="36" fill="#3D72FF"/>
<path d="M169.583 264.069V265.124H167.678V267.394H169.524V268.463H159.9V267.394H161.76V265.124H159.841V264.069H169.583ZM170.71 269.43V270.529H158.743V269.43H170.71ZM169.202 271.554V274.557H161.555V275.612H169.568V276.667H160.193V273.576H167.825V272.594H160.178V271.554H169.202ZM163.137 267.394H166.287V265.124H163.137V267.394ZM182.898 263.688V272.594H181.58V268.17H179.968V271.466H178.665V263.922H179.968V267.028H181.58V263.688H182.898ZM177.244 264.669V268.434H173.64V270.177C175.266 270.163 176.504 270.089 177.947 269.796L178.093 270.895C176.453 271.232 175.105 271.291 173.157 271.291H172.292V267.409H175.911V265.797H172.263V264.669H177.244ZM179.148 272.287C179.148 273.898 181.096 275.304 183.572 275.656L183.015 276.74C181.001 276.425 179.265 275.451 178.459 274.059C177.639 275.451 175.911 276.425 173.904 276.74L173.347 275.656C175.808 275.304 177.756 273.898 177.756 272.287V271.979H179.148V272.287ZM196.638 270.207V271.32H184.67V270.207H189.944V268.844H185.828V267.716H187.688V265.211H185.769V264.083H195.51V265.211H193.606V267.716H195.452V268.844H191.335V270.207H196.638ZM195.173 272.462V276.637H186.106V272.462H195.173ZM187.483 273.546V275.509H193.826V273.546H187.483ZM189.065 267.716H192.214V265.211H189.065V267.716ZM212.18 263.688V273.224H210.789V263.688H212.18ZM212.576 275.392V276.52H203.596V272.257H205.002V275.392H212.576ZM205.061 264.567C207.039 264.567 208.547 265.915 208.547 267.819C208.547 269.752 207.039 271.085 205.061 271.085C203.083 271.085 201.56 269.752 201.56 267.819C201.56 265.915 203.083 264.567 205.061 264.567ZM205.061 265.783C203.831 265.783 202.922 266.618 202.922 267.819C202.922 269.049 203.831 269.87 205.061 269.87C206.262 269.87 207.185 269.049 207.185 267.819C207.185 266.618 206.262 265.783 205.061 265.783ZM219.094 267.541C219.094 269.738 220.53 272.008 222.551 272.873L221.79 273.957C220.244 273.275 219.014 271.833 218.406 270.075C217.798 271.95 216.56 273.546 215.037 274.293L214.231 273.195C216.208 272.272 217.673 269.796 217.688 267.541V266.149H214.685V264.992H222.083V266.149H219.094V267.541ZM225.129 263.673V276.798H223.738V263.673H225.129Z" fill="white"/>
<path d="M10.9043 263.659V267.467H12.8232V268.625H10.9043V273.166H9.5127V263.659H10.9043ZM7.03711 264.787V265.915H2.55469V269.738C5.11084 269.745 6.55371 269.665 8.19434 269.328L8.35547 270.456C6.58301 270.807 5.03027 270.895 2.21777 270.895H1.17773V264.787H7.03711ZM11.4609 275.392V276.52H2.58398V272.184H3.97559V275.392H11.4609ZM24.835 263.673V276.798H23.5166V263.673H24.835ZM22.1543 264.01V276.154H20.8359V271.686H18.5947V270.543H20.8359V268.405H18.8145C18.1772 270.609 16.7783 272.521 14.3027 274L13.4824 273.004C16.2656 271.349 17.606 269.145 17.8477 266.442H14.127V265.299H19.2246C19.2246 265.973 19.1733 266.625 19.0635 267.262H20.8359V264.01H22.1543ZM37.4473 263.673V270.5H36.0703V268.932H33.1992V270.016H27.1494V264.274H28.541V266.046H31.8223V264.274H33.1992V265.475H36.0703V263.673H37.4473ZM37.4473 271.085V274.308H30.2842V275.524H37.916V276.637H28.8926V273.268H36.0703V272.169H28.8633V271.085H37.4473ZM28.541 268.903H31.8223V267.116H28.541V268.903ZM33.1992 267.863H36.0703V266.544H33.1992V267.863Z" fill="white"/>
<path d="M412.704 273.986V275.158H400.692V273.986H412.704ZM411.605 264.933V266.076H409.599V270.456H411.562V271.569H401.747V270.456H403.71V266.076H401.718V264.933H411.605ZM405.087 270.456H408.236V266.076H405.087V270.456ZM425.668 274.059V275.231H413.656V274.059H418.944V271.759H415.121V267.584H422.826V265.739H415.092V264.596H424.203V268.698H416.498V270.617H424.511V271.759H420.321V274.059H425.668ZM437.533 263.673V270.456H436.127V263.673H437.533ZM437.533 271.056V274.308H430.224V275.553H437.987V276.667H428.861V273.297H436.156V272.155H428.817V271.056H437.533ZM434.325 264.538V265.636H433.065V268.742C433.703 268.698 434.333 268.639 434.926 268.566L434.984 269.577C432.362 269.972 429.301 270.06 427.001 270.06L426.84 268.947L428.437 268.932V265.636H427.191V264.538H434.325ZM429.77 268.903C430.414 268.881 431.073 268.859 431.732 268.815V265.636H429.77V268.903ZM455.229 269.84V270.983H443.246V269.84H455.229ZM453.837 267.57V268.698H444.74V264.142H453.749V265.285H446.117V267.57H453.837ZM449.223 272.008C452.05 272.008 453.749 272.873 453.749 274.396C453.749 275.919 452.05 276.784 449.223 276.769C446.381 276.784 444.667 275.919 444.667 274.396C444.667 272.873 446.381 272.008 449.223 272.008ZM449.223 273.078C447.216 273.092 446.073 273.561 446.073 274.396C446.073 275.231 447.216 275.7 449.223 275.7C451.2 275.7 452.357 275.231 452.357 274.396C452.357 273.561 451.2 273.092 449.223 273.078ZM468.207 270.836V271.964H456.195V270.836H461.513V269.591H457.733V266.251H465.307V265.08H457.704V263.981H466.698V267.277H459.11V268.507H466.962V269.591H462.89V270.836H468.207ZM466.771 272.887V276.696H465.365V274H457.543V272.887H466.771ZM476.396 275.7C474.271 275.7 472.953 274.44 472.953 272.741C472.953 271.466 473.788 270.683 475.004 269.855C474.33 269.049 473.832 268.302 473.832 267.35C473.832 265.885 474.901 264.831 476.513 264.831C478.153 264.831 479.149 265.9 479.149 267.145C479.149 268.156 478.622 268.888 477.743 269.533L477.011 270.06L479.135 272.594C479.406 272.074 479.574 271.444 479.574 270.734H480.98C480.98 272.199 480.556 273.151 480.102 273.737L481.61 275.553H479.853L479.135 274.704C478.417 275.385 477.362 275.7 476.396 275.7ZM474.521 272.697C474.521 273.605 475.268 274.381 476.41 274.381C477.055 274.381 477.714 274.132 478.256 273.678L475.883 270.895L475.619 271.1C474.784 271.715 474.521 272.36 474.521 272.697ZM475.297 267.365C475.297 267.899 475.678 268.441 476.161 269.035L476.806 268.581C477.377 268.2 477.729 267.819 477.729 267.189C477.729 266.691 477.26 266.134 476.542 266.134C475.81 266.134 475.297 266.75 475.297 267.365ZM496.771 263.688V273.297H495.38V268.361H492.875V267.233H495.38V263.688H496.771ZM497.123 275.392V276.52H488.246V272.433H489.638V275.392H497.123ZM490.531 266.339C490.531 267.98 491.718 269.621 493.695 270.28L492.978 271.393C491.505 270.873 490.414 269.818 489.843 268.522C489.271 269.965 488.122 271.129 486.562 271.686L485.844 270.558C487.865 269.87 489.11 268.141 489.11 266.339V265.827H486.269V264.684H493.344V265.827H490.531V266.339ZM510.79 270.309V271.437H505.575V273.986H504.198V271.437H498.778V270.309H510.79ZM509.237 264.289V268.947H500.316V264.289H509.237ZM501.679 265.387V267.848H507.86V265.387H501.679ZM509.457 275.392V276.52H500.272V272.741H501.664V275.392H509.457ZM523.754 270.543V271.657H518.539V274.074H517.162V271.657H511.742V270.543H523.754ZM522.421 275.392V276.52H513.236V272.931H514.613V275.392H522.421ZM514.701 264.083V265.68H520.78V264.083H522.172V269.386H513.324V264.083H514.701ZM514.701 268.273H520.78V266.72H514.701V268.273ZM528.236 264.655C530.199 264.655 531.591 266.442 531.605 269.254C531.591 272.082 530.199 273.869 528.236 273.869C526.273 273.869 524.867 272.082 524.882 269.254C524.867 266.442 526.273 264.655 528.236 264.655ZM528.236 265.9C527.035 265.9 526.215 267.189 526.215 269.254C526.215 271.334 527.035 272.624 528.236 272.624C529.452 272.624 530.272 271.334 530.272 269.254C530.272 267.189 529.452 265.9 528.236 265.9ZM536.981 266.881V268.068H534.945V270.792H536.981V271.935H534.945V276.798H533.554V263.673H534.945V266.881H536.981ZM552.289 263.673V270.426H550.897V267.057H548.129V265.929H550.897V263.673H552.289ZM552.289 271.042V274.308H545.097V275.524H552.743V276.637H543.734V273.253H550.912V272.14H543.705V271.042H552.289ZM545.961 265.241C545.961 266.911 547.162 268.463 549.14 269.093L548.407 270.177C546.964 269.679 545.873 268.69 545.302 267.438C544.723 268.844 543.595 269.95 542.05 270.485L541.303 269.372C543.354 268.712 544.569 267.086 544.584 265.241V264.098H545.961V265.241ZM565.253 263.673V271.481H563.861V268.156H561.415V267.013H563.861V263.673H565.253ZM560.858 271.847C563.612 271.847 565.297 272.755 565.297 274.323C565.297 275.89 563.612 276.784 560.858 276.798C558.104 276.784 556.405 275.89 556.42 274.323C556.405 272.755 558.104 271.847 560.858 271.847ZM560.858 272.931C558.939 272.931 557.797 273.429 557.797 274.323C557.797 275.202 558.939 275.714 560.858 275.7C562.777 275.714 563.92 275.202 563.92 274.323C563.92 273.429 562.777 272.931 560.858 272.931ZM559.013 265.988C559.013 267.658 560.199 269.269 562.177 269.943L561.459 271.042C559.987 270.529 558.903 269.481 558.339 268.185C557.76 269.657 556.61 270.836 555.043 271.408L554.311 270.294C556.347 269.591 557.592 267.819 557.592 266.002V265.709H554.75V264.582H561.825V265.709H559.013V265.988Z" fill="white"/>
<path d="M695.709 265.006V266.12H687.887V265.006H691.11V263.615H692.501V265.006H695.709ZM691.798 266.706C693.688 266.72 694.977 267.658 694.977 269.093C694.977 270.529 693.688 271.481 691.798 271.481C689.894 271.481 688.605 270.529 688.605 269.093C688.605 267.658 689.894 266.72 691.798 266.706ZM691.798 267.775C690.685 267.775 689.938 268.288 689.953 269.093C689.938 269.914 690.685 270.397 691.798 270.397C692.912 270.397 693.659 269.914 693.673 269.093C693.659 268.288 692.912 267.775 691.798 267.775ZM698.185 263.673V267.233H700.089V268.39H698.185V271.876H696.793V263.673H698.185ZM698.185 272.55V276.798H696.793V273.678H689.513V272.55H698.185ZM704.85 266.193C704.85 267.628 705.773 269.079 707.472 269.723L706.74 270.792C705.517 270.324 704.66 269.43 704.191 268.346C703.708 269.569 702.807 270.631 701.54 271.173L700.778 270.089C702.55 269.313 703.502 267.658 703.502 266.193V264.494H704.85V266.193ZM712.028 263.688V271.759H710.709V268.244H709.171V271.349H707.882V263.922H709.171V267.101H710.709V263.688H712.028ZM707.633 272.008C710.373 272.008 712.086 272.902 712.101 274.396C712.086 275.89 710.373 276.784 707.633 276.769C704.894 276.784 703.18 275.89 703.195 274.396C703.18 272.902 704.894 272.008 707.633 272.008ZM707.633 273.078C705.729 273.078 704.557 273.561 704.572 274.396C704.557 275.231 705.729 275.714 707.633 275.7C709.538 275.714 710.695 275.231 710.709 274.396C710.695 273.561 709.538 273.078 707.633 273.078ZM728.332 263.673V270.456H726.955V263.673H728.332ZM728.346 271.056V274.308H721.11V275.583H728.786V276.667H719.762V273.297H726.969V272.125H719.718V271.056H728.346ZM722.326 265.504C722.326 267.101 723.585 268.581 725.622 269.167L724.948 270.236C723.402 269.774 722.238 268.786 721.652 267.526C721.066 268.917 719.872 270.009 718.253 270.514L717.609 269.416C719.645 268.786 720.905 267.204 720.919 265.504H717.975V264.376H725.211V265.504H722.326ZM742.423 270.309V271.437H737.208V273.986H735.832V271.437H730.412V270.309H742.423ZM740.871 264.289V268.947H731.95V264.289H740.871ZM733.312 265.387V267.848H739.494V265.387H733.312ZM741.09 275.392V276.52H731.906V272.741H733.297V275.392H741.09ZM750.685 264.098C751.813 264.098 752.765 264.501 753.38 265.182H756.603V263.673H757.98V270.353H756.603V268.976H753.41C752.794 269.679 751.828 270.089 750.685 270.089C748.693 270.089 747.243 268.874 747.243 267.086C747.243 265.329 748.693 264.098 750.685 264.098ZM750.685 265.241C749.455 265.226 748.576 265.988 748.576 267.086C748.576 268.214 749.455 268.961 750.685 268.976C751.886 268.961 752.765 268.214 752.765 267.086C752.765 265.988 751.886 265.226 750.685 265.241ZM757.98 270.998V274.264H750.817V275.524H758.449V276.637H749.425V273.224H756.603V272.082H749.396V270.998H757.98ZM753.981 266.281C754.054 266.537 754.098 266.801 754.098 267.086C754.098 267.365 754.062 267.628 753.996 267.877H756.603V266.281H753.981ZM770.329 263.688V266.955H772.248V268.126H770.329V271.496H768.937V263.688H770.329ZM770.329 272.111V276.637H761.92V272.111H770.329ZM763.283 273.195V275.509H768.981V273.195H763.283ZM766.52 264.376V268.083H761.95V269.723C764.228 269.716 765.839 269.65 767.75 269.328L767.897 270.441C765.861 270.807 764.132 270.88 761.613 270.88H760.558V267.028H765.158V265.49H760.543V264.376H766.52ZM776.54 275.7C774.416 275.7 773.097 274.44 773.097 272.741C773.097 271.466 773.932 270.683 775.148 269.855C774.474 269.049 773.976 268.302 773.976 267.35C773.976 265.885 775.045 264.831 776.657 264.831C778.297 264.831 779.293 265.9 779.293 267.145C779.293 268.156 778.766 268.888 777.887 269.533L777.155 270.06L779.279 272.594C779.55 272.074 779.718 271.444 779.718 270.734H781.125C781.125 272.199 780.7 273.151 780.246 273.737L781.754 275.553H779.997L779.279 274.704C778.561 275.385 777.506 275.7 776.54 275.7ZM774.665 272.697C774.665 273.605 775.412 274.381 776.554 274.381C777.199 274.381 777.858 274.132 778.4 273.678L776.027 270.895L775.763 271.1C774.928 271.715 774.665 272.36 774.665 272.697ZM775.441 267.365C775.441 267.899 775.822 268.441 776.305 269.035L776.95 268.581C777.521 268.2 777.873 267.819 777.873 267.189C777.873 266.691 777.404 266.134 776.686 266.134C775.954 266.134 775.441 266.75 775.441 267.365ZM792.975 264.933V266.339C792.96 267.995 792.96 269.723 792.492 272.228L791.129 272.082C791.583 269.708 791.583 267.951 791.583 266.339V266.061H783.542V264.933H792.975ZM794.279 273.869V275.026H782.311V273.869H785.138V269.621H786.53V273.869H788.419V269.621H789.782V273.869H794.279ZM801.999 264.831C801.984 266.574 804.123 268.214 806.701 268.551L806.159 269.694C804.013 269.35 802.123 268.236 801.281 266.691C800.417 268.244 798.534 269.35 796.403 269.694L795.846 268.551C798.424 268.214 800.534 266.588 800.548 264.831V264.113H801.999V264.831ZM807.243 270.983V272.125H801.911V276.798H800.548V272.125H795.275V270.983H807.243ZM819.108 263.673V271.085H817.731V263.673H819.108ZM810.436 264.435V269.035C812.553 269.02 814.413 268.866 816.383 268.449L816.574 269.606C814.406 270.045 812.428 270.207 810.128 270.207H809.044V264.435H810.436ZM819.108 271.686V276.623H810.509V271.686H819.108ZM811.872 272.785V275.509H817.746V272.785H811.872ZM824.455 265.226C824.44 268.17 824.074 271.203 822.243 273.781L821.159 273.166C822.689 271.115 823.151 268.844 823.253 266.369H821.466V265.226H824.455ZM827.37 265.226C827.37 266.332 827.348 267.541 827.208 268.756H828.747V264.01H830.065V276.154H828.747V269.884H827.047C826.747 271.518 826.198 273.136 825.187 274.572L824.103 273.942C825.802 271.664 826.11 268.903 826.168 266.369H824.85V265.226H827.37ZM832.555 263.673V276.798H831.222V263.673H832.555ZM845.036 263.673V270.456H843.659V263.673H845.036ZM845.05 271.056V274.308H837.814V275.583H845.49V276.667H836.466V273.297H843.673V272.125H836.422V271.056H845.05ZM839.03 265.504C839.03 267.101 840.29 268.581 842.326 269.167L841.652 270.236C840.106 269.774 838.942 268.786 838.356 267.526C837.77 268.917 836.576 270.009 834.958 270.514L834.313 269.416C836.349 268.786 837.609 267.204 837.624 265.504H834.679V264.376H841.916V265.504H839.03ZM859.127 270.309V271.437H853.913V273.986H852.536V271.437H847.116V270.309H859.127ZM857.575 264.289V268.947H848.654V264.289H857.575ZM850.016 265.387V267.848H856.198V265.387H850.016ZM857.794 275.392V276.52H848.61V272.741H850.001V275.392H857.794Z" fill="white"/>
<path d="M1028.91 263.673V266.676H1030.81V267.833H1028.91V270.675H1027.52V263.673H1028.91ZM1025.01 264.508V265.651H1020.56V269.137C1023.11 269.13 1024.56 269.049 1026.2 268.698L1026.36 269.826C1024.59 270.192 1023.03 270.28 1020.22 270.28H1019.18V264.508H1025.01ZM1021.88 271.364V272.858H1027.52V271.364H1028.91V276.593H1020.5V271.364H1021.88ZM1021.88 275.465H1027.52V273.957H1021.88V275.465ZM1042.5 263.688V273.385H1041.11V269.972H1038.24V271.203H1032.19V264.552H1033.58V266.779H1036.86V264.552H1038.24V266.017H1041.11V263.688H1042.5ZM1042.79 275.392V276.52H1033.93V272.433H1035.34V275.392H1042.79ZM1033.58 270.075H1036.86V267.848H1033.58V270.075ZM1038.24 268.844H1041.11V267.16H1038.24V268.844ZM1059.45 263.673V276.798H1058.12V263.673H1059.45ZM1056.78 263.952V276.139H1055.47V269.459H1053.43V268.317H1055.47V263.952H1056.78ZM1052.14 267.335C1052.14 269.577 1053.05 271.818 1054.89 272.887L1054.06 273.913C1052.81 273.166 1051.94 271.84 1051.5 270.25C1051.02 271.964 1050.13 273.422 1048.84 274.22L1047.99 273.18C1049.85 272.052 1050.81 269.665 1050.81 267.335V266.281H1048.39V265.153H1054.4V266.281H1052.14V267.335ZM1067.07 271.92C1069.91 271.92 1071.7 272.814 1071.71 274.352C1071.7 275.875 1069.91 276.784 1067.07 276.769C1064.25 276.784 1062.45 275.875 1062.45 274.352C1062.45 272.814 1064.25 271.92 1067.07 271.92ZM1067.07 272.975C1065.07 272.975 1063.83 273.488 1063.84 274.352C1063.83 275.202 1065.07 275.7 1067.07 275.7C1069.07 275.7 1070.32 275.202 1070.33 274.352C1070.32 273.488 1069.07 272.975 1067.07 272.975ZM1071.61 264.318V265.417C1071.61 266.471 1071.61 267.555 1071.24 268.903L1069.88 268.756C1070.23 267.416 1070.23 266.449 1070.23 265.431H1062.56V264.318H1071.61ZM1073.1 269.708V270.836H1061.16V269.708H1065.95V267.248H1067.32V269.708H1073.1ZM1077.67 275.7C1075.55 275.7 1074.23 274.44 1074.23 272.741C1074.23 271.466 1075.06 270.683 1076.28 269.855C1075.61 269.049 1075.11 268.302 1075.11 267.35C1075.11 265.885 1076.18 264.831 1077.79 264.831C1079.43 264.831 1080.43 265.9 1080.43 267.145C1080.43 268.156 1079.9 268.888 1079.02 269.533L1078.29 270.06L1080.41 272.594C1080.68 272.074 1080.85 271.444 1080.85 270.734H1082.26C1082.26 272.199 1081.83 273.151 1081.38 273.737L1082.89 275.553H1081.13L1080.41 274.704C1079.69 275.385 1078.64 275.7 1077.67 275.7ZM1075.8 272.697C1075.8 273.605 1076.54 274.381 1077.69 274.381C1078.33 274.381 1078.99 274.132 1079.53 273.678L1077.16 270.895L1076.9 271.1C1076.06 271.715 1075.8 272.36 1075.8 272.697ZM1076.57 267.365C1076.57 267.899 1076.95 268.441 1077.44 269.035L1078.08 268.581C1078.65 268.2 1079.01 267.819 1079.01 267.189C1079.01 266.691 1078.54 266.134 1077.82 266.134C1077.09 266.134 1076.57 266.75 1076.57 267.365ZM1093.77 263.688V267.584H1095.65V268.727H1093.77V272.521H1092.38V263.688H1093.77ZM1083.36 271.056C1084.37 271.056 1085.55 271.056 1086.78 271.012V270.133C1085.29 269.979 1084.34 269.276 1084.35 268.214C1084.34 267.013 1085.58 266.266 1087.47 266.281C1089.35 266.266 1090.59 267.013 1090.59 268.214C1090.59 269.269 1089.65 269.972 1088.18 270.133V270.968C1089.35 270.91 1090.53 270.814 1091.63 270.661L1091.75 271.657C1088.92 272.155 1085.82 272.169 1083.5 272.169L1083.36 271.056ZM1093.77 273.136V276.798H1092.38V274.22H1085V273.136H1093.77ZM1091.27 264.801V265.841H1083.69V264.801H1086.78V263.571H1088.18V264.801H1091.27ZM1087.47 267.233C1086.34 267.218 1085.67 267.584 1085.67 268.214C1085.67 268.83 1086.34 269.225 1087.47 269.225C1088.59 269.225 1089.26 268.83 1089.26 268.214C1089.26 267.584 1088.59 267.218 1087.47 267.233ZM1107.29 263.688V273.224H1105.9V263.688H1107.29ZM1107.69 275.392V276.52H1098.71V272.257H1100.11V275.392H1107.69ZM1100.17 264.567C1102.15 264.567 1103.66 265.915 1103.66 267.819C1103.66 269.752 1102.15 271.085 1100.17 271.085C1098.19 271.085 1096.67 269.752 1096.67 267.819C1096.67 265.915 1098.19 264.567 1100.17 264.567ZM1100.17 265.783C1098.94 265.783 1098.03 266.618 1098.03 267.819C1098.03 269.049 1098.94 269.87 1100.17 269.87C1101.37 269.87 1102.3 269.049 1102.3 267.819C1102.3 266.618 1101.37 265.783 1100.17 265.783Z" fill="white"/>
<path d="M1300.57 263.673V276.798H1299.16V263.673H1300.57ZM1297.45 265.021V266.164H1296.08V272.257C1296.76 272.213 1297.44 272.155 1298.09 272.082L1298.16 273.107C1295.32 273.561 1292.2 273.605 1289.78 273.62L1289.62 272.462L1291.35 272.448V266.164H1289.98V265.021H1297.45ZM1292.7 272.418C1293.36 272.404 1294.04 272.382 1294.72 272.345V266.164H1292.7V272.418ZM1313.25 269.899V271.042H1304.11V264.845H1313.13V265.988H1305.49V269.899H1313.25ZM1314.63 273.913V275.07H1302.62V273.913H1314.63ZM1317.46 264.508V266.515H1319.99V264.508H1321.28V270.705H1316.14V264.508H1317.46ZM1317.46 269.577H1319.99V267.599H1317.46V269.577ZM1326.77 263.688V271.569H1325.45V268.17H1323.92V271.481H1322.63V263.922H1323.92V267.028H1325.45V263.688H1326.77ZM1326.77 272.301V276.798H1325.4V273.429H1317.85V272.301H1326.77ZM1339.14 264.508V269.899H1332.9V264.508H1339.14ZM1334.26 265.622V268.815H1337.76V265.622H1334.26ZM1343.08 263.673V271.173H1341.7V263.673H1343.08ZM1343.38 272.023V273.078H1339.55C1339.64 274.22 1341.46 275.414 1343.85 275.685L1343.38 276.754C1341.33 276.513 1339.63 275.626 1338.84 274.469C1338.04 275.641 1336.31 276.498 1334.24 276.754L1333.76 275.685C1336.15 275.458 1338.01 274.25 1338.11 273.078H1334.29V272.023H1338.14V270.792H1339.52V272.023H1343.38ZM1359.15 263.673V266.676H1361.05V267.833H1359.15V270.675H1357.75V263.673H1359.15ZM1355.25 264.508V265.651H1350.8V269.137C1353.35 269.13 1354.79 269.049 1356.44 268.698L1356.6 269.826C1354.82 270.192 1353.27 270.28 1350.46 270.28H1349.42V264.508H1355.25ZM1352.11 271.364V272.858H1357.75V271.364H1359.15V276.593H1350.74V271.364H1352.11ZM1352.11 275.465H1357.75V273.957H1352.11V275.465ZM1372.74 263.688V273.385H1371.35V269.972H1368.48V271.203H1362.43V264.552H1363.82V266.779H1367.1V264.552H1368.48V266.017H1371.35V263.688H1372.74ZM1373.03 275.392V276.52H1364.17V272.433H1365.58V275.392H1373.03ZM1363.82 270.075H1367.1V267.848H1363.82V270.075ZM1368.48 268.844H1371.35V267.16H1368.48V268.844ZM1385.09 265.534C1385.09 267.672 1387.37 269.694 1389.89 270.148L1389.25 271.305C1387.15 270.851 1385.22 269.474 1384.37 267.628C1383.51 269.459 1381.58 270.836 1379.48 271.305L1378.86 270.148C1381.35 269.679 1383.62 267.672 1383.62 265.534V264.538H1385.09V265.534ZM1390.43 273.913V275.07H1378.42V273.913H1390.43ZM1401.95 264.948V266.544C1401.95 268.463 1401.95 270.265 1401.38 272.99L1400 272.858C1400.28 271.657 1400.42 270.602 1400.5 269.621L1392.62 270.045L1392.44 268.903L1400.57 268.595C1400.59 267.892 1400.59 267.218 1400.6 266.544V266.09H1392.81V264.948H1401.95ZM1403.35 273.898V275.041H1391.39V273.898H1403.35ZM1415.54 263.688V270.954H1414.22V267.848H1412.61V270.836H1411.31V263.908H1412.61V266.735H1414.22V263.688H1415.54ZM1408.16 271.54V272.902H1414.18V271.54H1415.54V276.637H1406.78V271.54H1408.16ZM1408.16 275.509H1414.18V274.015H1408.16V275.509ZM1409.89 264.42V267.921H1406.28V269.416C1407.91 269.401 1409.15 269.328 1410.59 269.049L1410.74 270.163C1409.08 270.47 1407.72 270.543 1405.8 270.543H1404.94V266.881H1408.55V265.534H1404.91V264.42H1409.89Z" fill="white"/>
<circle cx="193" cy="181.553" r="3.5" fill="#3D72FF" stroke="#3D72FF"/>
<circle cx="193" cy="218.553" r="3.5" fill="#3D72FF" stroke="#3D72FF"/>
<circle cx="338" cy="180.553" r="3.5" fill="#3D72FF" stroke="#3D72FF"/>
<circle cx="483" cy="141.553" r="3.5" fill="#3D72FF" stroke="#3D72FF"/>
<circle cx="483" cy="180.553" r="3.5" fill="#3D72FF" stroke="#3D72FF"/>
<circle cx="628" cy="100.553" r="3.5" fill="#3D72FF" stroke="#3D72FF"/>
<circle cx="774" cy="65.5532" r="3.5" fill="#3D72FF" stroke="#3D72FF"/>
<circle cx="774" cy="23.5532" r="3.5" fill="#3D72FF" stroke="#3D72FF"/>
<circle cx="918" cy="80.5532" r="3.5" fill="#3D72FF" stroke="#3D72FF"/>
<circle cx="918" cy="65.5532" r="3.5" fill="#3D72FF" stroke="#3D72FF"/>
<path d="M192.5 218.053L776.5 65.5532H1064H1354.5" stroke="#3D72FF" stroke-width="2"/>
<path d="M193 181.116H484L774 23.5532L1063 135.16L1353 52.3388" stroke="#3D72FF" stroke-width="2"/>
<circle cx="1064" cy="65.5532" r="3.5" fill="#3D72FF" stroke="#3D72FF"/>
<circle cx="1064" cy="133.553" r="3.5" fill="#3D72FF" stroke="#3D72FF"/>
<circle cx="1208" cy="94.5532" r="3.5" fill="#3D72FF" stroke="#3D72FF"/>
<circle cx="1208" cy="63.5532" r="3.5" fill="#3D72FF" stroke="#3D72FF"/>
<circle cx="1352" cy="63.5532" r="3.5" fill="#3D72FF" stroke="#3D72FF"/>
<circle cx="1352" cy="50.5532" r="3.5" fill="#3D72FF" stroke="#3D72FF"/>
<defs>
<filter id="filter0_f_3378_214" x="1327.22" y="38.9032" width="49.5656" height="49.5651" filterUnits="userSpaceOnUse" color-interpolation-filters="sRGB">
<feFlood flood-opacity="0" result="BackgroundImageFix"/>
<feBlend mode="normal" in="SourceGraphic" in2="BackgroundImageFix" result="shape"/>
<feGaussianBlur stdDeviation="8.2" result="effect1_foregroundBlur_3378_214"/>
</filter>
<filter id="filter1_f_3378_214" x="1327.22" y="24.7704" width="49.5656" height="49.5651" filterUnits="userSpaceOnUse" color-interpolation-filters="sRGB">
<feFlood flood-opacity="0" result="BackgroundImageFix"/>
<feBlend mode="normal" in="SourceGraphic" in2="BackgroundImageFix" result="shape"/>
<feGaussianBlur stdDeviation="8.2" result="effect1_foregroundBlur_3378_214"/>
</filter>
<filter id="filter2_f_3378_214" x="168.217" y="156.77" width="49.5656" height="49.5651" filterUnits="userSpaceOnUse" color-interpolation-filters="sRGB">
<feFlood flood-opacity="0" result="BackgroundImageFix"/>
<feBlend mode="normal" in="SourceGraphic" in2="BackgroundImageFix" result="shape"/>
<feGaussianBlur stdDeviation="8.2" result="effect1_foregroundBlur_3378_214"/>
</filter>
<filter id="filter3_f_3378_214" x="313.217" y="156.77" width="49.5656" height="49.5651" filterUnits="userSpaceOnUse" color-interpolation-filters="sRGB">
<feFlood flood-opacity="0" result="BackgroundImageFix"/>
<feBlend mode="normal" in="SourceGraphic" in2="BackgroundImageFix" result="shape"/>
<feGaussianBlur stdDeviation="8.2" result="effect1_foregroundBlur_3378_214"/>
</filter>
<filter id="filter4_f_3378_214" x="458.217" y="156.77" width="49.5656" height="49.5651" filterUnits="userSpaceOnUse" color-interpolation-filters="sRGB">
<feFlood flood-opacity="0" result="BackgroundImageFix"/>
<feBlend mode="normal" in="SourceGraphic" in2="BackgroundImageFix" result="shape"/>
<feGaussianBlur stdDeviation="8.2" result="effect1_foregroundBlur_3378_214"/>
</filter>
<filter id="filter5_f_3378_214" x="604.264" y="75.7704" width="49.5656" height="49.5651" filterUnits="userSpaceOnUse" color-interpolation-filters="sRGB">
<feFlood flood-opacity="0" result="BackgroundImageFix"/>
<feBlend mode="normal" in="SourceGraphic" in2="BackgroundImageFix" result="shape"/>
<feGaussianBlur stdDeviation="8.2" result="effect1_foregroundBlur_3378_214"/>
</filter>
<filter id="filter6_f_3378_214" x="749.217" y="42.369" width="49.5656" height="49.5651" filterUnits="userSpaceOnUse" color-interpolation-filters="sRGB">
<feFlood flood-opacity="0" result="BackgroundImageFix"/>
<feBlend mode="normal" in="SourceGraphic" in2="BackgroundImageFix" result="shape"/>
<feGaussianBlur stdDeviation="8.2" result="effect1_foregroundBlur_3378_214"/>
</filter>
<filter id="filter7_f_3378_214" x="749.217" y="-9.72748e-05" width="49.5656" height="49.5651" filterUnits="userSpaceOnUse" color-interpolation-filters="sRGB">
<feFlood flood-opacity="0" result="BackgroundImageFix"/>
<feBlend mode="normal" in="SourceGraphic" in2="BackgroundImageFix" result="shape"/>
<feGaussianBlur stdDeviation="8.2" result="effect1_foregroundBlur_3378_214"/>
</filter>
<filter id="filter8_f_3378_214" x="893.217" y="40.7704" width="49.5656" height="49.5651" filterUnits="userSpaceOnUse" color-interpolation-filters="sRGB">
<feFlood flood-opacity="0" result="BackgroundImageFix"/>
<feBlend mode="normal" in="SourceGraphic" in2="BackgroundImageFix" result="shape"/>
<feGaussianBlur stdDeviation="8.2" result="effect1_foregroundBlur_3378_214"/>
</filter>
<filter id="filter9_f_3378_214" x="893.217" y="57.536" width="49.5656" height="49.5651" filterUnits="userSpaceOnUse" color-interpolation-filters="sRGB">
<feFlood flood-opacity="0" result="BackgroundImageFix"/>
<feBlend mode="normal" in="SourceGraphic" in2="BackgroundImageFix" result="shape"/>
<feGaussianBlur stdDeviation="8.2" result="effect1_foregroundBlur_3378_214"/>
</filter>
<filter id="filter10_f_3378_214" x="1039.22" y="43.3876" width="49.5656" height="49.5651" filterUnits="userSpaceOnUse" color-interpolation-filters="sRGB">
<feFlood flood-opacity="0" result="BackgroundImageFix"/>
<feBlend mode="normal" in="SourceGraphic" in2="BackgroundImageFix" result="shape"/>
<feGaussianBlur stdDeviation="8.2" result="effect1_foregroundBlur_3378_214"/>
</filter>
<filter id="filter11_f_3378_214" x="1039.22" y="108.638" width="49.5656" height="49.5651" filterUnits="userSpaceOnUse" color-interpolation-filters="sRGB">
<feFlood flood-opacity="0" result="BackgroundImageFix"/>
<feBlend mode="normal" in="SourceGraphic" in2="BackgroundImageFix" result="shape"/>
<feGaussianBlur stdDeviation="8.2" result="effect1_foregroundBlur_3378_214"/>
</filter>
<filter id="filter12_f_3378_214" x="1184.52" y="69.7704" width="49.5656" height="49.5651" filterUnits="userSpaceOnUse" color-interpolation-filters="sRGB">
<feFlood flood-opacity="0" result="BackgroundImageFix"/>
<feBlend mode="normal" in="SourceGraphic" in2="BackgroundImageFix" result="shape"/>
<feGaussianBlur stdDeviation="8.2" result="effect1_foregroundBlur_3378_214"/>
</filter>
<filter id="filter13_f_3378_214" x="1184.52" y="39.9032" width="49.5656" height="49.5651" filterUnits="userSpaceOnUse" color-interpolation-filters="sRGB">
<feFlood flood-opacity="0" result="BackgroundImageFix"/>
<feBlend mode="normal" in="SourceGraphic" in2="BackgroundImageFix" result="shape"/>
<feGaussianBlur stdDeviation="8.2" result="effect1_foregroundBlur_3378_214"/>
</filter>
<filter id="filter14_f_3378_214" x="168.217" y="193.27" width="49.5656" height="49.5651" filterUnits="userSpaceOnUse" color-interpolation-filters="sRGB">
<feFlood flood-opacity="0" result="BackgroundImageFix"/>
<feBlend mode="normal" in="SourceGraphic" in2="BackgroundImageFix" result="shape"/>
<feGaussianBlur stdDeviation="8.2" result="effect1_foregroundBlur_3378_214"/>
</filter>
</defs>
</svg>
